<?xml version="1.0" encoding="utf-8" standalone="no"?>
<!DOCTYPE svg PUBLIC "-//W3C//DTD SVG 1.1//EN"
  "http://www.w3.org/Graphics/SVG/1.1/DTD/svg11.dtd">
<!-- Created with matplotlib (https://matplotlib.org/) -->
<svg height="324pt" version="1.1" viewBox="0 0 432 324" width="432pt" xmlns="http://www.w3.org/2000/svg" xmlns:xlink="http://www.w3.org/1999/xlink">
 <defs>
  <style type="text/css">
*{stroke-linecap:butt;stroke-linejoin:round;}
  </style>
 </defs>
 <g id="figure_1">
  <g id="patch_1">
   <path d="M 0 324 
L 432 324 
L 432 0 
L 0 0 
z
" style="fill:#ffffff;"/>
  </g>
  <g id="axes_1">
   <g id="patch_2">
    <path d="M 42.55 287.7 
L 421.2 287.7 
L 421.2 26.8 
L 42.55 26.8 
z
" style="fill:#eaeaf2;"/>
   </g>
   <g id="matplotlib.axis_1">
    <g id="xtick_1">
     <g id="line2d_1"/>
     <g id="text_1">
      <!-- 00:00 -->
      <defs>
       <path d="M 24.90625 -1.203125 
Q 15.203125 -1.203125 9.796875 7.390625 
Q 4.40625 16 4.40625 32.09375 
Q 4.40625 48.203125 9.796875 56.59375 
Q 15.203125 65 24.90625 65 
Q 34.5 65 39.890625 56.59375 
Q 45.296875 48.203125 45.296875 32.09375 
Q 45.296875 16 39.890625 7.390625 
Q 34.5 -1.203125 24.90625 -1.203125 
z
M 24.90625 5.40625 
Q 27.703125 5.40625 29.953125 6.953125 
Q 32.203125 8.5 33.84375 11.75 
Q 35.5 15 36.390625 20.046875 
Q 37.296875 25.09375 37.296875 32.09375 
Q 37.296875 39.09375 36.390625 44.09375 
Q 35.5 49.09375 33.84375 52.25 
Q 32.203125 55.40625 29.953125 56.90625 
Q 27.703125 58.40625 24.90625 58.40625 
Q 22.09375 58.40625 19.796875 56.90625 
Q 17.5 55.40625 15.84375 52.25 
Q 14.203125 49.09375 13.296875 44.09375 
Q 12.40625 39.09375 12.40625 32.09375 
Q 12.40625 18.09375 15.84375 11.75 
Q 19.296875 5.40625 24.90625 5.40625 
z
" id="SourceSansPro-Regular-48"/>
       <path d="M 12.5 34.890625 
Q 10 34.890625 8.25 36.640625 
Q 6.5 38.390625 6.5 41.09375 
Q 6.5 44 8.25 45.75 
Q 10 47.5 12.5 47.5 
Q 14.90625 47.5 16.65625 45.75 
Q 18.40625 44 18.40625 41.09375 
Q 18.40625 38.390625 16.65625 36.640625 
Q 14.90625 34.890625 12.5 34.890625 
z
M 12.5 -1.203125 
Q 10 -1.203125 8.25 0.546875 
Q 6.5 2.296875 6.5 5 
Q 6.5 7.90625 8.25 9.65625 
Q 10 11.40625 12.5 11.40625 
Q 14.90625 11.40625 16.65625 9.65625 
Q 18.40625 7.90625 18.40625 5 
Q 18.40625 2.296875 16.65625 0.546875 
Q 14.90625 -1.203125 12.5 -1.203125 
z
" id="SourceSansPro-Regular-58"/>
      </defs>
      <g style="fill:#242121;" transform="translate(48.575426 298.320312)scale(0.1 -0.1)">
       <use xlink:href="#SourceSansPro-Regular-48"/>
       <use x="49.699997" xlink:href="#SourceSansPro-Regular-48"/>
       <use x="99.399994" xlink:href="#SourceSansPro-Regular-58"/>
       <use x="124.299988" xlink:href="#SourceSansPro-Regular-48"/>
       <use x="173.999985" xlink:href="#SourceSansPro-Regular-48"/>
      </g>
     </g>
    </g>
    <g id="xtick_2">
     <g id="line2d_2"/>
     <g id="text_2">
      <!-- 03:00 -->
      <defs>
       <path d="M 23.59375 -1.203125 
Q 19.796875 -1.203125 16.640625 -0.453125 
Q 13.5 0.296875 10.890625 1.546875 
Q 8.296875 2.796875 6.25 4.390625 
Q 4.203125 6 2.59375 7.796875 
L 6.796875 13.203125 
Q 9.703125 10.203125 13.546875 7.890625 
Q 17.40625 5.59375 23.09375 5.59375 
Q 28.90625 5.59375 32.59375 8.75 
Q 36.296875 11.90625 36.296875 17.296875 
Q 36.296875 20.09375 35.25 22.4375 
Q 34.203125 24.796875 31.796875 26.5 
Q 29.40625 28.203125 25.5 29.09375 
Q 21.59375 30 15.90625 30 
L 15.90625 36.296875 
Q 21 36.296875 24.453125 37.1875 
Q 27.90625 38.09375 30.046875 39.6875 
Q 32.203125 41.296875 33.09375 43.5 
Q 34 45.703125 34 48.203125 
Q 34 52.90625 31.046875 55.59375 
Q 28.09375 58.296875 23 58.296875 
Q 19 58.296875 15.640625 56.5 
Q 12.296875 54.703125 9.40625 51.796875 
L 5 57 
Q 8.703125 60.5 13.140625 62.75 
Q 17.59375 65 23.296875 65 
Q 27.5 65 31 63.890625 
Q 34.5 62.796875 37.046875 60.75 
Q 39.59375 58.703125 41 55.703125 
Q 42.40625 52.703125 42.40625 48.796875 
Q 42.40625 43 39.203125 39.296875 
Q 36 35.59375 30.796875 33.59375 
L 30.796875 33.203125 
Q 33.703125 32.5 36.203125 31.140625 
Q 38.703125 29.796875 40.59375 27.75 
Q 42.5 25.703125 43.546875 23 
Q 44.59375 20.296875 44.59375 17 
Q 44.59375 12.796875 42.9375 9.390625 
Q 41.296875 6 38.4375 3.640625 
Q 35.59375 1.296875 31.796875 0.046875 
Q 28 -1.203125 23.59375 -1.203125 
z
" id="SourceSansPro-Regular-51"/>
      </defs>
      <g style="fill:#242121;" transform="translate(91.633737 298.320312)scale(0.1 -0.1)">
       <use xlink:href="#SourceSansPro-Regular-48"/>
       <use x="49.699997" xlink:href="#SourceSansPro-Regular-51"/>
       <use x="99.399994" xlink:href="#SourceSansPro-Regular-58"/>
       <use x="124.299988" xlink:href="#SourceSansPro-Regular-48"/>
       <use x="173.999985" xlink:href="#SourceSansPro-Regular-48"/>
      </g>
     </g>
    </g>
    <g id="xtick_3">
     <g id="line2d_3"/>
     <g id="text_3">
      <!-- 06:00 -->
      <defs>
       <path d="M 26.796875 5.296875 
Q 29.203125 5.296875 31.203125 6.296875 
Q 33.203125 7.296875 34.703125 9.140625 
Q 36.203125 11 37.046875 13.546875 
Q 37.90625 16.09375 37.90625 19.296875 
Q 37.90625 25.59375 35 29.1875 
Q 32.09375 32.796875 26.09375 32.796875 
Q 23.09375 32.796875 19.546875 30.84375 
Q 16 28.90625 12.796875 24.40625 
Q 13.59375 15 17.140625 10.140625 
Q 20.703125 5.296875 26.796875 5.296875 
z
M 39.90625 53.09375 
Q 37.90625 55.40625 35.15625 56.75 
Q 32.40625 58.09375 29.40625 58.09375 
Q 26.09375 58.09375 23.09375 56.6875 
Q 20.09375 55.296875 17.796875 52.09375 
Q 15.5 48.90625 14.09375 43.75 
Q 12.703125 38.59375 12.59375 31 
Q 15.59375 34.703125 19.59375 36.84375 
Q 23.59375 39 27.5 39 
Q 35.796875 39 40.75 34.09375 
Q 45.703125 29.203125 45.703125 19.296875 
Q 45.703125 14.703125 44.203125 10.953125 
Q 42.703125 7.203125 40.09375 4.5 
Q 37.5 1.796875 34.09375 0.296875 
Q 30.703125 -1.203125 26.796875 -1.203125 
Q 22.09375 -1.203125 18.09375 0.6875 
Q 14.09375 2.59375 11.140625 6.4375 
Q 8.203125 10.296875 6.5 16.046875 
Q 4.796875 21.796875 4.796875 29.5 
Q 4.796875 39.09375 6.796875 45.84375 
Q 8.796875 52.59375 12.1875 56.84375 
Q 15.59375 61.09375 19.9375 63.046875 
Q 24.296875 65 29.09375 65 
Q 34.296875 65 38.046875 63.046875 
Q 41.796875 61.09375 44.5 58.203125 
z
" id="SourceSansPro-Regular-54"/>
      </defs>
      <g style="fill:#242121;" transform="translate(134.692048 298.320312)scale(0.1 -0.1)">
       <use xlink:href="#SourceSansPro-Regular-48"/>
       <use x="49.699997" xlink:href="#SourceSansPro-Regular-54"/>
       <use x="99.399994" xlink:href="#SourceSansPro-Regular-58"/>
       <use x="124.299988" xlink:href="#SourceSansPro-Regular-48"/>
       <use x="173.999985" xlink:href="#SourceSansPro-Regular-48"/>
      </g>
     </g>
    </g>
    <g id="xtick_4">
     <g id="line2d_4"/>
     <g id="text_4">
      <!-- 09:00 -->
      <defs>
       <path d="M 23.5 31 
Q 26.59375 31 30.140625 32.953125 
Q 33.703125 34.90625 36.90625 39.5 
Q 36.09375 48.90625 32.5 53.703125 
Q 28.90625 58.5 22.796875 58.5 
Q 20.5 58.5 18.453125 57.5 
Q 16.40625 56.5 14.90625 54.640625 
Q 13.40625 52.796875 12.546875 50.1875 
Q 11.703125 47.59375 11.703125 44.5 
Q 11.703125 38.203125 14.59375 34.59375 
Q 17.5 31 23.5 31 
z
M 9.703125 10.703125 
Q 11.703125 8.40625 14.453125 7 
Q 17.203125 5.59375 20.203125 5.59375 
Q 23.59375 5.59375 26.59375 7 
Q 29.59375 8.40625 31.890625 11.65625 
Q 34.203125 14.90625 35.59375 20.09375 
Q 37 25.296875 37.09375 33 
Q 34.09375 29.203125 30.09375 27 
Q 26.09375 24.796875 22.09375 24.796875 
Q 13.796875 24.796875 8.890625 29.6875 
Q 4 34.59375 4 44.5 
Q 4 49.09375 5.5 52.84375 
Q 7 56.59375 9.546875 59.296875 
Q 12.09375 62 15.546875 63.5 
Q 19 65 22.796875 65 
Q 27.5 65 31.546875 63.09375 
Q 35.59375 61.203125 38.546875 57.34375 
Q 41.5 53.5 43.140625 47.75 
Q 44.796875 42 44.796875 34.296875 
Q 44.796875 24.703125 42.796875 17.953125 
Q 40.796875 11.203125 37.390625 6.953125 
Q 34 2.703125 29.640625 0.75 
Q 25.296875 -1.203125 20.5 -1.203125 
Q 15.40625 -1.203125 11.546875 0.6875 
Q 7.703125 2.59375 5.09375 5.5 
z
" id="SourceSansPro-Regular-57"/>
      </defs>
      <g style="fill:#242121;" transform="translate(177.750358 298.320312)scale(0.1 -0.1)">
       <use xlink:href="#SourceSansPro-Regular-48"/>
       <use x="49.699997" xlink:href="#SourceSansPro-Regular-57"/>
       <use x="99.399994" xlink:href="#SourceSansPro-Regular-58"/>
       <use x="124.299988" xlink:href="#SourceSansPro-Regular-48"/>
       <use x="173.999985" xlink:href="#SourceSansPro-Regular-48"/>
      </g>
     </g>
    </g>
    <g id="xtick_5">
     <g id="line2d_5"/>
     <g id="text_5">
      <!-- 12:00 -->
      <defs>
       <path d="M 7.90625 6.796875 
L 22.5 6.796875 
L 22.5 53.796875 
L 10.90625 53.796875 
L 10.90625 59.09375 
Q 15.296875 59.90625 18.546875 61.046875 
Q 21.796875 62.203125 24.40625 63.796875 
L 30.703125 63.796875 
L 30.703125 6.796875 
L 43.90625 6.796875 
L 43.90625 0 
L 7.90625 0 
z
" id="SourceSansPro-Regular-49"/>
       <path d="M 4 4.90625 
Q 11.203125 12.09375 16.796875 17.890625 
Q 22.40625 23.703125 26.203125 28.640625 
Q 30 33.59375 32 37.75 
Q 34 41.90625 34 45.796875 
Q 34 51.296875 31 54.796875 
Q 28 58.296875 21.90625 58.296875 
Q 17.90625 58.296875 14.5 56.046875 
Q 11.09375 53.796875 8.296875 50.59375 
L 3.59375 55.296875 
Q 7.59375 59.703125 12.09375 62.34375 
Q 16.59375 65 22.90625 65 
Q 31.796875 65 36.890625 59.84375 
Q 42 54.703125 42 46.203125 
Q 42 41.703125 40.046875 37.140625 
Q 38.09375 32.59375 34.640625 27.75 
Q 31.203125 22.90625 26.453125 17.65625 
Q 21.703125 12.40625 16 6.5 
Q 18.59375 6.703125 21.390625 6.890625 
Q 24.203125 7.09375 26.703125 7.09375 
L 45.203125 7.09375 
L 45.203125 0 
L 4 0 
z
" id="SourceSansPro-Regular-50"/>
      </defs>
      <g style="fill:#242121;" transform="translate(220.808669 298.320312)scale(0.1 -0.1)">
       <use xlink:href="#SourceSansPro-Regular-49"/>
       <use x="49.699997" xlink:href="#SourceSansPro-Regular-50"/>
       <use x="99.399994" xlink:href="#SourceSansPro-Regular-58"/>
       <use x="124.299988" xlink:href="#SourceSansPro-Regular-48"/>
       <use x="173.999985" xlink:href="#SourceSansPro-Regular-48"/>
      </g>
     </g>
    </g>
    <g id="xtick_6">
     <g id="line2d_6"/>
     <g id="text_6">
      <!-- 15:00 -->
      <defs>
       <path d="M 23.40625 -1.203125 
Q 19.59375 -1.203125 16.4375 -0.453125 
Q 13.296875 0.296875 10.75 1.5 
Q 8.203125 2.703125 6.140625 4.25 
Q 4.09375 5.796875 2.5 7.5 
L 6.5 12.90625 
Q 9.296875 10 13.140625 7.796875 
Q 17 5.59375 22.59375 5.59375 
Q 25.5 5.59375 28.046875 6.640625 
Q 30.59375 7.703125 32.5 9.59375 
Q 34.40625 11.5 35.5 14.203125 
Q 36.59375 16.90625 36.59375 20.203125 
Q 36.59375 26.796875 32.890625 30.5 
Q 29.203125 34.203125 23 34.203125 
Q 19.703125 34.203125 17.34375 33.203125 
Q 15 32.203125 12.09375 30.296875 
L 7.703125 33.09375 
L 9.796875 63.796875 
L 41.703125 63.796875 
L 41.703125 56.703125 
L 17 56.703125 
L 15.296875 37.796875 
Q 17.59375 39 19.890625 39.703125 
Q 22.203125 40.40625 25.09375 40.40625 
Q 29.203125 40.40625 32.796875 39.203125 
Q 36.40625 38 39.09375 35.546875 
Q 41.796875 33.09375 43.34375 29.34375 
Q 44.90625 25.59375 44.90625 20.40625 
Q 44.90625 15.203125 43.09375 11.203125 
Q 41.296875 7.203125 38.296875 4.453125 
Q 35.296875 1.703125 31.4375 0.25 
Q 27.59375 -1.203125 23.40625 -1.203125 
z
" id="SourceSansPro-Regular-53"/>
      </defs>
      <g style="fill:#242121;" transform="translate(263.86698 298.320312)scale(0.1 -0.1)">
       <use xlink:href="#SourceSansPro-Regular-49"/>
       <use x="49.699997" xlink:href="#SourceSansPro-Regular-53"/>
       <use x="99.399994" xlink:href="#SourceSansPro-Regular-58"/>
       <use x="124.299988" xlink:href="#SourceSansPro-Regular-48"/>
       <use x="173.999985" xlink:href="#SourceSansPro-Regular-48"/>
      </g>
     </g>
    </g>
    <g id="xtick_7">
     <g id="line2d_7"/>
     <g id="text_7">
      <!-- 18:00 -->
      <defs>
       <path d="M 25 -1.203125 
Q 20.5 -1.203125 16.640625 0.09375 
Q 12.796875 1.40625 10.046875 3.75 
Q 7.296875 6.09375 5.6875 9.296875 
Q 4.09375 12.5 4.09375 16.296875 
Q 4.09375 19.40625 5.140625 22.046875 
Q 6.203125 24.703125 7.84375 26.84375 
Q 9.5 29 11.640625 30.640625 
Q 13.796875 32.296875 16.09375 33.5 
L 16.09375 33.90625 
Q 12.59375 36.40625 9.890625 39.953125 
Q 7.203125 43.5 7.203125 48.59375 
Q 7.203125 52.296875 8.59375 55.296875 
Q 10 58.296875 12.390625 60.4375 
Q 14.796875 62.59375 18.09375 63.796875 
Q 21.40625 65 25.296875 65 
Q 29.5 65 32.796875 63.75 
Q 36.09375 62.5 38.4375 60.25 
Q 40.796875 58 42.046875 54.84375 
Q 43.296875 51.703125 43.296875 48 
Q 43.296875 45.5 42.4375 43.203125 
Q 41.59375 40.90625 40.34375 38.90625 
Q 39.09375 36.90625 37.546875 35.296875 
Q 36 33.703125 34.5 32.59375 
L 34.5 32.203125 
Q 36.59375 31 38.59375 29.453125 
Q 40.59375 27.90625 42.140625 25.953125 
Q 43.703125 24 44.640625 21.5 
Q 45.59375 19 45.59375 15.796875 
Q 45.59375 12.203125 44.09375 9.09375 
Q 42.59375 6 39.890625 3.703125 
Q 37.203125 1.40625 33.390625 0.09375 
Q 29.59375 -1.203125 25 -1.203125 
z
M 29.5 34.796875 
Q 32.703125 37.703125 34.453125 40.890625 
Q 36.203125 44.09375 36.203125 47.59375 
Q 36.203125 52.40625 33.296875 55.65625 
Q 30.40625 58.90625 25.09375 58.90625 
Q 20.59375 58.90625 17.6875 56.09375 
Q 14.796875 53.296875 14.796875 48.59375 
Q 14.796875 45.703125 16 43.640625 
Q 17.203125 41.59375 19.25 40 
Q 21.296875 38.40625 23.9375 37.15625 
Q 26.59375 35.90625 29.5 34.796875 
z
M 25.203125 4.90625 
Q 30.796875 4.90625 34.25 8 
Q 37.703125 11.09375 37.703125 16.09375 
Q 37.703125 19.203125 36.296875 21.390625 
Q 34.90625 23.59375 32.5 25.25 
Q 30.09375 26.90625 26.9375 28.25 
Q 23.796875 29.59375 20.40625 31 
Q 16.59375 28.40625 14.046875 24.953125 
Q 11.5 21.5 11.5 17.09375 
Q 11.5 14.40625 12.546875 12.203125 
Q 13.59375 10 15.4375 8.34375 
Q 17.296875 6.703125 19.796875 5.796875 
Q 22.296875 4.90625 25.203125 4.90625 
z
" id="SourceSansPro-Regular-56"/>
      </defs>
      <g style="fill:#242121;" transform="translate(306.92529 298.320312)scale(0.1 -0.1)">
       <use xlink:href="#SourceSansPro-Regular-49"/>
       <use x="49.699997" xlink:href="#SourceSansPro-Regular-56"/>
       <use x="99.399994" xlink:href="#SourceSansPro-Regular-58"/>
       <use x="124.299988" xlink:href="#SourceSansPro-Regular-48"/>
       <use x="173.999985" xlink:href="#SourceSansPro-Regular-48"/>
      </g>
     </g>
    </g>
    <g id="xtick_8">
     <g id="line2d_8"/>
     <g id="text_8">
      <!-- 21:00 -->
      <g style="fill:#242121;" transform="translate(349.983601 298.320312)scale(0.1 -0.1)">
       <use xlink:href="#SourceSansPro-Regular-50"/>
       <use x="49.699997" xlink:href="#SourceSansPro-Regular-49"/>
       <use x="99.399994" xlink:href="#SourceSansPro-Regular-58"/>
       <use x="124.299988" xlink:href="#SourceSansPro-Regular-48"/>
       <use x="173.999985" xlink:href="#SourceSansPro-Regular-48"/>
      </g>
     </g>
    </g>
    <g id="xtick_9">
     <g id="line2d_9"/>
     <g id="text_9">
      <!-- 00:00 -->
      <g style="fill:#242121;" transform="translate(393.041912 298.320312)scale(0.1 -0.1)">
       <use xlink:href="#SourceSansPro-Regular-48"/>
       <use x="49.699997" xlink:href="#SourceSansPro-Regular-48"/>
       <use x="99.399994" xlink:href="#SourceSansPro-Regular-58"/>
       <use x="124.299988" xlink:href="#SourceSansPro-Regular-48"/>
       <use x="173.999985" xlink:href="#SourceSansPro-Regular-48"/>
      </g>
     </g>
    </g>
    <g id="text_10">
     <!-- Time of day -->
     <defs>
      <path d="M 22.59375 58.59375 
L 2.796875 58.59375 
L 2.796875 65.59375 
L 50.796875 65.59375 
L 50.796875 58.59375 
L 31 58.59375 
L 31 0 
L 22.59375 0 
z
" id="SourceSansPro-Regular-84"/>
      <path d="M 8.203125 48.59375 
L 16.40625 48.59375 
L 16.40625 0 
L 8.203125 0 
z
M 12.40625 58.59375 
Q 10 58.59375 8.34375 60.09375 
Q 6.703125 61.59375 6.703125 63.90625 
Q 6.703125 66.296875 8.34375 67.75 
Q 10 69.203125 12.40625 69.203125 
Q 14.796875 69.203125 16.4375 67.75 
Q 18.09375 66.296875 18.09375 63.90625 
Q 18.09375 61.59375 16.4375 60.09375 
Q 14.796875 58.59375 12.40625 58.59375 
z
" id="SourceSansPro-Regular-105"/>
      <path d="M 8.203125 48.59375 
L 15 48.59375 
L 15.703125 41.59375 
L 16 41.59375 
Q 19.203125 45.09375 22.953125 47.4375 
Q 26.703125 49.796875 31.09375 49.796875 
Q 36.703125 49.796875 39.84375 47.34375 
Q 43 44.90625 44.5 40.5 
Q 48.296875 44.703125 52.140625 47.25 
Q 56 49.796875 60.5 49.796875 
Q 68 49.796875 71.640625 45 
Q 75.296875 40.203125 75.296875 30.796875 
L 75.296875 0 
L 67.09375 0 
L 67.09375 29.703125 
Q 67.09375 36.59375 64.890625 39.640625 
Q 62.703125 42.703125 58.09375 42.703125 
Q 52.59375 42.703125 45.90625 35.203125 
L 45.90625 0 
L 37.703125 0 
L 37.703125 29.703125 
Q 37.703125 36.59375 35.5 39.640625 
Q 33.296875 42.703125 28.59375 42.703125 
Q 23.09375 42.703125 16.40625 35.203125 
L 16.40625 0 
L 8.203125 0 
z
" id="SourceSansPro-Regular-109"/>
      <path d="M 27.90625 -1.203125 
Q 23 -1.203125 18.75 0.546875 
Q 14.5 2.296875 11.34375 5.546875 
Q 8.203125 8.796875 6.390625 13.5 
Q 4.59375 18.203125 4.59375 24.203125 
Q 4.59375 30.203125 6.4375 34.953125 
Q 8.296875 39.703125 11.34375 43 
Q 14.40625 46.296875 18.296875 48.046875 
Q 22.203125 49.796875 26.40625 49.796875 
Q 31 49.796875 34.640625 48.1875 
Q 38.296875 46.59375 40.75 43.59375 
Q 43.203125 40.59375 44.5 36.390625 
Q 45.796875 32.203125 45.796875 27 
Q 45.796875 25.703125 45.75 24.453125 
Q 45.703125 23.203125 45.5 22.296875 
L 12.703125 22.296875 
Q 13.203125 14.5 17.546875 9.953125 
Q 21.90625 5.40625 28.90625 5.40625 
Q 32.40625 5.40625 35.34375 6.453125 
Q 38.296875 7.5 41 9.203125 
L 43.90625 3.796875 
Q 40.703125 1.796875 36.796875 0.296875 
Q 32.90625 -1.203125 27.90625 -1.203125 
z
M 38.59375 28.203125 
Q 38.59375 35.59375 35.4375 39.4375 
Q 32.296875 43.296875 26.59375 43.296875 
Q 24 43.296875 21.640625 42.296875 
Q 19.296875 41.296875 17.390625 39.34375 
Q 15.5 37.40625 14.25 34.59375 
Q 13 31.796875 12.59375 28.203125 
z
" id="SourceSansPro-Regular-101"/>
      <path id="SourceSansPro-Regular-32"/>
      <path d="M 27.09375 -1.203125 
Q 22.59375 -1.203125 18.546875 0.5 
Q 14.5 2.203125 11.390625 5.453125 
Q 8.296875 8.703125 6.4375 13.453125 
Q 4.59375 18.203125 4.59375 24.203125 
Q 4.59375 30.296875 6.4375 35.046875 
Q 8.296875 39.796875 11.390625 43.09375 
Q 14.5 46.40625 18.546875 48.09375 
Q 22.59375 49.796875 27.09375 49.796875 
Q 31.59375 49.796875 35.640625 48.09375 
Q 39.703125 46.40625 42.796875 43.09375 
Q 45.90625 39.796875 47.75 35.046875 
Q 49.59375 30.296875 49.59375 24.203125 
Q 49.59375 18.203125 47.75 13.453125 
Q 45.90625 8.703125 42.796875 5.453125 
Q 39.703125 2.203125 35.640625 0.5 
Q 31.59375 -1.203125 27.09375 -1.203125 
z
M 27.09375 5.59375 
Q 30.203125 5.59375 32.796875 6.9375 
Q 35.40625 8.296875 37.25 10.75 
Q 39.09375 13.203125 40.09375 16.59375 
Q 41.09375 20 41.09375 24.203125 
Q 41.09375 28.40625 40.09375 31.84375 
Q 39.09375 35.296875 37.25 37.796875 
Q 35.40625 40.296875 32.796875 41.640625 
Q 30.203125 43 27.09375 43 
Q 24 43 21.390625 41.640625 
Q 18.796875 40.296875 16.9375 37.796875 
Q 15.09375 35.296875 14.09375 31.84375 
Q 13.09375 28.40625 13.09375 24.203125 
Q 13.09375 20 14.09375 16.59375 
Q 15.09375 13.203125 16.9375 10.75 
Q 18.796875 8.296875 21.390625 6.9375 
Q 24 5.59375 27.09375 5.59375 
z
" id="SourceSansPro-Regular-111"/>
      <path d="M 30.09375 64.5 
Q 27.40625 65.703125 24.59375 65.703125 
Q 17.796875 65.703125 17.796875 56.296875 
L 17.796875 48.59375 
L 28.09375 48.59375 
L 28.09375 41.90625 
L 17.796875 41.90625 
L 17.796875 0 
L 9.59375 0 
L 9.59375 41.90625 
L 3 41.90625 
L 3 48.09375 
L 9.59375 48.59375 
L 9.59375 56.296875 
Q 9.59375 63.796875 13.046875 68.09375 
Q 16.5 72.40625 23.796875 72.40625 
Q 26.09375 72.40625 28.140625 71.953125 
Q 30.203125 71.5 31.90625 70.796875 
z
" id="SourceSansPro-Regular-102"/>
      <path d="M 24.796875 -1.203125 
Q 15.59375 -1.203125 10.140625 5.390625 
Q 4.703125 12 4.703125 24.203125 
Q 4.703125 30.09375 6.453125 34.84375 
Q 8.203125 39.59375 11.09375 42.890625 
Q 14 46.203125 17.796875 48 
Q 21.59375 49.796875 25.796875 49.796875 
Q 30 49.796875 33.09375 48.296875 
Q 36.203125 46.796875 39.40625 44.203125 
L 39 52.5 
L 39 71.203125 
L 47.296875 71.203125 
L 47.296875 0 
L 40.5 0 
L 39.796875 5.703125 
L 39.5 5.703125 
Q 36.59375 2.90625 32.84375 0.84375 
Q 29.09375 -1.203125 24.796875 -1.203125 
z
M 26.59375 5.703125 
Q 30 5.703125 33 7.34375 
Q 36 9 39 12.40625 
L 39 37.796875 
Q 35.90625 40.59375 33.046875 41.75 
Q 30.203125 42.90625 27.203125 42.90625 
Q 24.296875 42.90625 21.75 41.546875 
Q 19.203125 40.203125 17.296875 37.75 
Q 15.40625 35.296875 14.296875 31.890625 
Q 13.203125 28.5 13.203125 24.296875 
Q 13.203125 15.5 16.703125 10.59375 
Q 20.203125 5.703125 26.59375 5.703125 
z
" id="SourceSansPro-Regular-100"/>
      <path d="M 19.40625 -1.203125 
Q 13.296875 -1.203125 9.25 2.390625 
Q 5.203125 6 5.203125 12.59375 
Q 5.203125 20.59375 12.296875 24.84375 
Q 19.40625 29.09375 35 30.796875 
Q 35 33.09375 34.546875 35.296875 
Q 34.09375 37.5 33 39.203125 
Q 31.90625 40.90625 29.953125 41.953125 
Q 28 43 25 43 
Q 20.796875 43 17.09375 41.390625 
Q 13.40625 39.796875 10.5 37.796875 
L 7.296875 43.5 
Q 10.703125 45.703125 15.59375 47.75 
Q 20.5 49.796875 26.40625 49.796875 
Q 35.296875 49.796875 39.296875 44.34375 
Q 43.296875 38.90625 43.296875 29.796875 
L 43.296875 0 
L 36.5 0 
L 35.796875 5.796875 
L 35.5 5.796875 
Q 32 2.90625 28 0.84375 
Q 24 -1.203125 19.40625 -1.203125 
z
M 21.796875 5.40625 
Q 25.296875 5.40625 28.390625 7.046875 
Q 31.5 8.703125 35 11.90625 
L 35 25.40625 
Q 28.90625 24.59375 24.75 23.5 
Q 20.59375 22.40625 18.046875 20.90625 
Q 15.5 19.40625 14.34375 17.453125 
Q 13.203125 15.5 13.203125 13.203125 
Q 13.203125 9 15.703125 7.203125 
Q 18.203125 5.40625 21.796875 5.40625 
z
" id="SourceSansPro-Regular-97"/>
      <path d="M 9 -20.90625 
Q 7.296875 -20.90625 5.890625 -20.65625 
Q 4.5 -20.40625 3.296875 -19.90625 
L 4.90625 -13.40625 
Q 5.703125 -13.59375 6.703125 -13.84375 
Q 7.703125 -14.09375 8.59375 -14.09375 
Q 12.796875 -14.09375 15.4375 -11.140625 
Q 18.09375 -8.203125 19.59375 -3.703125 
L 20.703125 -0.09375 
L 1.203125 48.59375 
L 9.703125 48.59375 
L 19.59375 21.703125 
Q 20.703125 18.5 21.953125 14.953125 
Q 23.203125 11.40625 24.296875 8 
L 24.703125 8 
Q 25.796875 11.296875 26.796875 14.890625 
Q 27.796875 18.5 28.796875 21.703125 
L 37.5 48.59375 
L 45.5 48.59375 
L 27.203125 -4 
Q 25.90625 -7.59375 24.296875 -10.6875 
Q 22.703125 -13.796875 20.5 -16.046875 
Q 18.296875 -18.296875 15.5 -19.59375 
Q 12.703125 -20.90625 9 -20.90625 
z
" id="SourceSansPro-Regular-121"/>
     </defs>
     <g style="fill:#242121;" transform="translate(207.539844 311.610937)scale(0.1 -0.1)">
      <use xlink:href="#SourceSansPro-Regular-84"/>
      <use x="53.599991" xlink:href="#SourceSansPro-Regular-105"/>
      <use x="78.199982" xlink:href="#SourceSansPro-Regular-109"/>
      <use x="161.099976" xlink:href="#SourceSansPro-Regular-101"/>
      <use x="210.699966" xlink:href="#SourceSansPro-Regular-32"/>
      <use x="230.699951" xlink:href="#SourceSansPro-Regular-111"/>
      <use x="284.899948" xlink:href="#SourceSansPro-Regular-102"/>
      <use x="314.099945" xlink:href="#SourceSansPro-Regular-32"/>
      <use x="334.09993" xlink:href="#SourceSansPro-Regular-100"/>
      <use x="389.599915" xlink:href="#SourceSansPro-Regular-97"/>
      <use x="439.999908" xlink:href="#SourceSansPro-Regular-121"/>
     </g>
    </g>
   </g>
   <g id="matplotlib.axis_2">
    <g id="ytick_1">
     <g id="line2d_10"/>
     <g id="text_11">
      <!-- 0 -->
      <g style="fill:#242121;" transform="translate(34.079688 291.260156)scale(0.1 -0.1)">
       <use xlink:href="#SourceSansPro-Regular-48"/>
      </g>
     </g>
    </g>
    <g id="ytick_2">
     <g id="line2d_11"/>
     <g id="text_12">
      <!-- 25 -->
      <g style="fill:#242121;" transform="translate(29.109375 255.10827)scale(0.1 -0.1)">
       <use xlink:href="#SourceSansPro-Regular-50"/>
       <use x="49.699997" xlink:href="#SourceSansPro-Regular-53"/>
      </g>
     </g>
    </g>
    <g id="ytick_3">
     <g id="line2d_12"/>
     <g id="text_13">
      <!-- 50 -->
      <g style="fill:#242121;" transform="translate(29.109375 218.956385)scale(0.1 -0.1)">
       <use xlink:href="#SourceSansPro-Regular-53"/>
       <use x="49.699997" xlink:href="#SourceSansPro-Regular-48"/>
      </g>
     </g>
    </g>
    <g id="ytick_4">
     <g id="line2d_13"/>
     <g id="text_14">
      <!-- 75 -->
      <defs>
       <path d="M 17.703125 0 
Q 18.09375 9 19.296875 16.5 
Q 20.5 24 22.640625 30.75 
Q 24.796875 37.5 28.140625 43.796875 
Q 31.5 50.09375 36.203125 56.703125 
L 4.40625 56.703125 
L 4.40625 63.796875 
L 45.5 63.796875 
L 45.5 58.703125 
Q 39.796875 51.5 36.25 44.890625 
Q 32.703125 38.296875 30.59375 31.4375 
Q 28.5 24.59375 27.546875 16.9375 
Q 26.59375 9.296875 26.203125 0 
L 17.703125 0 
z
" id="SourceSansPro-Regular-55"/>
      </defs>
      <g style="fill:#242121;" transform="translate(29.109375 182.804499)scale(0.1 -0.1)">
       <use xlink:href="#SourceSansPro-Regular-55"/>
       <use x="49.699997" xlink:href="#SourceSansPro-Regular-53"/>
      </g>
     </g>
    </g>
    <g id="ytick_5">
     <g id="line2d_14"/>
     <g id="text_15">
      <!-- 100 -->
      <g style="fill:#242121;" transform="translate(24.139063 146.652613)scale(0.1 -0.1)">
       <use xlink:href="#SourceSansPro-Regular-49"/>
       <use x="49.699997" xlink:href="#SourceSansPro-Regular-48"/>
       <use x="99.399994" xlink:href="#SourceSansPro-Regular-48"/>
      </g>
     </g>
    </g>
    <g id="ytick_6">
     <g id="line2d_15"/>
     <g id="text_16">
      <!-- 125 -->
      <g style="fill:#242121;" transform="translate(24.139063 110.500727)scale(0.1 -0.1)">
       <use xlink:href="#SourceSansPro-Regular-49"/>
       <use x="49.699997" xlink:href="#SourceSansPro-Regular-50"/>
       <use x="99.399994" xlink:href="#SourceSansPro-Regular-53"/>
      </g>
     </g>
    </g>
    <g id="ytick_7">
     <g id="line2d_16"/>
     <g id="text_17">
      <!-- 150 -->
      <g style="fill:#242121;" transform="translate(24.139063 74.348841)scale(0.1 -0.1)">
       <use xlink:href="#SourceSansPro-Regular-49"/>
       <use x="49.699997" xlink:href="#SourceSansPro-Regular-53"/>
       <use x="99.399994" xlink:href="#SourceSansPro-Regular-48"/>
      </g>
     </g>
    </g>
    <g id="ytick_8">
     <g id="line2d_17"/>
     <g id="text_18">
      <!-- 175 -->
      <g style="fill:#242121;" transform="translate(24.139063 38.196955)scale(0.1 -0.1)">
       <use xlink:href="#SourceSansPro-Regular-49"/>
       <use x="49.699997" xlink:href="#SourceSansPro-Regular-55"/>
       <use x="99.399994" xlink:href="#SourceSansPro-Regular-53"/>
      </g>
     </g>
    </g>
    <g id="text_19">
     <!-- Relative activity -->
     <defs>
      <path d="M 17.296875 34.5 
L 28.296875 34.5 
Q 36 34.5 40.09375 37.640625 
Q 44.203125 40.796875 44.203125 47.203125 
Q 44.203125 53.703125 40.09375 56.296875 
Q 36 58.90625 28.296875 58.90625 
L 17.296875 58.90625 
z
M 45 0 
L 29.203125 27.703125 
L 17.296875 27.703125 
L 17.296875 0 
L 9 0 
L 9 65.59375 
L 29.5 65.59375 
Q 34.5 65.59375 38.75 64.640625 
Q 43 63.703125 46.046875 61.5 
Q 49.09375 59.296875 50.796875 55.796875 
Q 52.5 52.296875 52.5 47.203125 
Q 52.5 39.5 48.5 34.890625 
Q 44.5 30.296875 37.796875 28.59375 
L 54.40625 0 
z
" id="SourceSansPro-Regular-82"/>
      <path d="M 16.90625 -1.203125 
Q 12.203125 -1.203125 10.203125 1.59375 
Q 8.203125 4.40625 8.203125 9.796875 
L 8.203125 71.203125 
L 16.40625 71.203125 
L 16.40625 9.203125 
Q 16.40625 7.203125 17.09375 6.390625 
Q 17.796875 5.59375 18.703125 5.59375 
Q 19.09375 5.59375 19.4375 5.59375 
Q 19.796875 5.59375 20.5 5.796875 
L 21.59375 -0.40625 
Q 20.796875 -0.796875 19.6875 -1 
Q 18.59375 -1.203125 16.90625 -1.203125 
z
" id="SourceSansPro-Regular-108"/>
      <path d="M 23.5 -1.203125 
Q 19.59375 -1.203125 16.9375 0 
Q 14.296875 1.203125 12.640625 3.296875 
Q 11 5.40625 10.296875 8.40625 
Q 9.59375 11.40625 9.59375 15 
L 9.59375 41.90625 
L 2.40625 41.90625 
L 2.40625 48.09375 
L 10 48.59375 
L 11 62.203125 
L 17.90625 62.203125 
L 17.90625 48.59375 
L 31 48.59375 
L 31 41.90625 
L 17.90625 41.90625 
L 17.90625 14.90625 
Q 17.90625 10.40625 19.546875 7.953125 
Q 21.203125 5.5 25.40625 5.5 
Q 26.703125 5.5 28.203125 5.890625 
Q 29.703125 6.296875 30.90625 6.796875 
L 32.5 0.59375 
Q 30.5 -0.09375 28.140625 -0.640625 
Q 25.796875 -1.203125 23.5 -1.203125 
z
" id="SourceSansPro-Regular-116"/>
      <path d="M 1.203125 48.59375 
L 9.703125 48.59375 
L 18.90625 21 
Q 20 17.40625 21.140625 13.796875 
Q 22.296875 10.203125 23.40625 6.703125 
L 23.796875 6.703125 
Q 24.90625 10.203125 26 13.796875 
Q 27.09375 17.40625 28.203125 21 
L 37.40625 48.59375 
L 45.5 48.59375 
L 28.296875 0 
L 18.703125 0 
z
" id="SourceSansPro-Regular-118"/>
      <path d="M 27.40625 -1.203125 
Q 22.59375 -1.203125 18.390625 0.5 
Q 14.203125 2.203125 11.140625 5.453125 
Q 8.09375 8.703125 6.34375 13.453125 
Q 4.59375 18.203125 4.59375 24.203125 
Q 4.59375 30.296875 6.5 35.046875 
Q 8.40625 39.796875 11.59375 43.09375 
Q 14.796875 46.40625 19.046875 48.09375 
Q 23.296875 49.796875 28 49.796875 
Q 32.796875 49.796875 36.1875 48.09375 
Q 39.59375 46.40625 42.203125 44.09375 
L 38 38.703125 
Q 35.90625 40.59375 33.546875 41.796875 
Q 31.203125 43 28.296875 43 
Q 25 43 22.203125 41.640625 
Q 19.40625 40.296875 17.40625 37.796875 
Q 15.40625 35.296875 14.25 31.84375 
Q 13.09375 28.40625 13.09375 24.203125 
Q 13.09375 20 14.1875 16.59375 
Q 15.296875 13.203125 17.25 10.75 
Q 19.203125 8.296875 22 6.9375 
Q 24.796875 5.59375 28.09375 5.59375 
Q 31.5 5.59375 34.34375 7.046875 
Q 37.203125 8.5 39.5 10.5 
L 43.09375 5 
Q 39.796875 2.09375 35.796875 0.4375 
Q 31.796875 -1.203125 27.40625 -1.203125 
z
" id="SourceSansPro-Regular-99"/>
     </defs>
     <g style="fill:#242121;" transform="translate(18.048437 190.414062)rotate(-90)scale(0.1 -0.1)">
      <use xlink:href="#SourceSansPro-Regular-82"/>
      <use x="56.899994" xlink:href="#SourceSansPro-Regular-101"/>
      <use x="106.499985" xlink:href="#SourceSansPro-Regular-108"/>
      <use x="131.999969" xlink:href="#SourceSansPro-Regular-97"/>
      <use x="182.399963" xlink:href="#SourceSansPro-Regular-116"/>
      <use x="216.199951" xlink:href="#SourceSansPro-Regular-105"/>
      <use x="240.799942" xlink:href="#SourceSansPro-Regular-118"/>
      <use x="287.499939" xlink:href="#SourceSansPro-Regular-101"/>
      <use x="337.09993" xlink:href="#SourceSansPro-Regular-32"/>
      <use x="357.099915" xlink:href="#SourceSansPro-Regular-97"/>
      <use x="407.499908" xlink:href="#SourceSansPro-Regular-99"/>
      <use x="453.099899" xlink:href="#SourceSansPro-Regular-116"/>
      <use x="486.899887" xlink:href="#SourceSansPro-Regular-105"/>
      <use x="511.499878" xlink:href="#SourceSansPro-Regular-118"/>
      <use x="558.199875" xlink:href="#SourceSansPro-Regular-105"/>
      <use x="582.799866" xlink:href="#SourceSansPro-Regular-116"/>
      <use x="616.599854" xlink:href="#SourceSansPro-Regular-121"/>
     </g>
    </g>
   </g>
   <g id="line2d_18">
    <path clip-path="url(#p52005dfb16)" d="M 59.761364 222.098978 
L 61.914279 225.138301 
L 64.306408 228.939388 
L 66.937749 233.565067 
L 70.286728 239.959728 
L 81.529732 261.954605 
L 84.161073 266.433713 
L 86.553201 270.104117 
L 88.94533 273.353484 
L 91.098245 275.90671 
L 93.251161 278.112452 
L 95.404076 279.984642 
L 97.556992 281.547454 
L 99.709907 282.830983 
L 101.862823 283.867686 
L 104.254951 284.771878 
L 106.886293 285.516201 
L 109.756847 286.093534 
L 113.105826 286.538904 
L 117.411657 286.870014 
L 122.67434 287.058759 
L 132.00364 287.14576 
L 140.136877 287.029333 
L 144.921134 286.747066 
L 148.509326 286.323195 
L 151.619093 285.725828 
L 154.250434 284.993094 
L 156.642563 284.099314 
L 158.795478 283.076731 
L 160.948394 281.814094 
L 163.101309 280.280038 
L 165.254225 278.446993 
L 167.40714 276.291753 
L 169.560056 273.794126 
L 171.712971 270.940732 
L 173.865887 267.718396 
L 176.018803 264.125295 
L 178.410931 259.690365 
L 180.803059 254.783084 
L 183.4344 248.830819 
L 186.065742 242.281833 
L 188.697083 235.119032 
L 191.328424 227.326174 
L 194.198978 218.112661 
L 197.308745 207.332996 
L 200.657725 194.915526 
L 204.963556 178.061075 
L 219.316326 121.169747 
L 225.296647 98.772139 
L 230.559329 79.839527 
L 234.147522 67.738921 
L 236.778863 59.635335 
L 238.931779 53.713925 
L 240.845481 49.132802 
L 242.519971 45.747538 
L 243.955248 43.362899 
L 245.151312 41.770279 
L 246.347377 40.556184 
L 247.304228 39.862669 
L 248.261079 39.419947 
L 249.217931 39.229234 
L 250.174782 39.290228 
L 251.131633 39.596549 
L 252.088485 40.144126 
L 253.045336 40.923325 
L 254.2414 42.204294 
L 255.437464 43.803144 
L 256.872741 46.098301 
L 258.547231 49.218099 
L 260.700147 53.765943 
L 263.809914 60.979248 
L 269.790235 74.95262 
L 272.421576 80.507107 
L 274.813704 85.080944 
L 277.205833 89.1884 
L 279.597961 92.854218 
L 281.990089 96.122358 
L 284.382218 99.039953 
L 286.774346 101.635586 
L 289.166475 103.922437 
L 291.31939 105.704476 
L 293.472306 107.209893 
L 295.386008 108.299173 
L 297.299711 109.143711 
L 299.213414 109.739625 
L 301.127116 110.104117 
L 303.280032 110.27217 
L 305.67216 110.25354 
L 310.934843 110.141022 
L 312.848545 110.377428 
L 314.523035 110.832847 
L 315.958312 111.45617 
L 317.393589 112.328004 
L 318.828866 113.479333 
L 320.264143 114.922962 
L 321.69942 116.669751 
L 323.37391 119.095523 
L 325.0484 121.91872 
L 326.962103 125.595103 
L 329.115018 130.212233 
L 331.985572 136.935957 
L 340.597235 157.517257 
L 342.989363 162.503558 
L 345.142278 166.521551 
L 347.295194 170.067273 
L 349.448109 173.14811 
L 351.601025 175.801711 
L 353.753941 178.089756 
L 356.146069 180.297885 
L 359.255836 182.821123 
L 372.173329 192.87651 
L 381.263417 200.27977 
L 386.765312 204.364731 
L 392.267207 208.485608 
L 395.137761 210.896898 
L 397.769103 213.396552 
L 400.161231 215.974819 
L 402.553359 218.884457 
L 403.988636 220.793549 
L 403.988636 220.793549 
" style="fill:none;stroke:#1f77b4;stroke-linecap:round;stroke-width:1.5;"/>
   </g>
   <g id="line2d_19">
    <path clip-path="url(#p52005dfb16)" d="M 59.761364 236.709104 
L 65.502472 248.81507 
L 69.090664 255.895464 
L 71.961218 261.117486 
L 74.59256 265.475554 
L 76.984688 269.035707 
L 79.376816 272.193045 
L 81.529732 274.689149 
L 83.682647 276.8682 
L 85.835563 278.746688 
L 87.988478 280.350365 
L 90.380607 281.842836 
L 92.772735 283.068909 
L 95.404076 284.159099 
L 98.27463 285.091158 
L 101.384397 285.85972 
L 104.97259 286.504028 
L 109.039208 286.994404 
L 114.062678 287.355027 
L 120.282211 287.55954 
L 128.415448 287.586541 
L 136.070259 287.406349 
L 141.811367 287.069176 
L 146.356411 286.59157 
L 150.183816 285.97393 
L 153.532796 285.21846 
L 156.642563 284.290279 
L 159.75233 283.11373 
L 162.622884 281.785869 
L 165.493438 280.214593 
L 168.363992 278.403126 
L 171.473759 276.189386 
L 175.061951 273.345026 
L 178.889357 270.02311 
L 182.955975 266.190115 
L 186.544167 262.520431 
L 189.893147 258.774066 
L 192.763701 255.237353 
L 195.634255 251.340535 
L 198.265596 247.40944 
L 200.896938 243.108329 
L 203.767492 237.986494 
L 206.877259 231.943566 
L 209.987025 225.40732 
L 213.336005 217.843721 
L 216.924198 209.148369 
L 220.51239 199.860902 
L 224.579008 188.692334 
L 235.822012 157.310409 
L 238.21414 151.514013 
L 240.367056 146.88703 
L 242.041546 143.751177 
L 243.716035 141.078974 
L 245.151312 139.183695 
L 246.586589 137.672499 
L 247.782654 136.715863 
L 248.978718 136.037654 
L 250.174782 135.636722 
L 251.370846 135.509419 
L 252.56691 135.650768 
L 253.762975 136.048157 
L 254.959039 136.691806 
L 256.394316 137.766954 
L 257.829593 139.143958 
L 259.504083 141.086421 
L 261.417785 143.677875 
L 263.809914 147.341381 
L 267.158893 152.941236 
L 272.900002 162.562338 
L 275.531343 166.4994 
L 277.684258 169.336813 
L 279.597961 171.50588 
L 281.272451 173.098012 
L 282.946941 174.3861 
L 284.382218 175.237522 
L 285.817495 175.854137 
L 287.252772 176.236198 
L 288.688049 176.391206 
L 290.123326 176.32734 
L 291.797816 175.999553 
L 293.472306 175.431096 
L 295.386008 174.534942 
L 297.778137 173.148948 
L 304.715309 168.902133 
L 306.629012 168.076438 
L 308.303501 167.602153 
L 309.738779 167.421593 
L 311.174056 167.478842 
L 312.609333 167.796171 
L 313.805397 168.274772 
L 315.240674 169.115377 
L 316.675951 170.254705 
L 318.111228 171.691921 
L 319.785718 173.738578 
L 321.460208 176.163372 
L 323.37391 179.354143 
L 325.526826 183.393507 
L 328.39738 189.30769 
L 336.052191 205.387008 
L 338.205106 209.295483 
L 340.118809 212.344082 
L 341.793299 214.631007 
L 343.467789 216.534975 
L 344.903066 217.846517 
L 346.338343 218.859003 
L 347.77362 219.575811 
L 348.969684 219.952672 
L 350.165748 220.135943 
L 351.601025 220.113597 
L 353.036302 219.845349 
L 354.471579 219.355814 
L 356.146069 218.536484 
L 358.059772 217.329468 
L 360.4519 215.511234 
L 364.040093 212.44033 
L 368.106711 209.016921 
L 370.498839 207.294718 
L 372.412542 206.180827 
L 374.087032 205.445652 
L 375.761522 204.967941 
L 377.196799 204.781635 
L 378.632076 204.813155 
L 380.067353 205.070782 
L 381.50263 205.557869 
L 382.937907 206.274133 
L 384.612397 207.398049 
L 386.286886 208.819321 
L 387.961376 210.525367 
L 389.875079 212.799071 
L 392.027995 215.730634 
L 394.420123 219.398437 
L 397.051464 223.848279 
L 400.400444 229.991956 
L 403.988636 236.950046 
L 403.988636 236.950046 
" style="fill:none;stroke:#ff7f0e;stroke-linecap:round;stroke-width:1.5;"/>
   </g>
   <g id="line2d_20">
    <path clip-path="url(#p52005dfb16)" d="M 59.761364 251.315451 
L 62.631918 256.7593 
L 65.263259 261.270272 
L 67.655387 264.950766 
L 70.047516 268.236866 
L 72.439644 271.144538 
L 74.831772 273.707371 
L 77.223901 275.955078 
L 79.616029 277.914267 
L 82.24737 279.769848 
L 84.878712 281.339212 
L 87.510053 282.64341 
L 90.141394 283.702494 
L 92.772735 284.536163 
L 95.643289 285.217005 
L 98.753056 285.725277 
L 102.341249 286.081657 
L 106.64708 286.279212 
L 113.823465 286.355829 
L 126.262532 286.262367 
L 132.721279 285.995293 
L 137.983961 285.546149 
L 142.289792 284.949039 
L 145.877985 284.221983 
L 148.987752 283.357255 
L 151.619093 282.411875 
L 154.250434 281.227058 
L 156.642563 279.911285 
L 159.034691 278.340368 
L 161.426819 276.494741 
L 163.818948 274.362269 
L 166.211076 271.939771 
L 168.842417 268.951252 
L 171.712971 265.335831 
L 175.061951 260.720617 
L 178.889357 255.054626 
L 184.630465 246.099653 
L 191.80685 234.499916 
L 196.830319 226.001549 
L 200.896938 218.699302 
L 204.963556 210.90148 
L 209.269387 202.131335 
L 215.967346 187.890549 
L 221.947667 175.37053 
L 226.014285 167.369948 
L 229.363265 161.248556 
L 232.233819 156.421767 
L 234.86516 152.410267 
L 237.257289 149.172422 
L 239.410204 146.644635 
L 241.323907 144.747873 
L 242.998397 143.382653 
L 244.672887 142.317744 
L 246.108164 141.651111 
L 247.543441 141.220028 
L 248.978718 141.027212 
L 250.413995 141.071772 
L 251.849272 141.349782 
L 253.284549 141.854995 
L 254.959039 142.714787 
L 256.633529 143.846957 
L 258.547231 145.437723 
L 260.700147 147.551984 
L 263.092275 150.226264 
L 266.202042 154.057256 
L 276.488194 167.019107 
L 278.880323 169.550464 
L 281.033238 171.521707 
L 282.946941 172.981111 
L 284.621431 174.005094 
L 286.29592 174.777956 
L 287.97041 175.285174 
L 289.405687 175.504888 
L 290.840964 175.525861 
L 292.276241 175.349917 
L 293.950731 174.903039 
L 295.625221 174.21126 
L 297.299711 173.29229 
L 299.213414 171.993849 
L 301.366329 170.267939 
L 303.99767 167.857434 
L 308.064289 163.781712 
L 312.848545 159.058631 
L 315.479887 156.789951 
L 317.632802 155.241808 
L 319.307292 154.27109 
L 320.981782 153.545724 
L 322.656272 153.089583 
L 324.091549 152.926541 
L 325.526826 152.985373 
L 326.962103 153.265375 
L 328.39738 153.768671 
L 329.832657 154.487178 
L 331.507147 155.581606 
L 333.420849 157.133372 
L 335.573765 159.200734 
L 338.444319 162.314461 
L 345.859917 170.527401 
L 348.252045 172.752411 
L 350.404961 174.462795 
L 352.557876 175.887714 
L 354.710792 177.050249 
L 357.342133 178.191173 
L 365.953795 181.635977 
L 367.867498 182.757734 
L 369.781201 184.132547 
L 371.694903 185.80116 
L 373.608606 187.793644 
L 375.522309 190.125881 
L 377.436011 192.80252 
L 379.588927 196.222445 
L 381.741843 200.057512 
L 384.133971 204.762027 
L 387.004525 210.943678 
L 390.353505 218.701341 
L 402.314147 246.958377 
L 403.988636 250.484747 
L 403.988636 250.484747 
" style="fill:none;stroke:#2ca02c;stroke-linecap:round;stroke-width:1.5;"/>
   </g>
   <g id="line2d_21">
    <path clip-path="url(#p52005dfb16)" d="M 59.761364 214.666875 
L 63.349556 221.446285 
L 67.8946 230.563423 
L 79.616029 254.331804 
L 82.965009 260.49915 
L 85.835563 265.343847 
L 88.466904 269.361997 
L 90.859032 272.62614 
L 93.251161 275.502578 
L 95.404076 277.761159 
L 97.556992 279.71212 
L 99.709907 281.370507 
L 101.862823 282.762036 
L 104.254951 284.01492 
L 106.64708 285.000751 
L 109.039208 285.763444 
L 111.909762 286.433403 
L 115.019529 286.926544 
L 118.846934 287.298936 
L 123.870404 287.541208 
L 131.286002 287.641201 
L 140.37609 287.560087 
L 147.791688 287.292908 
L 153.293583 286.878351 
L 157.838627 286.323654 
L 162.144458 285.574437 
L 166.211076 284.644006 
L 170.277694 283.493401 
L 174.583525 282.041567 
L 178.889357 280.352998 
L 182.955975 278.519249 
L 186.544167 276.662921 
L 189.653934 274.822131 
L 192.524488 272.882673 
L 195.395042 270.666308 
L 198.026384 268.359023 
L 200.657725 265.759687 
L 203.289066 262.844781 
L 205.920407 259.593458 
L 208.551748 255.98606 
L 211.18309 252.00029 
L 213.814431 247.617004 
L 216.445772 242.814601 
L 219.077113 237.575283 
L 221.947667 231.359284 
L 225.057434 224.072841 
L 228.645627 215.079781 
L 240.367056 185.12871 
L 242.998397 179.267456 
L 245.390525 174.492297 
L 247.304228 171.112655 
L 249.217931 168.165493 
L 250.892421 165.963302 
L 252.56691 164.131488 
L 254.002187 162.863275 
L 255.437464 161.880749 
L 256.872741 161.187819 
L 258.068806 160.830594 
L 259.26487 160.677271 
L 260.460934 160.726801 
L 261.656998 160.974305 
L 263.092275 161.529707 
L 264.527552 162.356289 
L 265.962829 163.442666 
L 267.637319 165.016608 
L 269.311809 166.891332 
L 271.225512 169.348365 
L 273.61764 172.797685 
L 277.205833 178.434962 
L 281.990089 185.937879 
L 284.621431 189.624057 
L 286.774346 192.233817 
L 288.688049 194.178467 
L 290.362539 195.555113 
L 291.797816 196.482657 
L 293.233093 197.171786 
L 294.66837 197.623841 
L 296.103647 197.848358 
L 297.538924 197.857998 
L 299.213414 197.624834 
L 300.887904 197.164735 
L 303.040819 196.317644 
L 306.150586 194.806992 
L 309.977991 192.991186 
L 312.130907 192.225379 
L 314.04461 191.796669 
L 315.719099 191.665601 
L 317.154376 191.7536 
L 318.828866 192.099911 
L 320.503356 192.712628 
L 322.177846 193.58116 
L 324.091549 194.859405 
L 326.005251 196.400746 
L 328.636593 198.838871 
L 338.205106 208.09097 
L 340.118809 209.515191 
L 342.032512 210.666481 
L 343.707001 211.418567 
L 345.381491 211.912055 
L 346.816768 212.117278 
L 348.252045 212.120089 
L 349.687322 211.920547 
L 351.122599 211.520769 
L 352.797089 210.813907 
L 354.471579 209.864225 
L 356.385282 208.514915 
L 358.538197 206.714212 
L 361.169539 204.212881 
L 371.455691 194.075307 
L 373.608606 192.429945 
L 375.522309 191.232349 
L 377.196799 190.424135 
L 378.871288 189.862025 
L 380.306565 189.588514 
L 381.741843 189.520019 
L 383.17712 189.661619 
L 384.612397 190.019571 
L 386.047674 190.596629 
L 387.482951 191.39004 
L 389.15744 192.586445 
L 390.83193 194.06498 
L 392.745633 196.083595 
L 394.659336 198.426169 
L 396.812251 201.405815 
L 399.443592 205.467333 
L 402.553359 210.726342 
L 403.988636 213.274982 
L 403.988636 213.274982 
" style="fill:none;stroke:#d62728;stroke-linecap:round;stroke-width:1.5;"/>
   </g>
   <g id="patch_3">
    <path d="M 42.55 287.7 
L 42.55 26.8 
" style="fill:none;"/>
   </g>
   <g id="patch_4">
    <path d="M 421.2 287.7 
L 421.2 26.8 
" style="fill:none;"/>
   </g>
   <g id="patch_5">
    <path d="M 42.55 287.7 
L 421.2 287.7 
" style="fill:none;"/>
   </g>
   <g id="patch_6">
    <path d="M 42.55 26.8 
L 421.2 26.8 
" style="fill:none;"/>
   </g>
   <g id="text_20">
    <!-- Activity by time of day -->
    <defs>
     <path d="M 36.09375 26.796875 
L 33.796875 34.796875 
Q 32.203125 40 30.75 45.5 
Q 29.296875 51 27.90625 56.40625 
L 27.5 56.40625 
Q 26.09375 50.90625 24.6875 45.453125 
Q 23.296875 40 21.703125 34.796875 
L 19.40625 26.796875 
z
M 38.703125 17.703125 
L 16.703125 17.703125 
L 11.59375 0 
L -0.203125 0 
L 21.09375 65.40625 
L 34.703125 65.40625 
L 56 0 
L 43.796875 0 
z
" id="SourceSansPro-Semibold-65"/>
     <path d="M 27.796875 -1.203125 
Q 22.796875 -1.203125 18.4375 0.5 
Q 14.09375 2.203125 10.890625 5.5 
Q 7.703125 8.796875 5.890625 13.59375 
Q 4.09375 18.40625 4.09375 24.5 
Q 4.09375 30.59375 6.09375 35.390625 
Q 8.09375 40.203125 11.5 43.5 
Q 14.90625 46.796875 19.34375 48.546875 
Q 23.796875 50.296875 28.703125 50.296875 
Q 33.5 50.296875 36.953125 48.6875 
Q 40.40625 47.09375 43.09375 44.796875 
L 37.5 37.296875 
Q 35.5 39 33.546875 39.953125 
Q 31.59375 40.90625 29.296875 40.90625 
Q 23.296875 40.90625 19.59375 36.453125 
Q 15.90625 32 15.90625 24.5 
Q 15.90625 17.09375 19.546875 12.640625 
Q 23.203125 8.203125 29 8.203125 
Q 31.90625 8.203125 34.453125 9.453125 
Q 37 10.703125 39.09375 12.40625 
L 43.796875 4.796875 
Q 40.296875 1.796875 36.140625 0.296875 
Q 32 -1.203125 27.796875 -1.203125 
z
" id="SourceSansPro-Semibold-99"/>
     <path d="M 24.59375 -1.203125 
Q 20.296875 -1.203125 17.34375 0.09375 
Q 14.40625 1.40625 12.546875 3.75 
Q 10.703125 6.09375 9.84375 9.34375 
Q 9 12.59375 9 16.59375 
L 9 40 
L 2 40 
L 2 48.59375 
L 9.59375 49.09375 
L 11 62.5 
L 20.59375 62.5 
L 20.59375 49.09375 
L 33.09375 49.09375 
L 33.09375 40 
L 20.59375 40 
L 20.59375 16.59375 
Q 20.59375 8 27.5 8 
Q 28.796875 8 30.140625 8.296875 
Q 31.5 8.59375 32.59375 9.09375 
L 34.59375 0.59375 
Q 32.59375 -0.09375 30.046875 -0.640625 
Q 27.5 -1.203125 24.59375 -1.203125 
z
" id="SourceSansPro-Semibold-116"/>
     <path d="M 7.296875 49.09375 
L 18.796875 49.09375 
L 18.796875 0 
L 7.296875 0 
z
M 13.09375 57.703125 
Q 10 57.703125 8 59.5 
Q 6 61.296875 6 64.203125 
Q 6 67.09375 8 68.9375 
Q 10 70.796875 13.09375 70.796875 
Q 16.203125 70.796875 18.203125 68.9375 
Q 20.203125 67.09375 20.203125 64.203125 
Q 20.203125 61.296875 18.203125 59.5 
Q 16.203125 57.703125 13.09375 57.703125 
z
" id="SourceSansPro-Semibold-105"/>
     <path d="M 1.203125 49.09375 
L 12.90625 49.09375 
L 20.703125 23.59375 
Q 21.703125 20 22.75 16.296875 
Q 23.796875 12.59375 24.796875 8.796875 
L 25.203125 8.796875 
Q 26.296875 12.59375 27.296875 16.296875 
Q 28.296875 20 29.40625 23.59375 
L 37.203125 49.09375 
L 48.296875 49.09375 
L 31.59375 0 
L 18.296875 0 
z
" id="SourceSansPro-Semibold-118"/>
     <path d="M 10.59375 -20.203125 
Q 8.59375 -20.203125 7.09375 -19.953125 
Q 5.59375 -19.703125 4.203125 -19.203125 
L 6.296875 -10.203125 
Q 7 -10.40625 7.953125 -10.65625 
Q 8.90625 -10.90625 9.796875 -10.90625 
Q 13.703125 -10.90625 16.046875 -8.546875 
Q 18.40625 -6.203125 19.59375 -2.5 
L 20.5 0.59375 
L 1.203125 49.09375 
L 12.90625 49.09375 
L 21.40625 25 
Q 22.5 21.796875 23.546875 18.25 
Q 24.59375 14.703125 25.703125 11.203125 
L 26.09375 11.203125 
Q 27 14.59375 27.953125 18.140625 
Q 28.90625 21.703125 29.796875 25 
L 37.203125 49.09375 
L 48.296875 49.09375 
L 30.5 -2.203125 
Q 29 -6.40625 27.203125 -9.703125 
Q 25.40625 -13 23.046875 -15.34375 
Q 20.703125 -17.703125 17.640625 -18.953125 
Q 14.59375 -20.203125 10.59375 -20.203125 
z
" id="SourceSansPro-Semibold-121"/>
     <path id="SourceSansPro-Semibold-32"/>
     <path d="M 31.09375 -1.203125 
Q 27.703125 -1.203125 24.25 0.4375 
Q 20.796875 2.09375 17.703125 5.203125 
L 17.40625 5.203125 
L 16.40625 0 
L 7.296875 0 
L 7.296875 70.59375 
L 18.796875 70.59375 
L 18.796875 52.40625 
L 18.5 44.203125 
Q 21.59375 46.90625 25.25 48.59375 
Q 28.90625 50.296875 32.703125 50.296875 
Q 37.296875 50.296875 40.890625 48.546875 
Q 44.5 46.796875 47 43.546875 
Q 49.5 40.296875 50.796875 35.6875 
Q 52.09375 31.09375 52.09375 25.40625 
Q 52.09375 19.09375 50.34375 14.140625 
Q 48.59375 9.203125 45.6875 5.796875 
Q 42.796875 2.40625 39 0.59375 
Q 35.203125 -1.203125 31.09375 -1.203125 
z
M 28.703125 8.296875 
Q 33.59375 8.296875 36.890625 12.546875 
Q 40.203125 16.796875 40.203125 25.203125 
Q 40.203125 32.59375 37.703125 36.6875 
Q 35.203125 40.796875 29.59375 40.796875 
Q 24.40625 40.796875 18.796875 35.296875 
L 18.796875 12.40625 
Q 21.40625 10.09375 23.953125 9.1875 
Q 26.5 8.296875 28.703125 8.296875 
z
" id="SourceSansPro-Semibold-98"/>
     <path d="M 7.296875 49.09375 
L 16.796875 49.09375 
L 17.59375 42.40625 
L 18 42.40625 
Q 21.09375 45.703125 24.75 48 
Q 28.40625 50.296875 33 50.296875 
Q 38.40625 50.296875 41.65625 48 
Q 44.90625 45.703125 46.59375 41.5 
Q 50.09375 45.296875 53.890625 47.796875 
Q 57.703125 50.296875 62.40625 50.296875 
Q 70.203125 50.296875 73.890625 45.25 
Q 77.59375 40.203125 77.59375 30.796875 
L 77.59375 0 
L 66 0 
L 66 29.296875 
Q 66 35.40625 64.140625 37.90625 
Q 62.296875 40.40625 58.5 40.40625 
Q 53.90625 40.40625 48.203125 34.296875 
L 48.203125 0 
L 36.703125 0 
L 36.703125 29.296875 
Q 36.703125 35.40625 34.84375 37.90625 
Q 33 40.40625 29.09375 40.40625 
Q 24.5 40.40625 18.796875 34.296875 
L 18.796875 0 
L 7.296875 0 
z
" id="SourceSansPro-Semibold-109"/>
     <path d="M 28.296875 -1.203125 
Q 23.203125 -1.203125 18.796875 0.546875 
Q 14.40625 2.296875 11.09375 5.59375 
Q 7.796875 8.90625 5.9375 13.65625 
Q 4.09375 18.40625 4.09375 24.5 
Q 4.09375 30.5 6 35.296875 
Q 7.90625 40.09375 11.046875 43.390625 
Q 14.203125 46.703125 18.296875 48.5 
Q 22.40625 50.296875 26.703125 50.296875 
Q 31.703125 50.296875 35.5 48.59375 
Q 39.296875 46.90625 41.84375 43.796875 
Q 44.40625 40.703125 45.703125 36.390625 
Q 47 32.09375 47 27 
Q 47 25.296875 46.84375 23.796875 
Q 46.703125 22.296875 46.5 21.40625 
L 15.296875 21.40625 
Q 16.09375 14.796875 19.9375 11.25 
Q 23.796875 7.703125 29.796875 7.703125 
Q 33 7.703125 35.75 8.640625 
Q 38.5 9.59375 41.203125 11.296875 
L 45.09375 4.09375 
Q 41.59375 1.796875 37.296875 0.296875 
Q 33 -1.203125 28.296875 -1.203125 
z
M 37 29.203125 
Q 37 34.90625 34.546875 38.15625 
Q 32.09375 41.40625 27 41.40625 
Q 22.59375 41.40625 19.296875 38.296875 
Q 16 35.203125 15.203125 29.203125 
z
" id="SourceSansPro-Semibold-101"/>
     <path d="M 27.40625 -1.203125 
Q 22.796875 -1.203125 18.59375 0.5 
Q 14.40625 2.203125 11.15625 5.5 
Q 7.90625 8.796875 6 13.59375 
Q 4.09375 18.40625 4.09375 24.5 
Q 4.09375 30.59375 6 35.390625 
Q 7.90625 40.203125 11.15625 43.5 
Q 14.40625 46.796875 18.59375 48.546875 
Q 22.796875 50.296875 27.40625 50.296875 
Q 32 50.296875 36.25 48.546875 
Q 40.5 46.796875 43.703125 43.5 
Q 46.90625 40.203125 48.84375 35.390625 
Q 50.796875 30.59375 50.796875 24.5 
Q 50.796875 18.40625 48.84375 13.59375 
Q 46.90625 8.796875 43.703125 5.5 
Q 40.5 2.203125 36.25 0.5 
Q 32 -1.203125 27.40625 -1.203125 
z
M 27.40625 8.203125 
Q 32.796875 8.203125 35.890625 12.640625 
Q 39 17.09375 39 24.5 
Q 39 32 35.890625 36.453125 
Q 32.796875 40.90625 27.40625 40.90625 
Q 22 40.90625 18.953125 36.453125 
Q 15.90625 32 15.90625 24.5 
Q 15.90625 17.09375 18.953125 12.640625 
Q 22 8.203125 27.40625 8.203125 
z
" id="SourceSansPro-Semibold-111"/>
     <path d="M 32.40625 61.5 
Q 29.703125 62.703125 27 62.703125 
Q 20.796875 62.703125 20.796875 54.40625 
L 20.796875 49.09375 
L 30.40625 49.09375 
L 30.40625 40 
L 20.796875 40 
L 20.796875 0 
L 9.296875 0 
L 9.296875 40 
L 2.703125 40 
L 2.703125 48.59375 
L 9.296875 49.09375 
L 9.296875 54.203125 
Q 9.296875 58 10.1875 61.25 
Q 11.09375 64.5 13.09375 66.84375 
Q 15.09375 69.203125 18.140625 70.5 
Q 21.203125 71.796875 25.59375 71.796875 
Q 28.203125 71.796875 30.546875 71.296875 
Q 32.90625 70.796875 34.59375 70.09375 
z
" id="SourceSansPro-Semibold-102"/>
     <path d="M 24.5 -1.203125 
Q 15.203125 -1.203125 9.75 5.546875 
Q 4.296875 12.296875 4.296875 24.5 
Q 4.296875 30.5 6.046875 35.296875 
Q 7.796875 40.09375 10.6875 43.390625 
Q 13.59375 46.703125 17.34375 48.5 
Q 21.09375 50.296875 25.09375 50.296875 
Q 29.296875 50.296875 32.1875 48.84375 
Q 35.09375 47.40625 38 44.90625 
L 37.59375 52.796875 
L 37.59375 70.59375 
L 49.09375 70.59375 
L 49.09375 0 
L 39.59375 0 
L 38.796875 5.296875 
L 38.40625 5.296875 
Q 35.703125 2.59375 32.09375 0.6875 
Q 28.5 -1.203125 24.5 -1.203125 
z
M 27.296875 8.296875 
Q 32.796875 8.296875 37.59375 13.796875 
L 37.59375 36.703125 
Q 35 39 32.546875 39.890625 
Q 30.09375 40.796875 27.59375 40.796875 
Q 22.796875 40.796875 19.5 36.59375 
Q 16.203125 32.40625 16.203125 24.59375 
Q 16.203125 16.59375 19.046875 12.4375 
Q 21.90625 8.296875 27.296875 8.296875 
z
" id="SourceSansPro-Semibold-100"/>
     <path d="M 19.203125 -1.203125 
Q 12.703125 -1.203125 8.703125 2.75 
Q 4.703125 6.703125 4.703125 13.203125 
Q 4.703125 17.09375 6.34375 20.140625 
Q 8 23.203125 11.546875 25.390625 
Q 15.09375 27.59375 20.546875 29.09375 
Q 26 30.59375 33.59375 31.40625 
Q 33.5 33.296875 33.046875 35.046875 
Q 32.59375 36.796875 31.546875 38.140625 
Q 30.5 39.5 28.796875 40.25 
Q 27.09375 41 24.59375 41 
Q 21 41 17.546875 39.59375 
Q 14.09375 38.203125 10.796875 36.203125 
L 6.59375 43.90625 
Q 10.703125 46.5 15.796875 48.390625 
Q 20.90625 50.296875 26.796875 50.296875 
Q 36 50.296875 40.546875 44.84375 
Q 45.09375 39.40625 45.09375 29.09375 
L 45.09375 0 
L 35.59375 0 
L 34.796875 5.40625 
L 34.40625 5.40625 
Q 31.09375 2.59375 27.34375 0.6875 
Q 23.59375 -1.203125 19.203125 -1.203125 
z
M 22.90625 7.796875 
Q 25.90625 7.796875 28.34375 9.1875 
Q 30.796875 10.59375 33.59375 13.203125 
L 33.59375 24.203125 
Q 28.59375 23.59375 25.1875 22.59375 
Q 21.796875 21.59375 19.6875 20.34375 
Q 17.59375 19.09375 16.6875 17.5 
Q 15.796875 15.90625 15.796875 14.09375 
Q 15.796875 10.796875 17.796875 9.296875 
Q 19.796875 7.796875 22.90625 7.796875 
z
" id="SourceSansPro-Semibold-97"/>
    </defs>
    <g style="fill:#242121;" transform="translate(165.179219 20.8)scale(0.14 -0.14)">
     <use xlink:href="#SourceSansPro-Semibold-65"/>
     <use x="55.799988" xlink:href="#SourceSansPro-Semibold-99"/>
     <use x="101.999985" xlink:href="#SourceSansPro-Semibold-116"/>
     <use x="138.099976" xlink:href="#SourceSansPro-Semibold-105"/>
     <use x="164.299973" xlink:href="#SourceSansPro-Semibold-118"/>
     <use x="213.799957" xlink:href="#SourceSansPro-Semibold-105"/>
     <use x="239.999954" xlink:href="#SourceSansPro-Semibold-116"/>
     <use x="276.099945" xlink:href="#SourceSansPro-Semibold-121"/>
     <use x="325.59993" xlink:href="#SourceSansPro-Semibold-32"/>
     <use x="345.599915" xlink:href="#SourceSansPro-Semibold-98"/>
     <use x="401.899902" xlink:href="#SourceSansPro-Semibold-121"/>
     <use x="451.399887" xlink:href="#SourceSansPro-Semibold-32"/>
     <use x="471.399872" xlink:href="#SourceSansPro-Semibold-116"/>
     <use x="507.499863" xlink:href="#SourceSansPro-Semibold-105"/>
     <use x="533.69986" xlink:href="#SourceSansPro-Semibold-109"/>
     <use x="617.999847" xlink:href="#SourceSansPro-Semibold-101"/>
     <use x="668.699844" xlink:href="#SourceSansPro-Semibold-32"/>
     <use x="688.699829" xlink:href="#SourceSansPro-Semibold-111"/>
     <use x="743.599823" xlink:href="#SourceSansPro-Semibold-102"/>
     <use x="775.29982" xlink:href="#SourceSansPro-Semibold-32"/>
     <use x="795.299805" xlink:href="#SourceSansPro-Semibold-100"/>
     <use x="851.699799" xlink:href="#SourceSansPro-Semibold-97"/>
     <use x="903.299789" xlink:href="#SourceSansPro-Semibold-121"/>
    </g>
   </g>
   <g id="legend_1">
    <g id="line2d_22">
     <path d="M 341.428125 39.420313 
L 361.428125 39.420313 
" style="fill:none;stroke:#1f77b4;stroke-linecap:round;stroke-width:1.5;"/>
    </g>
    <g id="line2d_23"/>
    <g id="text_21">
     <!-- Isambard -->
     <defs>
      <path d="M 9 65.59375 
L 17.296875 65.59375 
L 17.296875 0 
L 9 0 
z
" id="SourceSansPro-Regular-73"/>
      <path d="M 20.90625 -1.203125 
Q 15.703125 -1.203125 11 0.6875 
Q 6.296875 2.59375 2.796875 5.5 
L 6.90625 11 
Q 10.09375 8.40625 13.4375 6.796875 
Q 16.796875 5.203125 21.203125 5.203125 
Q 26 5.203125 28.390625 7.390625 
Q 30.796875 9.59375 30.796875 12.796875 
Q 30.796875 14.703125 29.796875 16.09375 
Q 28.796875 17.5 27.25 18.546875 
Q 25.703125 19.59375 23.703125 20.390625 
Q 21.703125 21.203125 19.703125 22 
Q 17.09375 22.90625 14.5 24.046875 
Q 11.90625 25.203125 9.84375 26.84375 
Q 7.796875 28.5 6.5 30.703125 
Q 5.203125 32.90625 5.203125 36 
Q 5.203125 38.90625 6.34375 41.453125 
Q 7.5 44 9.640625 45.84375 
Q 11.796875 47.703125 14.890625 48.75 
Q 18 49.796875 21.90625 49.796875 
Q 26.5 49.796875 30.34375 48.1875 
Q 34.203125 46.59375 37 44.296875 
L 33.09375 39.09375 
Q 30.59375 41 27.890625 42.203125 
Q 25.203125 43.40625 22 43.40625 
Q 17.40625 43.40625 15.25 41.296875 
Q 13.09375 39.203125 13.09375 36.40625 
Q 13.09375 34.703125 14 33.453125 
Q 14.90625 32.203125 16.40625 31.25 
Q 17.90625 30.296875 19.84375 29.546875 
Q 21.796875 28.796875 23.90625 28 
Q 26.5 27 29.140625 25.890625 
Q 31.796875 24.796875 33.890625 23.140625 
Q 36 21.5 37.34375 19.09375 
Q 38.703125 16.703125 38.703125 13.296875 
Q 38.703125 10.296875 37.546875 7.6875 
Q 36.40625 5.09375 34.15625 3.09375 
Q 31.90625 1.09375 28.546875 -0.046875 
Q 25.203125 -1.203125 20.90625 -1.203125 
z
" id="SourceSansPro-Regular-115"/>
      <path d="M 29.703125 -1.203125 
Q 26.296875 -1.203125 22.640625 0.4375 
Q 19 2.09375 15.796875 5 
L 15.5 5 
L 14.796875 0 
L 8.203125 0 
L 8.203125 71.203125 
L 16.40625 71.203125 
L 16.40625 51.796875 
L 16.203125 43 
Q 19.5 45.90625 23.390625 47.84375 
Q 27.296875 49.796875 31.40625 49.796875 
Q 36.09375 49.796875 39.6875 48.046875 
Q 43.296875 46.296875 45.75 43.046875 
Q 48.203125 39.796875 49.453125 35.25 
Q 50.703125 30.703125 50.703125 25.09375 
Q 50.703125 18.90625 49 14 
Q 47.296875 9.09375 44.390625 5.6875 
Q 41.5 2.296875 37.703125 0.546875 
Q 33.90625 -1.203125 29.703125 -1.203125 
z
M 28.296875 5.703125 
Q 31.296875 5.703125 33.84375 7.046875 
Q 36.40625 8.40625 38.25 10.84375 
Q 40.09375 13.296875 41.140625 16.890625 
Q 42.203125 20.5 42.203125 25 
Q 42.203125 29 41.5 32.296875 
Q 40.796875 35.59375 39.25 37.9375 
Q 37.703125 40.296875 35.25 41.59375 
Q 32.796875 42.90625 29.40625 42.90625 
Q 23.5 42.90625 16.40625 36.296875 
L 16.40625 10.796875 
Q 19.59375 8 22.75 6.84375 
Q 25.90625 5.703125 28.296875 5.703125 
z
" id="SourceSansPro-Regular-98"/>
      <path d="M 8.203125 48.59375 
L 15 48.59375 
L 15.703125 39.796875 
L 16 39.796875 
Q 18.5 44.40625 22.046875 47.09375 
Q 25.59375 49.796875 29.796875 49.796875 
Q 32.703125 49.796875 35 48.796875 
L 33.40625 41.59375 
Q 32.203125 42 31.203125 42.203125 
Q 30.203125 42.40625 28.703125 42.40625 
Q 25.59375 42.40625 22.25 39.90625 
Q 18.90625 37.40625 16.40625 31.203125 
L 16.40625 0 
L 8.203125 0 
z
" id="SourceSansPro-Regular-114"/>
     </defs>
     <g style="fill:#242121;" transform="translate(369.428125 42.920313)scale(0.1 -0.1)">
      <use xlink:href="#SourceSansPro-Regular-73"/>
      <use x="26.299988" xlink:href="#SourceSansPro-Regular-115"/>
      <use x="68.199982" xlink:href="#SourceSansPro-Regular-97"/>
      <use x="118.599976" xlink:href="#SourceSansPro-Regular-109"/>
      <use x="201.499969" xlink:href="#SourceSansPro-Regular-98"/>
      <use x="256.799957" xlink:href="#SourceSansPro-Regular-97"/>
      <use x="307.199951" xlink:href="#SourceSansPro-Regular-114"/>
      <use x="341.899948" xlink:href="#SourceSansPro-Regular-100"/>
     </g>
    </g>
    <g id="line2d_24">
     <path d="M 341.428125 53.590625 
L 361.428125 53.590625 
" style="fill:none;stroke:#ff7f0e;stroke-linecap:round;stroke-width:1.5;"/>
    </g>
    <g id="line2d_25"/>
    <g id="text_22">
     <!-- Lysander -->
     <defs>
      <path d="M 9 65.59375 
L 17.296875 65.59375 
L 17.296875 7.09375 
L 46 7.09375 
L 46 0 
L 9 0 
z
" id="SourceSansPro-Regular-76"/>
      <path d="M 8.203125 48.59375 
L 15 48.59375 
L 15.703125 41.59375 
L 16 41.59375 
Q 19.5 45.09375 23.34375 47.4375 
Q 27.203125 49.796875 32.296875 49.796875 
Q 40 49.796875 43.546875 45 
Q 47.09375 40.203125 47.09375 30.796875 
L 47.09375 0 
L 38.90625 0 
L 38.90625 29.703125 
Q 38.90625 36.59375 36.703125 39.640625 
Q 34.5 42.703125 29.703125 42.703125 
Q 25.90625 42.703125 23 40.796875 
Q 20.09375 38.90625 16.40625 35.203125 
L 16.40625 0 
L 8.203125 0 
z
" id="SourceSansPro-Regular-110"/>
     </defs>
     <g style="fill:#242121;" transform="translate(369.428125 57.090625)scale(0.1 -0.1)">
      <use xlink:href="#SourceSansPro-Regular-76"/>
      <use x="48.599991" xlink:href="#SourceSansPro-Regular-121"/>
      <use x="95.299988" xlink:href="#SourceSansPro-Regular-115"/>
      <use x="137.199982" xlink:href="#SourceSansPro-Regular-97"/>
      <use x="187.599976" xlink:href="#SourceSansPro-Regular-110"/>
      <use x="242.299973" xlink:href="#SourceSansPro-Regular-100"/>
      <use x="297.799957" xlink:href="#SourceSansPro-Regular-101"/>
      <use x="347.399948" xlink:href="#SourceSansPro-Regular-114"/>
     </g>
    </g>
    <g id="line2d_26">
     <path d="M 341.428125 67.801563 
L 361.428125 67.801563 
" style="fill:none;stroke:#2ca02c;stroke-linecap:round;stroke-width:1.5;"/>
    </g>
    <g id="line2d_27"/>
    <g id="text_23">
     <!-- Perseus -->
     <defs>
      <path d="M 9 65.59375 
L 27.703125 65.59375 
Q 33.203125 65.59375 37.75 64.59375 
Q 42.296875 63.59375 45.5 61.34375 
Q 48.703125 59.09375 50.5 55.390625 
Q 52.296875 51.703125 52.296875 46.296875 
Q 52.296875 41.09375 50.546875 37.296875 
Q 48.796875 33.5 45.59375 31 
Q 42.40625 28.5 37.953125 27.25 
Q 33.5 26 28.09375 26 
L 17.296875 26 
L 17.296875 0 
L 9 0 
z
M 27.09375 32.796875 
Q 35.703125 32.796875 39.84375 36.046875 
Q 44 39.296875 44 46.296875 
Q 44 53.40625 39.640625 56.15625 
Q 35.296875 58.90625 26.703125 58.90625 
L 17.296875 58.90625 
L 17.296875 32.796875 
z
" id="SourceSansPro-Regular-80"/>
      <path d="M 22.40625 -1.203125 
Q 14.59375 -1.203125 11.046875 3.59375 
Q 7.5 8.40625 7.5 17.796875 
L 7.5 48.59375 
L 15.796875 48.59375 
L 15.796875 18.90625 
Q 15.796875 12 17.9375 8.953125 
Q 20.09375 5.90625 24.90625 5.90625 
Q 28.703125 5.90625 31.59375 7.84375 
Q 34.5 9.796875 38 14.09375 
L 38 48.59375 
L 46.203125 48.59375 
L 46.203125 0 
L 39.40625 0 
L 38.703125 7.59375 
L 38.40625 7.59375 
Q 35 3.59375 31.25 1.1875 
Q 27.5 -1.203125 22.40625 -1.203125 
z
" id="SourceSansPro-Regular-117"/>
     </defs>
     <g style="fill:#242121;" transform="translate(369.428125 71.301563)scale(0.1 -0.1)">
      <use xlink:href="#SourceSansPro-Regular-80"/>
      <use x="56.599991" xlink:href="#SourceSansPro-Regular-101"/>
      <use x="106.199982" xlink:href="#SourceSansPro-Regular-114"/>
      <use x="140.899979" xlink:href="#SourceSansPro-Regular-115"/>
      <use x="182.799973" xlink:href="#SourceSansPro-Regular-101"/>
      <use x="232.399963" xlink:href="#SourceSansPro-Regular-117"/>
      <use x="286.799957" xlink:href="#SourceSansPro-Regular-115"/>
     </g>
    </g>
    <g id="line2d_28">
     <path d="M 341.428125 81.971875 
L 361.428125 81.971875 
" style="fill:none;stroke:#d62728;stroke-linecap:round;stroke-width:1.5;"/>
    </g>
    <g id="line2d_29"/>
    <g id="text_24">
     <!-- Seraphina -->
     <defs>
      <path d="M 27.203125 -1.203125 
Q 20.296875 -1.203125 14.390625 1.390625 
Q 8.5 4 4.203125 8.5 
L 9.203125 14.296875 
Q 12.703125 10.59375 17.453125 8.34375 
Q 22.203125 6.09375 27.296875 6.09375 
Q 33.796875 6.09375 37.390625 9.046875 
Q 41 12 41 16.796875 
Q 41 19.296875 40.140625 21.046875 
Q 39.296875 22.796875 37.84375 24.046875 
Q 36.40625 25.296875 34.40625 26.296875 
Q 32.40625 27.296875 30.09375 28.40625 
L 20.703125 32.5 
Q 18.40625 33.5 16 34.890625 
Q 13.59375 36.296875 11.6875 38.296875 
Q 9.796875 40.296875 8.59375 43.046875 
Q 7.40625 45.796875 7.40625 49.40625 
Q 7.40625 53.09375 8.953125 56.296875 
Q 10.5 59.5 13.25 61.84375 
Q 16 64.203125 19.75 65.5 
Q 23.5 66.796875 28 66.796875 
Q 33.90625 66.796875 38.90625 64.546875 
Q 43.90625 62.296875 47.40625 58.703125 
L 42.90625 53.296875 
Q 39.90625 56.203125 36.25 57.84375 
Q 32.59375 59.5 28 59.5 
Q 22.5 59.5 19.140625 56.953125 
Q 15.796875 54.40625 15.796875 49.90625 
Q 15.796875 47.5 16.75 45.84375 
Q 17.703125 44.203125 19.296875 42.953125 
Q 20.90625 41.703125 22.796875 40.75 
Q 24.703125 39.796875 26.703125 39 
L 36 35 
Q 38.796875 33.796875 41.296875 32.25 
Q 43.796875 30.703125 45.59375 28.640625 
Q 47.40625 26.59375 48.453125 23.84375 
Q 49.5 21.09375 49.5 17.5 
Q 49.5 13.59375 47.953125 10.1875 
Q 46.40625 6.796875 43.5 4.25 
Q 40.59375 1.703125 36.5 0.25 
Q 32.40625 -1.203125 27.203125 -1.203125 
z
" id="SourceSansPro-Regular-83"/>
      <path d="M 8.203125 48.59375 
L 15 48.59375 
L 15.703125 43 
L 16 43 
Q 19.296875 45.796875 23.25 47.796875 
Q 27.203125 49.796875 31.5 49.796875 
Q 36.203125 49.796875 39.796875 48.046875 
Q 43.40625 46.296875 45.796875 43.046875 
Q 48.203125 39.796875 49.453125 35.25 
Q 50.703125 30.703125 50.703125 25 
Q 50.703125 18.796875 49 13.9375 
Q 47.296875 9.09375 44.390625 5.6875 
Q 41.5 2.296875 37.703125 0.546875 
Q 33.90625 -1.203125 29.703125 -1.203125 
Q 26.296875 -1.203125 22.9375 0.296875 
Q 19.59375 1.796875 16.203125 4.40625 
L 16.40625 -4.09375 
L 16.40625 -20.5 
L 8.203125 -20.5 
z
M 28.296875 5.703125 
Q 31.296875 5.703125 33.84375 7.046875 
Q 36.40625 8.40625 38.25 10.84375 
Q 40.09375 13.296875 41.140625 16.890625 
Q 42.203125 20.5 42.203125 25 
Q 42.203125 29 41.5 32.296875 
Q 40.796875 35.59375 39.25 37.9375 
Q 37.703125 40.296875 35.25 41.59375 
Q 32.796875 42.90625 29.40625 42.90625 
Q 26.296875 42.90625 23.140625 41.203125 
Q 20 39.5 16.40625 36.296875 
L 16.40625 10.796875 
Q 19.703125 8 22.796875 6.84375 
Q 25.90625 5.703125 28.296875 5.703125 
z
" id="SourceSansPro-Regular-112"/>
      <path d="M 8.203125 71.203125 
L 16.40625 71.203125 
L 16.40625 51.796875 
L 16.09375 41.796875 
Q 19.59375 45.09375 23.390625 47.4375 
Q 27.203125 49.796875 32.296875 49.796875 
Q 40 49.796875 43.546875 45 
Q 47.09375 40.203125 47.09375 30.796875 
L 47.09375 0 
L 38.90625 0 
L 38.90625 29.703125 
Q 38.90625 36.59375 36.703125 39.640625 
Q 34.5 42.703125 29.703125 42.703125 
Q 25.90625 42.703125 23 40.796875 
Q 20.09375 38.90625 16.40625 35.203125 
L 16.40625 0 
L 8.203125 0 
z
" id="SourceSansPro-Regular-104"/>
     </defs>
     <g style="fill:#242121;" transform="translate(369.428125 85.471875)scale(0.1 -0.1)">
      <use xlink:href="#SourceSansPro-Regular-83"/>
      <use x="53.399994" xlink:href="#SourceSansPro-Regular-101"/>
      <use x="102.999985" xlink:href="#SourceSansPro-Regular-114"/>
      <use x="137.699982" xlink:href="#SourceSansPro-Regular-97"/>
      <use x="188.099976" xlink:href="#SourceSansPro-Regular-112"/>
      <use x="243.59996" xlink:href="#SourceSansPro-Regular-104"/>
      <use x="297.999954" xlink:href="#SourceSansPro-Regular-105"/>
      <use x="322.599945" xlink:href="#SourceSansPro-Regular-110"/>
      <use x="377.299942" xlink:href="#SourceSansPro-Regular-97"/>
     </g>
    </g>
   </g>
  </g>
 </g>
 <defs>
  <clipPath id="p52005dfb16">
   <rect height="260.9" width="378.65" x="42.55" y="26.8"/>
  </clipPath>
 </defs>
</svg>
