<?xml version="1.0" encoding="utf-8" standalone="no"?>
<!DOCTYPE svg PUBLIC "-//W3C//DTD SVG 1.1//EN"
  "http://www.w3.org/Graphics/SVG/1.1/DTD/svg11.dtd">
<!-- Created with matplotlib (https://matplotlib.org/) -->
<svg height="324pt" version="1.1" viewBox="0 0 432 324" width="432pt" xmlns="http://www.w3.org/2000/svg" xmlns:xlink="http://www.w3.org/1999/xlink">
 <defs>
  <style type="text/css">
*{stroke-linecap:butt;stroke-linejoin:round;}
  </style>
 </defs>
 <g id="figure_1">
  <g id="patch_1">
   <path d="M 0 324 
L 432 324 
L 432 0 
L 0 0 
z
" style="fill:#ffffff;"/>
  </g>
  <g id="axes_1">
   <g id="patch_2">
    <path d="M 45.175 282.55625 
L 199.830098 282.55625 
L 199.830098 26.8 
L 45.175 26.8 
z
" style="fill:#eaeaf2;"/>
   </g>
   <g id="matplotlib.axis_1">
    <g id="xtick_1">
     <g id="line2d_1"/>
     <g id="text_1">
      <!-- $10^{-2}$ -->
      <defs>
       <path d="M 12.40625 8.296875 
L 28.515625 8.296875 
L 28.515625 63.921875 
L 10.984375 60.40625 
L 10.984375 69.390625 
L 28.421875 72.90625 
L 38.28125 72.90625 
L 38.28125 8.296875 
L 54.390625 8.296875 
L 54.390625 0 
L 12.40625 0 
z
" id="DejaVuSans-49"/>
       <path d="M 31.78125 66.40625 
Q 24.171875 66.40625 20.328125 58.90625 
Q 16.5 51.421875 16.5 36.375 
Q 16.5 21.390625 20.328125 13.890625 
Q 24.171875 6.390625 31.78125 6.390625 
Q 39.453125 6.390625 43.28125 13.890625 
Q 47.125 21.390625 47.125 36.375 
Q 47.125 51.421875 43.28125 58.90625 
Q 39.453125 66.40625 31.78125 66.40625 
z
M 31.78125 74.21875 
Q 44.046875 74.21875 50.515625 64.515625 
Q 56.984375 54.828125 56.984375 36.375 
Q 56.984375 17.96875 50.515625 8.265625 
Q 44.046875 -1.421875 31.78125 -1.421875 
Q 19.53125 -1.421875 13.0625 8.265625 
Q 6.59375 17.96875 6.59375 36.375 
Q 6.59375 54.828125 13.0625 64.515625 
Q 19.53125 74.21875 31.78125 74.21875 
z
" id="DejaVuSans-48"/>
       <path d="M 10.59375 35.5 
L 73.1875 35.5 
L 73.1875 27.203125 
L 10.59375 27.203125 
z
" id="DejaVuSans-8722"/>
       <path d="M 19.1875 8.296875 
L 53.609375 8.296875 
L 53.609375 0 
L 7.328125 0 
L 7.328125 8.296875 
Q 12.9375 14.109375 22.625 23.890625 
Q 32.328125 33.6875 34.8125 36.53125 
Q 39.546875 41.84375 41.421875 45.53125 
Q 43.3125 49.21875 43.3125 52.78125 
Q 43.3125 58.59375 39.234375 62.25 
Q 35.15625 65.921875 28.609375 65.921875 
Q 23.96875 65.921875 18.8125 64.3125 
Q 13.671875 62.703125 7.8125 59.421875 
L 7.8125 69.390625 
Q 13.765625 71.78125 18.9375 73 
Q 24.125 74.21875 28.421875 74.21875 
Q 39.75 74.21875 46.484375 68.546875 
Q 53.21875 62.890625 53.21875 53.421875 
Q 53.21875 48.921875 51.53125 44.890625 
Q 49.859375 40.875 45.40625 35.40625 
Q 44.1875 33.984375 37.640625 27.21875 
Q 31.109375 20.453125 19.1875 8.296875 
z
" id="DejaVuSans-50"/>
      </defs>
      <g style="fill:#242121;" transform="translate(33.425 293.30625)scale(0.1 -0.1)">
       <use transform="translate(0 0.765625)" xlink:href="#DejaVuSans-49"/>
       <use transform="translate(63.623047 0.765625)" xlink:href="#DejaVuSans-48"/>
       <use transform="translate(128.203125 39.046875)scale(0.7)" xlink:href="#DejaVuSans-8722"/>
       <use transform="translate(186.855469 39.046875)scale(0.7)" xlink:href="#DejaVuSans-50"/>
      </g>
     </g>
    </g>
    <g id="xtick_2">
     <g id="line2d_2"/>
     <g id="text_2">
      <!-- $10^{0}$ -->
      <g style="fill:#242121;" transform="translate(75.038774 293.30625)scale(0.1 -0.1)">
       <use transform="translate(0 0.765625)" xlink:href="#DejaVuSans-49"/>
       <use transform="translate(63.623047 0.765625)" xlink:href="#DejaVuSans-48"/>
       <use transform="translate(128.203125 39.046875)scale(0.7)" xlink:href="#DejaVuSans-48"/>
      </g>
     </g>
    </g>
    <g id="xtick_3">
     <g id="line2d_3"/>
     <g id="text_3">
      <!-- $10^{2}$ -->
      <g style="fill:#242121;" transform="translate(113.702549 293.30625)scale(0.1 -0.1)">
       <use transform="translate(0 0.765625)" xlink:href="#DejaVuSans-49"/>
       <use transform="translate(63.623047 0.765625)" xlink:href="#DejaVuSans-48"/>
       <use transform="translate(128.203125 39.046875)scale(0.7)" xlink:href="#DejaVuSans-50"/>
      </g>
     </g>
    </g>
    <g id="xtick_4">
     <g id="line2d_4"/>
     <g id="text_4">
      <!-- $10^{4}$ -->
      <defs>
       <path d="M 37.796875 64.3125 
L 12.890625 25.390625 
L 37.796875 25.390625 
z
M 35.203125 72.90625 
L 47.609375 72.90625 
L 47.609375 25.390625 
L 58.015625 25.390625 
L 58.015625 17.1875 
L 47.609375 17.1875 
L 47.609375 0 
L 37.796875 0 
L 37.796875 17.1875 
L 4.890625 17.1875 
L 4.890625 26.703125 
z
" id="DejaVuSans-52"/>
      </defs>
      <g style="fill:#242121;" transform="translate(152.366323 293.20625)scale(0.1 -0.1)">
       <use transform="translate(0 0.684375)" xlink:href="#DejaVuSans-49"/>
       <use transform="translate(63.623047 0.684375)" xlink:href="#DejaVuSans-48"/>
       <use transform="translate(128.203125 38.965625)scale(0.7)" xlink:href="#DejaVuSans-52"/>
      </g>
     </g>
    </g>
    <g id="xtick_5">
     <g id="line2d_5"/>
     <g id="text_5">
      <!-- $10^{6}$ -->
      <defs>
       <path d="M 33.015625 40.375 
Q 26.375 40.375 22.484375 35.828125 
Q 18.609375 31.296875 18.609375 23.390625 
Q 18.609375 15.53125 22.484375 10.953125 
Q 26.375 6.390625 33.015625 6.390625 
Q 39.65625 6.390625 43.53125 10.953125 
Q 47.40625 15.53125 47.40625 23.390625 
Q 47.40625 31.296875 43.53125 35.828125 
Q 39.65625 40.375 33.015625 40.375 
z
M 52.59375 71.296875 
L 52.59375 62.3125 
Q 48.875 64.0625 45.09375 64.984375 
Q 41.3125 65.921875 37.59375 65.921875 
Q 27.828125 65.921875 22.671875 59.328125 
Q 17.53125 52.734375 16.796875 39.40625 
Q 19.671875 43.65625 24.015625 45.921875 
Q 28.375 48.1875 33.59375 48.1875 
Q 44.578125 48.1875 50.953125 41.515625 
Q 57.328125 34.859375 57.328125 23.390625 
Q 57.328125 12.15625 50.6875 5.359375 
Q 44.046875 -1.421875 33.015625 -1.421875 
Q 20.359375 -1.421875 13.671875 8.265625 
Q 6.984375 17.96875 6.984375 36.375 
Q 6.984375 53.65625 15.1875 63.9375 
Q 23.390625 74.21875 37.203125 74.21875 
Q 40.921875 74.21875 44.703125 73.484375 
Q 48.484375 72.75 52.59375 71.296875 
z
" id="DejaVuSans-54"/>
      </defs>
      <g style="fill:#242121;" transform="translate(191.030098 293.30625)scale(0.1 -0.1)">
       <use transform="translate(0 0.765625)" xlink:href="#DejaVuSans-49"/>
       <use transform="translate(63.623047 0.765625)" xlink:href="#DejaVuSans-48"/>
       <use transform="translate(128.203125 39.046875)scale(0.7)" xlink:href="#DejaVuSans-54"/>
      </g>
     </g>
    </g>
    <g id="text_6">
     <!-- Response time (Mins) -->
     <defs>
      <path d="M 17.296875 34.5 
L 28.296875 34.5 
Q 36 34.5 40.09375 37.640625 
Q 44.203125 40.796875 44.203125 47.203125 
Q 44.203125 53.703125 40.09375 56.296875 
Q 36 58.90625 28.296875 58.90625 
L 17.296875 58.90625 
z
M 45 0 
L 29.203125 27.703125 
L 17.296875 27.703125 
L 17.296875 0 
L 9 0 
L 9 65.59375 
L 29.5 65.59375 
Q 34.5 65.59375 38.75 64.640625 
Q 43 63.703125 46.046875 61.5 
Q 49.09375 59.296875 50.796875 55.796875 
Q 52.5 52.296875 52.5 47.203125 
Q 52.5 39.5 48.5 34.890625 
Q 44.5 30.296875 37.796875 28.59375 
L 54.40625 0 
z
" id="SourceSansPro-Regular-82"/>
      <path d="M 27.90625 -1.203125 
Q 23 -1.203125 18.75 0.546875 
Q 14.5 2.296875 11.34375 5.546875 
Q 8.203125 8.796875 6.390625 13.5 
Q 4.59375 18.203125 4.59375 24.203125 
Q 4.59375 30.203125 6.4375 34.953125 
Q 8.296875 39.703125 11.34375 43 
Q 14.40625 46.296875 18.296875 48.046875 
Q 22.203125 49.796875 26.40625 49.796875 
Q 31 49.796875 34.640625 48.1875 
Q 38.296875 46.59375 40.75 43.59375 
Q 43.203125 40.59375 44.5 36.390625 
Q 45.796875 32.203125 45.796875 27 
Q 45.796875 25.703125 45.75 24.453125 
Q 45.703125 23.203125 45.5 22.296875 
L 12.703125 22.296875 
Q 13.203125 14.5 17.546875 9.953125 
Q 21.90625 5.40625 28.90625 5.40625 
Q 32.40625 5.40625 35.34375 6.453125 
Q 38.296875 7.5 41 9.203125 
L 43.90625 3.796875 
Q 40.703125 1.796875 36.796875 0.296875 
Q 32.90625 -1.203125 27.90625 -1.203125 
z
M 38.59375 28.203125 
Q 38.59375 35.59375 35.4375 39.4375 
Q 32.296875 43.296875 26.59375 43.296875 
Q 24 43.296875 21.640625 42.296875 
Q 19.296875 41.296875 17.390625 39.34375 
Q 15.5 37.40625 14.25 34.59375 
Q 13 31.796875 12.59375 28.203125 
z
" id="SourceSansPro-Regular-101"/>
      <path d="M 20.90625 -1.203125 
Q 15.703125 -1.203125 11 0.6875 
Q 6.296875 2.59375 2.796875 5.5 
L 6.90625 11 
Q 10.09375 8.40625 13.4375 6.796875 
Q 16.796875 5.203125 21.203125 5.203125 
Q 26 5.203125 28.390625 7.390625 
Q 30.796875 9.59375 30.796875 12.796875 
Q 30.796875 14.703125 29.796875 16.09375 
Q 28.796875 17.5 27.25 18.546875 
Q 25.703125 19.59375 23.703125 20.390625 
Q 21.703125 21.203125 19.703125 22 
Q 17.09375 22.90625 14.5 24.046875 
Q 11.90625 25.203125 9.84375 26.84375 
Q 7.796875 28.5 6.5 30.703125 
Q 5.203125 32.90625 5.203125 36 
Q 5.203125 38.90625 6.34375 41.453125 
Q 7.5 44 9.640625 45.84375 
Q 11.796875 47.703125 14.890625 48.75 
Q 18 49.796875 21.90625 49.796875 
Q 26.5 49.796875 30.34375 48.1875 
Q 34.203125 46.59375 37 44.296875 
L 33.09375 39.09375 
Q 30.59375 41 27.890625 42.203125 
Q 25.203125 43.40625 22 43.40625 
Q 17.40625 43.40625 15.25 41.296875 
Q 13.09375 39.203125 13.09375 36.40625 
Q 13.09375 34.703125 14 33.453125 
Q 14.90625 32.203125 16.40625 31.25 
Q 17.90625 30.296875 19.84375 29.546875 
Q 21.796875 28.796875 23.90625 28 
Q 26.5 27 29.140625 25.890625 
Q 31.796875 24.796875 33.890625 23.140625 
Q 36 21.5 37.34375 19.09375 
Q 38.703125 16.703125 38.703125 13.296875 
Q 38.703125 10.296875 37.546875 7.6875 
Q 36.40625 5.09375 34.15625 3.09375 
Q 31.90625 1.09375 28.546875 -0.046875 
Q 25.203125 -1.203125 20.90625 -1.203125 
z
" id="SourceSansPro-Regular-115"/>
      <path d="M 8.203125 48.59375 
L 15 48.59375 
L 15.703125 43 
L 16 43 
Q 19.296875 45.796875 23.25 47.796875 
Q 27.203125 49.796875 31.5 49.796875 
Q 36.203125 49.796875 39.796875 48.046875 
Q 43.40625 46.296875 45.796875 43.046875 
Q 48.203125 39.796875 49.453125 35.25 
Q 50.703125 30.703125 50.703125 25 
Q 50.703125 18.796875 49 13.9375 
Q 47.296875 9.09375 44.390625 5.6875 
Q 41.5 2.296875 37.703125 0.546875 
Q 33.90625 -1.203125 29.703125 -1.203125 
Q 26.296875 -1.203125 22.9375 0.296875 
Q 19.59375 1.796875 16.203125 4.40625 
L 16.40625 -4.09375 
L 16.40625 -20.5 
L 8.203125 -20.5 
z
M 28.296875 5.703125 
Q 31.296875 5.703125 33.84375 7.046875 
Q 36.40625 8.40625 38.25 10.84375 
Q 40.09375 13.296875 41.140625 16.890625 
Q 42.203125 20.5 42.203125 25 
Q 42.203125 29 41.5 32.296875 
Q 40.796875 35.59375 39.25 37.9375 
Q 37.703125 40.296875 35.25 41.59375 
Q 32.796875 42.90625 29.40625 42.90625 
Q 26.296875 42.90625 23.140625 41.203125 
Q 20 39.5 16.40625 36.296875 
L 16.40625 10.796875 
Q 19.703125 8 22.796875 6.84375 
Q 25.90625 5.703125 28.296875 5.703125 
z
" id="SourceSansPro-Regular-112"/>
      <path d="M 27.09375 -1.203125 
Q 22.59375 -1.203125 18.546875 0.5 
Q 14.5 2.203125 11.390625 5.453125 
Q 8.296875 8.703125 6.4375 13.453125 
Q 4.59375 18.203125 4.59375 24.203125 
Q 4.59375 30.296875 6.4375 35.046875 
Q 8.296875 39.796875 11.390625 43.09375 
Q 14.5 46.40625 18.546875 48.09375 
Q 22.59375 49.796875 27.09375 49.796875 
Q 31.59375 49.796875 35.640625 48.09375 
Q 39.703125 46.40625 42.796875 43.09375 
Q 45.90625 39.796875 47.75 35.046875 
Q 49.59375 30.296875 49.59375 24.203125 
Q 49.59375 18.203125 47.75 13.453125 
Q 45.90625 8.703125 42.796875 5.453125 
Q 39.703125 2.203125 35.640625 0.5 
Q 31.59375 -1.203125 27.09375 -1.203125 
z
M 27.09375 5.59375 
Q 30.203125 5.59375 32.796875 6.9375 
Q 35.40625 8.296875 37.25 10.75 
Q 39.09375 13.203125 40.09375 16.59375 
Q 41.09375 20 41.09375 24.203125 
Q 41.09375 28.40625 40.09375 31.84375 
Q 39.09375 35.296875 37.25 37.796875 
Q 35.40625 40.296875 32.796875 41.640625 
Q 30.203125 43 27.09375 43 
Q 24 43 21.390625 41.640625 
Q 18.796875 40.296875 16.9375 37.796875 
Q 15.09375 35.296875 14.09375 31.84375 
Q 13.09375 28.40625 13.09375 24.203125 
Q 13.09375 20 14.09375 16.59375 
Q 15.09375 13.203125 16.9375 10.75 
Q 18.796875 8.296875 21.390625 6.9375 
Q 24 5.59375 27.09375 5.59375 
z
" id="SourceSansPro-Regular-111"/>
      <path d="M 8.203125 48.59375 
L 15 48.59375 
L 15.703125 41.59375 
L 16 41.59375 
Q 19.5 45.09375 23.34375 47.4375 
Q 27.203125 49.796875 32.296875 49.796875 
Q 40 49.796875 43.546875 45 
Q 47.09375 40.203125 47.09375 30.796875 
L 47.09375 0 
L 38.90625 0 
L 38.90625 29.703125 
Q 38.90625 36.59375 36.703125 39.640625 
Q 34.5 42.703125 29.703125 42.703125 
Q 25.90625 42.703125 23 40.796875 
Q 20.09375 38.90625 16.40625 35.203125 
L 16.40625 0 
L 8.203125 0 
z
" id="SourceSansPro-Regular-110"/>
      <path id="SourceSansPro-Regular-32"/>
      <path d="M 23.5 -1.203125 
Q 19.59375 -1.203125 16.9375 0 
Q 14.296875 1.203125 12.640625 3.296875 
Q 11 5.40625 10.296875 8.40625 
Q 9.59375 11.40625 9.59375 15 
L 9.59375 41.90625 
L 2.40625 41.90625 
L 2.40625 48.09375 
L 10 48.59375 
L 11 62.203125 
L 17.90625 62.203125 
L 17.90625 48.59375 
L 31 48.59375 
L 31 41.90625 
L 17.90625 41.90625 
L 17.90625 14.90625 
Q 17.90625 10.40625 19.546875 7.953125 
Q 21.203125 5.5 25.40625 5.5 
Q 26.703125 5.5 28.203125 5.890625 
Q 29.703125 6.296875 30.90625 6.796875 
L 32.5 0.59375 
Q 30.5 -0.09375 28.140625 -0.640625 
Q 25.796875 -1.203125 23.5 -1.203125 
z
" id="SourceSansPro-Regular-116"/>
      <path d="M 8.203125 48.59375 
L 16.40625 48.59375 
L 16.40625 0 
L 8.203125 0 
z
M 12.40625 58.59375 
Q 10 58.59375 8.34375 60.09375 
Q 6.703125 61.59375 6.703125 63.90625 
Q 6.703125 66.296875 8.34375 67.75 
Q 10 69.203125 12.40625 69.203125 
Q 14.796875 69.203125 16.4375 67.75 
Q 18.09375 66.296875 18.09375 63.90625 
Q 18.09375 61.59375 16.4375 60.09375 
Q 14.796875 58.59375 12.40625 58.59375 
z
" id="SourceSansPro-Regular-105"/>
      <path d="M 8.203125 48.59375 
L 15 48.59375 
L 15.703125 41.59375 
L 16 41.59375 
Q 19.203125 45.09375 22.953125 47.4375 
Q 26.703125 49.796875 31.09375 49.796875 
Q 36.703125 49.796875 39.84375 47.34375 
Q 43 44.90625 44.5 40.5 
Q 48.296875 44.703125 52.140625 47.25 
Q 56 49.796875 60.5 49.796875 
Q 68 49.796875 71.640625 45 
Q 75.296875 40.203125 75.296875 30.796875 
L 75.296875 0 
L 67.09375 0 
L 67.09375 29.703125 
Q 67.09375 36.59375 64.890625 39.640625 
Q 62.703125 42.703125 58.09375 42.703125 
Q 52.59375 42.703125 45.90625 35.203125 
L 45.90625 0 
L 37.703125 0 
L 37.703125 29.703125 
Q 37.703125 36.59375 35.5 39.640625 
Q 33.296875 42.703125 28.59375 42.703125 
Q 23.09375 42.703125 16.40625 35.203125 
L 16.40625 0 
L 8.203125 0 
z
" id="SourceSansPro-Regular-109"/>
      <path d="M 21.40625 -17.59375 
Q 15.203125 -7.59375 11.703125 3.5 
Q 8.203125 14.59375 8.203125 27.796875 
Q 8.203125 41 11.703125 52.046875 
Q 15.203125 63.09375 21.40625 73.203125 
L 26.5 70.796875 
Q 20.703125 61.203125 17.84375 50.25 
Q 15 39.296875 15 27.796875 
Q 15 16.296875 17.84375 5.34375 
Q 20.703125 -5.59375 26.5 -15.203125 
L 21.40625 -17.59375 
z
" id="SourceSansPro-Regular-40"/>
      <path d="M 9 65.59375 
L 19 65.59375 
L 31.59375 30.59375 
Q 32.796875 27.203125 33.9375 23.75 
Q 35.09375 20.296875 36.296875 16.90625 
L 36.703125 16.90625 
Q 37.90625 20.296875 38.953125 23.75 
Q 40 27.203125 41.203125 30.59375 
L 53.59375 65.59375 
L 63.703125 65.59375 
L 63.703125 0 
L 55.90625 0 
L 55.90625 36.09375 
Q 55.90625 40.5 56.296875 45.796875 
Q 56.703125 51.09375 57 55.5 
L 56.59375 55.5 
L 51.40625 40.59375 
L 39 6.59375 
L 33.5 6.59375 
L 21.09375 40.59375 
L 15.90625 55.5 
L 15.5 55.5 
Q 15.796875 51.09375 16.140625 45.796875 
Q 16.5 40.5 16.5 36.09375 
L 16.5 0 
L 9 0 
z
" id="SourceSansPro-Regular-77"/>
      <path d="M 3.796875 -15.203125 
Q 9.59375 -5.59375 12.4375 5.34375 
Q 15.296875 16.296875 15.296875 27.796875 
Q 15.296875 39.296875 12.4375 50.25 
Q 9.59375 61.203125 3.796875 70.796875 
L 8.90625 73.203125 
Q 15.09375 63.09375 18.59375 52.046875 
Q 22.09375 41 22.09375 27.796875 
Q 22.09375 14.59375 18.59375 3.5 
Q 15.09375 -7.59375 8.90625 -17.59375 
z
" id="SourceSansPro-Regular-41"/>
     </defs>
     <g style="fill:#242121;" transform="translate(78.017393 306.676562)scale(0.1 -0.1)">
      <use xlink:href="#SourceSansPro-Regular-82"/>
      <use x="56.899994" xlink:href="#SourceSansPro-Regular-101"/>
      <use x="106.499985" xlink:href="#SourceSansPro-Regular-115"/>
      <use x="148.399979" xlink:href="#SourceSansPro-Regular-112"/>
      <use x="203.899963" xlink:href="#SourceSansPro-Regular-111"/>
      <use x="258.09996" xlink:href="#SourceSansPro-Regular-110"/>
      <use x="312.799957" xlink:href="#SourceSansPro-Regular-115"/>
      <use x="354.699951" xlink:href="#SourceSansPro-Regular-101"/>
      <use x="404.299942" xlink:href="#SourceSansPro-Regular-32"/>
      <use x="424.299927" xlink:href="#SourceSansPro-Regular-116"/>
      <use x="458.099915" xlink:href="#SourceSansPro-Regular-105"/>
      <use x="482.699905" xlink:href="#SourceSansPro-Regular-109"/>
      <use x="565.599899" xlink:href="#SourceSansPro-Regular-101"/>
      <use x="615.19989" xlink:href="#SourceSansPro-Regular-32"/>
      <use x="635.199875" xlink:href="#SourceSansPro-Regular-40"/>
      <use x="665.499863" xlink:href="#SourceSansPro-Regular-77"/>
      <use x="738.199844" xlink:href="#SourceSansPro-Regular-105"/>
      <use x="762.799835" xlink:href="#SourceSansPro-Regular-110"/>
      <use x="817.499832" xlink:href="#SourceSansPro-Regular-115"/>
      <use x="859.399826" xlink:href="#SourceSansPro-Regular-41"/>
     </g>
    </g>
   </g>
   <g id="matplotlib.axis_2">
    <g id="ytick_1">
     <g id="line2d_6"/>
     <g id="text_7">
      <!-- 0.00 -->
      <defs>
       <path d="M 24.90625 -1.203125 
Q 15.203125 -1.203125 9.796875 7.390625 
Q 4.40625 16 4.40625 32.09375 
Q 4.40625 48.203125 9.796875 56.59375 
Q 15.203125 65 24.90625 65 
Q 34.5 65 39.890625 56.59375 
Q 45.296875 48.203125 45.296875 32.09375 
Q 45.296875 16 39.890625 7.390625 
Q 34.5 -1.203125 24.90625 -1.203125 
z
M 24.90625 5.40625 
Q 27.703125 5.40625 29.953125 6.953125 
Q 32.203125 8.5 33.84375 11.75 
Q 35.5 15 36.390625 20.046875 
Q 37.296875 25.09375 37.296875 32.09375 
Q 37.296875 39.09375 36.390625 44.09375 
Q 35.5 49.09375 33.84375 52.25 
Q 32.203125 55.40625 29.953125 56.90625 
Q 27.703125 58.40625 24.90625 58.40625 
Q 22.09375 58.40625 19.796875 56.90625 
Q 17.5 55.40625 15.84375 52.25 
Q 14.203125 49.09375 13.296875 44.09375 
Q 12.40625 39.09375 12.40625 32.09375 
Q 12.40625 18.09375 15.84375 11.75 
Q 19.296875 5.40625 24.90625 5.40625 
z
" id="SourceSansPro-Regular-48"/>
       <path d="M 12.5 -1.203125 
Q 10 -1.203125 8.25 0.546875 
Q 6.5 2.296875 6.5 5 
Q 6.5 7.90625 8.25 9.65625 
Q 10 11.40625 12.5 11.40625 
Q 14.90625 11.40625 16.65625 9.65625 
Q 18.40625 7.90625 18.40625 5 
Q 18.40625 2.296875 16.65625 0.546875 
Q 14.90625 -1.203125 12.5 -1.203125 
z
" id="SourceSansPro-Regular-46"/>
      </defs>
      <g style="fill:#242121;" transform="translate(24.273438 286.116406)scale(0.1 -0.1)">
       <use xlink:href="#SourceSansPro-Regular-48"/>
       <use x="49.699997" xlink:href="#SourceSansPro-Regular-46"/>
       <use x="74.599991" xlink:href="#SourceSansPro-Regular-48"/>
       <use x="124.299988" xlink:href="#SourceSansPro-Regular-48"/>
      </g>
     </g>
    </g>
    <g id="ytick_2">
     <g id="line2d_7"/>
     <g id="text_8">
      <!-- 0.05 -->
      <defs>
       <path d="M 23.40625 -1.203125 
Q 19.59375 -1.203125 16.4375 -0.453125 
Q 13.296875 0.296875 10.75 1.5 
Q 8.203125 2.703125 6.140625 4.25 
Q 4.09375 5.796875 2.5 7.5 
L 6.5 12.90625 
Q 9.296875 10 13.140625 7.796875 
Q 17 5.59375 22.59375 5.59375 
Q 25.5 5.59375 28.046875 6.640625 
Q 30.59375 7.703125 32.5 9.59375 
Q 34.40625 11.5 35.5 14.203125 
Q 36.59375 16.90625 36.59375 20.203125 
Q 36.59375 26.796875 32.890625 30.5 
Q 29.203125 34.203125 23 34.203125 
Q 19.703125 34.203125 17.34375 33.203125 
Q 15 32.203125 12.09375 30.296875 
L 7.703125 33.09375 
L 9.796875 63.796875 
L 41.703125 63.796875 
L 41.703125 56.703125 
L 17 56.703125 
L 15.296875 37.796875 
Q 17.59375 39 19.890625 39.703125 
Q 22.203125 40.40625 25.09375 40.40625 
Q 29.203125 40.40625 32.796875 39.203125 
Q 36.40625 38 39.09375 35.546875 
Q 41.796875 33.09375 43.34375 29.34375 
Q 44.90625 25.59375 44.90625 20.40625 
Q 44.90625 15.203125 43.09375 11.203125 
Q 41.296875 7.203125 38.296875 4.453125 
Q 35.296875 1.703125 31.4375 0.25 
Q 27.59375 -1.203125 23.40625 -1.203125 
z
" id="SourceSansPro-Regular-53"/>
      </defs>
      <g style="fill:#242121;" transform="translate(24.273438 257.069982)scale(0.1 -0.1)">
       <use xlink:href="#SourceSansPro-Regular-48"/>
       <use x="49.699997" xlink:href="#SourceSansPro-Regular-46"/>
       <use x="74.599991" xlink:href="#SourceSansPro-Regular-48"/>
       <use x="124.299988" xlink:href="#SourceSansPro-Regular-53"/>
      </g>
     </g>
    </g>
    <g id="ytick_3">
     <g id="line2d_8"/>
     <g id="text_9">
      <!-- 0.10 -->
      <defs>
       <path d="M 7.90625 6.796875 
L 22.5 6.796875 
L 22.5 53.796875 
L 10.90625 53.796875 
L 10.90625 59.09375 
Q 15.296875 59.90625 18.546875 61.046875 
Q 21.796875 62.203125 24.40625 63.796875 
L 30.703125 63.796875 
L 30.703125 6.796875 
L 43.90625 6.796875 
L 43.90625 0 
L 7.90625 0 
z
" id="SourceSansPro-Regular-49"/>
      </defs>
      <g style="fill:#242121;" transform="translate(24.273438 228.023557)scale(0.1 -0.1)">
       <use xlink:href="#SourceSansPro-Regular-48"/>
       <use x="49.699997" xlink:href="#SourceSansPro-Regular-46"/>
       <use x="74.599991" xlink:href="#SourceSansPro-Regular-49"/>
       <use x="124.299988" xlink:href="#SourceSansPro-Regular-48"/>
      </g>
     </g>
    </g>
    <g id="ytick_4">
     <g id="line2d_9"/>
     <g id="text_10">
      <!-- 0.15 -->
      <g style="fill:#242121;" transform="translate(24.273438 198.977133)scale(0.1 -0.1)">
       <use xlink:href="#SourceSansPro-Regular-48"/>
       <use x="49.699997" xlink:href="#SourceSansPro-Regular-46"/>
       <use x="74.599991" xlink:href="#SourceSansPro-Regular-49"/>
       <use x="124.299988" xlink:href="#SourceSansPro-Regular-53"/>
      </g>
     </g>
    </g>
    <g id="ytick_5">
     <g id="line2d_10"/>
     <g id="text_11">
      <!-- 0.20 -->
      <defs>
       <path d="M 4 4.90625 
Q 11.203125 12.09375 16.796875 17.890625 
Q 22.40625 23.703125 26.203125 28.640625 
Q 30 33.59375 32 37.75 
Q 34 41.90625 34 45.796875 
Q 34 51.296875 31 54.796875 
Q 28 58.296875 21.90625 58.296875 
Q 17.90625 58.296875 14.5 56.046875 
Q 11.09375 53.796875 8.296875 50.59375 
L 3.59375 55.296875 
Q 7.59375 59.703125 12.09375 62.34375 
Q 16.59375 65 22.90625 65 
Q 31.796875 65 36.890625 59.84375 
Q 42 54.703125 42 46.203125 
Q 42 41.703125 40.046875 37.140625 
Q 38.09375 32.59375 34.640625 27.75 
Q 31.203125 22.90625 26.453125 17.65625 
Q 21.703125 12.40625 16 6.5 
Q 18.59375 6.703125 21.390625 6.890625 
Q 24.203125 7.09375 26.703125 7.09375 
L 45.203125 7.09375 
L 45.203125 0 
L 4 0 
z
" id="SourceSansPro-Regular-50"/>
      </defs>
      <g style="fill:#242121;" transform="translate(24.273438 169.930709)scale(0.1 -0.1)">
       <use xlink:href="#SourceSansPro-Regular-48"/>
       <use x="49.699997" xlink:href="#SourceSansPro-Regular-46"/>
       <use x="74.599991" xlink:href="#SourceSansPro-Regular-50"/>
       <use x="124.299988" xlink:href="#SourceSansPro-Regular-48"/>
      </g>
     </g>
    </g>
    <g id="ytick_6">
     <g id="line2d_11"/>
     <g id="text_12">
      <!-- 0.25 -->
      <g style="fill:#242121;" transform="translate(24.273438 140.884284)scale(0.1 -0.1)">
       <use xlink:href="#SourceSansPro-Regular-48"/>
       <use x="49.699997" xlink:href="#SourceSansPro-Regular-46"/>
       <use x="74.599991" xlink:href="#SourceSansPro-Regular-50"/>
       <use x="124.299988" xlink:href="#SourceSansPro-Regular-53"/>
      </g>
     </g>
    </g>
    <g id="ytick_7">
     <g id="line2d_12"/>
     <g id="text_13">
      <!-- 0.30 -->
      <defs>
       <path d="M 23.59375 -1.203125 
Q 19.796875 -1.203125 16.640625 -0.453125 
Q 13.5 0.296875 10.890625 1.546875 
Q 8.296875 2.796875 6.25 4.390625 
Q 4.203125 6 2.59375 7.796875 
L 6.796875 13.203125 
Q 9.703125 10.203125 13.546875 7.890625 
Q 17.40625 5.59375 23.09375 5.59375 
Q 28.90625 5.59375 32.59375 8.75 
Q 36.296875 11.90625 36.296875 17.296875 
Q 36.296875 20.09375 35.25 22.4375 
Q 34.203125 24.796875 31.796875 26.5 
Q 29.40625 28.203125 25.5 29.09375 
Q 21.59375 30 15.90625 30 
L 15.90625 36.296875 
Q 21 36.296875 24.453125 37.1875 
Q 27.90625 38.09375 30.046875 39.6875 
Q 32.203125 41.296875 33.09375 43.5 
Q 34 45.703125 34 48.203125 
Q 34 52.90625 31.046875 55.59375 
Q 28.09375 58.296875 23 58.296875 
Q 19 58.296875 15.640625 56.5 
Q 12.296875 54.703125 9.40625 51.796875 
L 5 57 
Q 8.703125 60.5 13.140625 62.75 
Q 17.59375 65 23.296875 65 
Q 27.5 65 31 63.890625 
Q 34.5 62.796875 37.046875 60.75 
Q 39.59375 58.703125 41 55.703125 
Q 42.40625 52.703125 42.40625 48.796875 
Q 42.40625 43 39.203125 39.296875 
Q 36 35.59375 30.796875 33.59375 
L 30.796875 33.203125 
Q 33.703125 32.5 36.203125 31.140625 
Q 38.703125 29.796875 40.59375 27.75 
Q 42.5 25.703125 43.546875 23 
Q 44.59375 20.296875 44.59375 17 
Q 44.59375 12.796875 42.9375 9.390625 
Q 41.296875 6 38.4375 3.640625 
Q 35.59375 1.296875 31.796875 0.046875 
Q 28 -1.203125 23.59375 -1.203125 
z
" id="SourceSansPro-Regular-51"/>
      </defs>
      <g style="fill:#242121;" transform="translate(24.273438 111.83786)scale(0.1 -0.1)">
       <use xlink:href="#SourceSansPro-Regular-48"/>
       <use x="49.699997" xlink:href="#SourceSansPro-Regular-46"/>
       <use x="74.599991" xlink:href="#SourceSansPro-Regular-51"/>
       <use x="124.299988" xlink:href="#SourceSansPro-Regular-48"/>
      </g>
     </g>
    </g>
    <g id="ytick_8">
     <g id="line2d_13"/>
     <g id="text_14">
      <!-- 0.35 -->
      <g style="fill:#242121;" transform="translate(24.273438 82.791435)scale(0.1 -0.1)">
       <use xlink:href="#SourceSansPro-Regular-48"/>
       <use x="49.699997" xlink:href="#SourceSansPro-Regular-46"/>
       <use x="74.599991" xlink:href="#SourceSansPro-Regular-51"/>
       <use x="124.299988" xlink:href="#SourceSansPro-Regular-53"/>
      </g>
     </g>
    </g>
    <g id="ytick_9">
     <g id="line2d_14"/>
     <g id="text_15">
      <!-- 0.40 -->
      <defs>
       <path d="M 30.40625 24.203125 
L 30.40625 42.703125 
Q 30.40625 45.296875 30.546875 48.84375 
Q 30.703125 52.40625 30.90625 55 
L 30.5 55 
Q 29.296875 52.703125 28 50.5 
Q 26.703125 48.296875 25.296875 46 
L 10.40625 24.203125 
z
M 46.90625 17.59375 
L 38.203125 17.59375 
L 38.203125 0 
L 30.40625 0 
L 30.40625 17.59375 
L 1.703125 17.59375 
L 1.703125 23 
L 29 63.796875 
L 38.203125 63.796875 
L 38.203125 24.203125 
L 46.90625 24.203125 
z
" id="SourceSansPro-Regular-52"/>
      </defs>
      <g style="fill:#242121;" transform="translate(24.273438 53.745011)scale(0.1 -0.1)">
       <use xlink:href="#SourceSansPro-Regular-48"/>
       <use x="49.699997" xlink:href="#SourceSansPro-Regular-46"/>
       <use x="74.599991" xlink:href="#SourceSansPro-Regular-52"/>
       <use x="124.299988" xlink:href="#SourceSansPro-Regular-48"/>
      </g>
     </g>
    </g>
    <g id="text_16">
     <!-- Relative frequency -->
     <defs>
      <path d="M 16.90625 -1.203125 
Q 12.203125 -1.203125 10.203125 1.59375 
Q 8.203125 4.40625 8.203125 9.796875 
L 8.203125 71.203125 
L 16.40625 71.203125 
L 16.40625 9.203125 
Q 16.40625 7.203125 17.09375 6.390625 
Q 17.796875 5.59375 18.703125 5.59375 
Q 19.09375 5.59375 19.4375 5.59375 
Q 19.796875 5.59375 20.5 5.796875 
L 21.59375 -0.40625 
Q 20.796875 -0.796875 19.6875 -1 
Q 18.59375 -1.203125 16.90625 -1.203125 
z
" id="SourceSansPro-Regular-108"/>
      <path d="M 19.40625 -1.203125 
Q 13.296875 -1.203125 9.25 2.390625 
Q 5.203125 6 5.203125 12.59375 
Q 5.203125 20.59375 12.296875 24.84375 
Q 19.40625 29.09375 35 30.796875 
Q 35 33.09375 34.546875 35.296875 
Q 34.09375 37.5 33 39.203125 
Q 31.90625 40.90625 29.953125 41.953125 
Q 28 43 25 43 
Q 20.796875 43 17.09375 41.390625 
Q 13.40625 39.796875 10.5 37.796875 
L 7.296875 43.5 
Q 10.703125 45.703125 15.59375 47.75 
Q 20.5 49.796875 26.40625 49.796875 
Q 35.296875 49.796875 39.296875 44.34375 
Q 43.296875 38.90625 43.296875 29.796875 
L 43.296875 0 
L 36.5 0 
L 35.796875 5.796875 
L 35.5 5.796875 
Q 32 2.90625 28 0.84375 
Q 24 -1.203125 19.40625 -1.203125 
z
M 21.796875 5.40625 
Q 25.296875 5.40625 28.390625 7.046875 
Q 31.5 8.703125 35 11.90625 
L 35 25.40625 
Q 28.90625 24.59375 24.75 23.5 
Q 20.59375 22.40625 18.046875 20.90625 
Q 15.5 19.40625 14.34375 17.453125 
Q 13.203125 15.5 13.203125 13.203125 
Q 13.203125 9 15.703125 7.203125 
Q 18.203125 5.40625 21.796875 5.40625 
z
" id="SourceSansPro-Regular-97"/>
      <path d="M 1.203125 48.59375 
L 9.703125 48.59375 
L 18.90625 21 
Q 20 17.40625 21.140625 13.796875 
Q 22.296875 10.203125 23.40625 6.703125 
L 23.796875 6.703125 
Q 24.90625 10.203125 26 13.796875 
Q 27.09375 17.40625 28.203125 21 
L 37.40625 48.59375 
L 45.5 48.59375 
L 28.296875 0 
L 18.703125 0 
z
" id="SourceSansPro-Regular-118"/>
      <path d="M 30.09375 64.5 
Q 27.40625 65.703125 24.59375 65.703125 
Q 17.796875 65.703125 17.796875 56.296875 
L 17.796875 48.59375 
L 28.09375 48.59375 
L 28.09375 41.90625 
L 17.796875 41.90625 
L 17.796875 0 
L 9.59375 0 
L 9.59375 41.90625 
L 3 41.90625 
L 3 48.09375 
L 9.59375 48.59375 
L 9.59375 56.296875 
Q 9.59375 63.796875 13.046875 68.09375 
Q 16.5 72.40625 23.796875 72.40625 
Q 26.09375 72.40625 28.140625 71.953125 
Q 30.203125 71.5 31.90625 70.796875 
z
" id="SourceSansPro-Regular-102"/>
      <path d="M 8.203125 48.59375 
L 15 48.59375 
L 15.703125 39.796875 
L 16 39.796875 
Q 18.5 44.40625 22.046875 47.09375 
Q 25.59375 49.796875 29.796875 49.796875 
Q 32.703125 49.796875 35 48.796875 
L 33.40625 41.59375 
Q 32.203125 42 31.203125 42.203125 
Q 30.203125 42.40625 28.703125 42.40625 
Q 25.59375 42.40625 22.25 39.90625 
Q 18.90625 37.40625 16.40625 31.203125 
L 16.40625 0 
L 8.203125 0 
z
" id="SourceSansPro-Regular-114"/>
      <path d="M 39 -3.203125 
L 39.40625 5.59375 
Q 36.5 2.703125 32.75 0.75 
Q 29 -1.203125 24.796875 -1.203125 
Q 15.59375 -1.203125 10.140625 5.390625 
Q 4.703125 12 4.703125 24.203125 
Q 4.703125 30.09375 6.453125 34.84375 
Q 8.203125 39.59375 11.09375 42.890625 
Q 14 46.203125 17.796875 48 
Q 21.59375 49.796875 25.796875 49.796875 
Q 30 49.796875 33.203125 48.34375 
Q 36.40625 46.90625 39.703125 44 
L 39.90625 44 
L 40.703125 48.59375 
L 47.296875 48.59375 
L 47.296875 -20.5 
L 39 -20.5 
z
M 26.59375 5.703125 
Q 30 5.703125 33 7.34375 
Q 36 9 39 12.40625 
L 39 37.796875 
Q 35.90625 40.59375 33.046875 41.75 
Q 30.203125 42.90625 27.203125 42.90625 
Q 24.296875 42.90625 21.75 41.546875 
Q 19.203125 40.203125 17.296875 37.75 
Q 15.40625 35.296875 14.296875 31.890625 
Q 13.203125 28.5 13.203125 24.296875 
Q 13.203125 15.5 16.703125 10.59375 
Q 20.203125 5.703125 26.59375 5.703125 
z
" id="SourceSansPro-Regular-113"/>
      <path d="M 22.40625 -1.203125 
Q 14.59375 -1.203125 11.046875 3.59375 
Q 7.5 8.40625 7.5 17.796875 
L 7.5 48.59375 
L 15.796875 48.59375 
L 15.796875 18.90625 
Q 15.796875 12 17.9375 8.953125 
Q 20.09375 5.90625 24.90625 5.90625 
Q 28.703125 5.90625 31.59375 7.84375 
Q 34.5 9.796875 38 14.09375 
L 38 48.59375 
L 46.203125 48.59375 
L 46.203125 0 
L 39.40625 0 
L 38.703125 7.59375 
L 38.40625 7.59375 
Q 35 3.59375 31.25 1.1875 
Q 27.5 -1.203125 22.40625 -1.203125 
z
" id="SourceSansPro-Regular-117"/>
      <path d="M 27.40625 -1.203125 
Q 22.59375 -1.203125 18.390625 0.5 
Q 14.203125 2.203125 11.140625 5.453125 
Q 8.09375 8.703125 6.34375 13.453125 
Q 4.59375 18.203125 4.59375 24.203125 
Q 4.59375 30.296875 6.5 35.046875 
Q 8.40625 39.796875 11.59375 43.09375 
Q 14.796875 46.40625 19.046875 48.09375 
Q 23.296875 49.796875 28 49.796875 
Q 32.796875 49.796875 36.1875 48.09375 
Q 39.59375 46.40625 42.203125 44.09375 
L 38 38.703125 
Q 35.90625 40.59375 33.546875 41.796875 
Q 31.203125 43 28.296875 43 
Q 25 43 22.203125 41.640625 
Q 19.40625 40.296875 17.40625 37.796875 
Q 15.40625 35.296875 14.25 31.84375 
Q 13.09375 28.40625 13.09375 24.203125 
Q 13.09375 20 14.1875 16.59375 
Q 15.296875 13.203125 17.25 10.75 
Q 19.203125 8.296875 22 6.9375 
Q 24.796875 5.59375 28.09375 5.59375 
Q 31.5 5.59375 34.34375 7.046875 
Q 37.203125 8.5 39.5 10.5 
L 43.09375 5 
Q 39.796875 2.09375 35.796875 0.4375 
Q 31.796875 -1.203125 27.40625 -1.203125 
z
" id="SourceSansPro-Regular-99"/>
      <path d="M 9 -20.90625 
Q 7.296875 -20.90625 5.890625 -20.65625 
Q 4.5 -20.40625 3.296875 -19.90625 
L 4.90625 -13.40625 
Q 5.703125 -13.59375 6.703125 -13.84375 
Q 7.703125 -14.09375 8.59375 -14.09375 
Q 12.796875 -14.09375 15.4375 -11.140625 
Q 18.09375 -8.203125 19.59375 -3.703125 
L 20.703125 -0.09375 
L 1.203125 48.59375 
L 9.703125 48.59375 
L 19.59375 21.703125 
Q 20.703125 18.5 21.953125 14.953125 
Q 23.203125 11.40625 24.296875 8 
L 24.703125 8 
Q 25.796875 11.296875 26.796875 14.890625 
Q 27.796875 18.5 28.796875 21.703125 
L 37.5 48.59375 
L 45.5 48.59375 
L 27.203125 -4 
Q 25.90625 -7.59375 24.296875 -10.6875 
Q 22.703125 -13.796875 20.5 -16.046875 
Q 18.296875 -18.296875 15.5 -19.59375 
Q 12.703125 -20.90625 9 -20.90625 
z
" id="SourceSansPro-Regular-121"/>
     </defs>
     <g style="fill:#242121;" transform="translate(18.182813 193.532813)rotate(-90)scale(0.1 -0.1)">
      <use xlink:href="#SourceSansPro-Regular-82"/>
      <use x="56.899994" xlink:href="#SourceSansPro-Regular-101"/>
      <use x="106.499985" xlink:href="#SourceSansPro-Regular-108"/>
      <use x="131.999969" xlink:href="#SourceSansPro-Regular-97"/>
      <use x="182.399963" xlink:href="#SourceSansPro-Regular-116"/>
      <use x="216.199951" xlink:href="#SourceSansPro-Regular-105"/>
      <use x="240.799942" xlink:href="#SourceSansPro-Regular-118"/>
      <use x="287.499939" xlink:href="#SourceSansPro-Regular-101"/>
      <use x="337.09993" xlink:href="#SourceSansPro-Regular-32"/>
      <use x="357.099915" xlink:href="#SourceSansPro-Regular-102"/>
      <use x="386.299911" xlink:href="#SourceSansPro-Regular-114"/>
      <use x="420.999908" xlink:href="#SourceSansPro-Regular-101"/>
      <use x="470.599899" xlink:href="#SourceSansPro-Regular-113"/>
      <use x="526.099884" xlink:href="#SourceSansPro-Regular-117"/>
      <use x="580.499878" xlink:href="#SourceSansPro-Regular-101"/>
      <use x="630.099869" xlink:href="#SourceSansPro-Regular-110"/>
      <use x="684.799866" xlink:href="#SourceSansPro-Regular-99"/>
      <use x="730.399857" xlink:href="#SourceSansPro-Regular-121"/>
     </g>
    </g>
   </g>
   <g id="line2d_15">
    <path clip-path="url(#p134af6413c)" d="M 69.182851 280.851936 
L 69.894372 280.236126 
L 70.605893 279.259685 
L 71.317413 277.834937 
L 72.028934 275.851466 
L 72.740455 273.180811 
L 73.451975 269.683849 
L 74.163496 265.221157 
L 74.875016 259.666244 
L 75.586537 252.920931 
L 77.009578 235.703962 
L 78.43262 213.919679 
L 83.413264 130.500704 
L 84.836305 114.261388 
L 85.547826 108.077635 
L 86.259347 103.054627 
L 86.970867 99.018535 
L 87.682388 95.766371 
L 89.105429 90.822413 
L 90.528471 86.983868 
L 91.951512 83.788345 
L 92.663032 82.493706 
L 93.374553 81.492117 
L 94.086074 80.860477 
L 94.797594 80.664832 
L 95.509115 80.949243 
L 96.220636 81.729076 
L 96.932156 82.988927 
L 97.643677 84.68481 
L 99.066718 89.101353 
L 104.758883 109.400564 
L 106.893445 115.719341 
L 109.739528 123.419084 
L 111.162569 126.844522 
L 112.58561 129.725569 
L 114.008652 131.87545 
L 114.720172 132.655338 
L 115.431693 133.253278 
L 116.854734 134.03194 
L 118.989296 134.913387 
L 119.700817 135.360298 
L 120.412337 135.967897 
L 121.123858 136.769482 
L 121.835379 137.782192 
L 123.25842 140.421396 
L 124.681461 143.680249 
L 126.816023 148.779902 
L 128.239064 151.521428 
L 128.950585 152.480772 
L 129.662106 153.074208 
L 130.373626 153.237717 
L 131.085147 152.9138 
L 131.796668 152.055205 
L 132.508188 150.630161 
L 133.219709 148.629002 
L 133.93123 146.071708 
L 135.354271 139.561235 
L 137.488833 128.531025 
L 138.200353 125.421138 
L 138.911874 123.062419 
L 139.623395 121.744524 
L 140.334915 121.733114 
L 141.046436 123.246843 
L 141.757957 126.436321 
L 142.469477 131.367606 
L 143.180998 138.012403 
L 143.892518 146.246428 
L 145.31556 166.555227 
L 149.584684 234.16091 
L 151.007725 251.11807 
L 151.719246 257.902654 
L 152.430766 263.57725 
L 153.142287 268.214353 
L 153.853807 271.916646 
L 154.565328 274.803568 
L 155.276849 276.99929 
L 155.988369 278.622784 
L 156.69989 279.78022 
L 157.411411 280.559563 
L 158.122931 281.027 
L 158.834452 281.224704 
L 159.545973 281.169476 
L 159.545973 281.169476 
" style="fill:none;stroke:#1f77b4;stroke-linecap:round;stroke-width:1.5;"/>
   </g>
   <g id="line2d_16">
    <path clip-path="url(#p134af6413c)" d="M 68.863025 281.299363 
L 69.57949 280.818748 
L 70.295955 280.074143 
L 71.012421 278.997238 
L 71.728886 277.502599 
L 72.445351 275.49024 
L 73.161817 272.850009 
L 73.878282 269.467992 
L 74.594747 265.234912 
L 75.311213 260.056115 
L 76.027678 253.862313 
L 77.460609 238.339521 
L 78.893539 218.954289 
L 81.042935 185.076136 
L 83.908797 139.248715 
L 86.058193 109.340493 
L 87.491123 91.979036 
L 88.924054 76.479002 
L 90.356985 62.908416 
L 91.789915 51.745237 
L 92.506381 47.295493 
L 93.222846 43.726643 
L 93.939311 41.115539 
L 94.655777 39.512719 
L 95.372242 38.935724 
L 96.088707 39.365886 
L 96.805173 40.748584 
L 97.521638 42.996496 
L 98.238103 45.995123 
L 99.671034 53.692923 
L 103.969826 79.888771 
L 105.402757 86.507593 
L 106.119222 89.126944 
L 106.835687 91.281331 
L 107.552153 93.000152 
L 108.268618 94.338081 
L 108.985083 95.372572 
L 110.418014 96.930092 
L 111.850945 98.566468 
L 112.56741 99.698357 
L 113.283875 101.169173 
L 114.000341 103.050319 
L 114.716806 105.385701 
L 116.149737 111.437879 
L 117.582667 119.045343 
L 121.164994 139.634228 
L 122.597925 146.127733 
L 123.31439 148.698585 
L 124.030855 150.801573 
L 124.747321 152.462145 
L 125.463786 153.732217 
L 126.180251 154.68388 
L 127.613182 155.972906 
L 129.762578 157.572257 
L 131.195509 159.009369 
L 132.62844 160.809594 
L 136.927232 166.793283 
L 138.360162 169.331781 
L 139.076628 171.020231 
L 139.793093 173.135413 
L 140.509558 175.785666 
L 141.226024 179.063772 
L 141.942489 183.035685 
L 143.37542 193.13675 
L 144.80835 205.802532 
L 149.823608 254.022409 
L 151.256538 264.011283 
L 151.973004 267.996295 
L 152.689469 271.327916 
L 153.405934 274.051454 
L 154.1224 276.228073 
L 154.838865 277.927505 
L 155.55533 279.221431 
L 156.271796 280.177921 
L 156.988261 280.857073 
L 157.704726 281.307776 
L 158.421192 281.565407 
L 159.137657 281.650195 
L 159.854122 281.566001 
L 159.854122 281.566001 
" style="fill:none;stroke:#ff7f0e;stroke-linecap:round;stroke-width:1.5;"/>
   </g>
   <g id="line2d_17">
    <path clip-path="url(#p134af6413c)" d="M 67.533279 280.956302 
L 68.269946 280.462297 
L 69.006612 279.679891 
L 69.743278 278.54764 
L 70.479944 276.987142 
L 71.21661 274.905839 
L 71.953276 272.20131 
L 72.689942 268.767331 
L 73.426608 264.501698 
L 74.163274 259.315605 
L 74.89994 253.143979 
L 76.373272 237.763838 
L 77.846604 218.672627 
L 80.056602 185.744358 
L 82.2666 153.388362 
L 83.739932 135.205593 
L 85.213264 120.87175 
L 86.686596 110.259511 
L 88.159928 102.498452 
L 89.63326 96.48887 
L 91.106592 91.411592 
L 92.579924 86.996667 
L 94.053256 83.469726 
L 94.789922 82.177378 
L 95.526588 81.269082 
L 96.263254 80.778903 
L 96.99992 80.719388 
L 97.736586 81.079753 
L 98.473252 81.827255 
L 99.209918 82.911256 
L 100.68325 85.833559 
L 102.893248 91.160174 
L 106.576578 100.61496 
L 108.04991 104.937153 
L 109.523242 109.949907 
L 110.996574 115.739019 
L 113.943238 128.797874 
L 116.153236 138.232483 
L 117.626568 143.630494 
L 119.0999 148.144218 
L 120.573232 151.847201 
L 122.046564 154.916129 
L 123.519896 157.507895 
L 124.993228 159.654246 
L 125.729894 160.521417 
L 126.46656 161.207271 
L 127.203226 161.666313 
L 127.939892 161.845767 
L 128.676558 161.688741 
L 129.413224 161.13816 
L 130.14989 160.14142 
L 130.886556 158.655721 
L 131.623222 156.653948 
L 132.359888 154.130853 
L 133.83322 147.64497 
L 137.51655 128.313574 
L 138.253216 125.451124 
L 138.989882 123.487328 
L 139.726548 122.657643 
L 140.463214 123.164561 
L 141.19988 125.161002 
L 141.936546 128.736329 
L 142.673212 133.906551 
L 143.409878 140.60998 
L 144.88321 157.998073 
L 146.356542 179.068333 
L 149.303206 222.666848 
L 150.776538 241.026983 
L 152.24987 255.540681 
L 152.986536 261.290044 
L 153.723202 266.086576 
L 154.459868 270.007161 
L 155.196534 273.14659 
L 155.9332 275.60802 
L 156.669866 277.494739 
L 157.406532 278.903555 
L 158.143198 279.919834 
L 158.879864 280.614052 
L 159.61653 281.039558 
L 160.353196 281.231239 
L 161.089862 281.204779 
L 161.089862 281.204779 
" style="fill:none;stroke:#2ca02c;stroke-linecap:round;stroke-width:1.5;"/>
   </g>
   <g id="line2d_18">
    <path clip-path="url(#p134af6413c)" d="M 69.0058 281.316787 
L 69.719879 280.855246 
L 70.433957 280.132645 
L 71.148036 279.083182 
L 71.862115 277.624194 
L 72.576194 275.659005 
L 73.290272 273.081608 
L 74.004351 269.783411 
L 74.71843 265.66201 
L 75.432509 260.631555 
L 76.146587 254.633895 
L 77.574745 239.705041 
L 79.002902 221.310158 
L 84.001454 151.263992 
L 85.429611 136.18907 
L 86.857769 124.509307 
L 88.285926 115.760902 
L 89.714084 109.235689 
L 91.142241 104.320106 
L 92.570399 100.642587 
L 93.284477 99.210447 
L 93.998556 98.032759 
L 94.712635 97.098227 
L 95.426714 96.392468 
L 96.140792 95.896157 
L 96.854871 95.584551 
L 97.56895 95.428254 
L 98.997107 95.45188 
L 101.139344 95.879717 
L 105.423816 96.742545 
L 107.566052 97.00062 
L 108.99421 96.878617 
L 109.708289 96.656251 
L 110.422367 96.297711 
L 111.136446 95.790238 
L 112.564604 94.328016 
L 113.992761 92.376826 
L 116.849076 88.122002 
L 118.277234 86.551737 
L 118.991312 86.081987 
L 119.705391 85.893835 
L 120.41947 86.042293 
L 121.133549 86.581914 
L 121.847627 87.564132 
L 122.561706 89.03354 
L 123.275785 91.023466 
L 123.989864 93.551397 
L 124.703942 96.614895 
L 126.1321 104.223266 
L 127.560257 113.362931 
L 131.130651 137.315691 
L 132.558809 144.999564 
L 133.272887 148.126955 
L 133.986966 150.751737 
L 134.701045 152.894777 
L 135.415124 154.611016 
L 136.843281 157.148893 
L 138.271439 159.42061 
L 138.985517 160.875567 
L 139.699596 162.777175 
L 140.413675 165.285848 
L 141.127754 168.534019 
L 141.841832 172.613926 
L 142.555911 177.567955 
L 143.984069 189.988662 
L 145.412226 205.039315 
L 148.98262 244.341984 
L 150.410777 256.913919 
L 151.838935 266.519695 
L 152.553014 270.2114 
L 153.267092 273.223684 
L 153.981171 275.626583 
L 154.69525 277.499407 
L 155.409329 278.923362 
L 156.123407 279.975434 
L 156.837486 280.72368 
L 157.551565 281.223838 
L 158.265644 281.517005 
L 158.979722 281.628096 
L 159.693801 281.564794 
L 159.693801 281.564794 
" style="fill:none;stroke:#d62728;stroke-linecap:round;stroke-width:1.5;"/>
   </g>
   <g id="patch_3">
    <path d="M 45.175 282.55625 
L 45.175 26.8 
" style="fill:none;"/>
   </g>
   <g id="patch_4">
    <path d="M 199.830098 282.55625 
L 199.830098 26.8 
" style="fill:none;"/>
   </g>
   <g id="patch_5">
    <path d="M 45.175 282.55625 
L 199.830098 282.55625 
" style="fill:none;"/>
   </g>
   <g id="patch_6">
    <path d="M 45.175 26.8 
L 199.830098 26.8 
" style="fill:none;"/>
   </g>
   <g id="text_17">
    <!-- Response time distribution -->
    <defs>
     <path d="M 19.90625 34.796875 
L 29.203125 34.796875 
Q 35.90625 34.796875 39.453125 37.59375 
Q 43 40.40625 43 46 
Q 43 51.703125 39.453125 53.890625 
Q 35.90625 56.09375 29.203125 56.09375 
L 19.90625 56.09375 
z
M 44 0 
L 29.90625 25.59375 
L 19.90625 25.59375 
L 19.90625 0 
L 8.296875 0 
L 8.296875 65.40625 
L 30.40625 65.40625 
Q 35.5 65.40625 39.890625 64.40625 
Q 44.296875 63.40625 47.5 61.15625 
Q 50.703125 58.90625 52.546875 55.203125 
Q 54.40625 51.5 54.40625 46 
Q 54.40625 38.5 50.84375 33.890625 
Q 47.296875 29.296875 41.40625 27.296875 
L 57 0 
z
" id="SourceSansPro-Semibold-82"/>
     <path d="M 28.296875 -1.203125 
Q 23.203125 -1.203125 18.796875 0.546875 
Q 14.40625 2.296875 11.09375 5.59375 
Q 7.796875 8.90625 5.9375 13.65625 
Q 4.09375 18.40625 4.09375 24.5 
Q 4.09375 30.5 6 35.296875 
Q 7.90625 40.09375 11.046875 43.390625 
Q 14.203125 46.703125 18.296875 48.5 
Q 22.40625 50.296875 26.703125 50.296875 
Q 31.703125 50.296875 35.5 48.59375 
Q 39.296875 46.90625 41.84375 43.796875 
Q 44.40625 40.703125 45.703125 36.390625 
Q 47 32.09375 47 27 
Q 47 25.296875 46.84375 23.796875 
Q 46.703125 22.296875 46.5 21.40625 
L 15.296875 21.40625 
Q 16.09375 14.796875 19.9375 11.25 
Q 23.796875 7.703125 29.796875 7.703125 
Q 33 7.703125 35.75 8.640625 
Q 38.5 9.59375 41.203125 11.296875 
L 45.09375 4.09375 
Q 41.59375 1.796875 37.296875 0.296875 
Q 33 -1.203125 28.296875 -1.203125 
z
M 37 29.203125 
Q 37 34.90625 34.546875 38.15625 
Q 32.09375 41.40625 27 41.40625 
Q 22.59375 41.40625 19.296875 38.296875 
Q 16 35.203125 15.203125 29.203125 
z
" id="SourceSansPro-Semibold-101"/>
     <path d="M 21 -1.203125 
Q 15.90625 -1.203125 10.953125 0.75 
Q 6 2.703125 2.40625 5.59375 
L 7.796875 13 
Q 11.09375 10.40625 14.34375 8.953125 
Q 17.59375 7.5 21.40625 7.5 
Q 25.40625 7.5 27.296875 9.140625 
Q 29.203125 10.796875 29.203125 13.40625 
Q 29.203125 14.90625 28.296875 16.046875 
Q 27.40625 17.203125 25.90625 18.09375 
Q 24.40625 19 22.5 19.75 
Q 20.59375 20.5 18.703125 21.296875 
Q 16.296875 22.203125 13.796875 23.390625 
Q 11.296875 24.59375 9.34375 26.296875 
Q 7.40625 28 6.15625 30.25 
Q 4.90625 32.5 4.90625 35.59375 
Q 4.90625 42.09375 9.703125 46.1875 
Q 14.5 50.296875 22.796875 50.296875 
Q 27.90625 50.296875 32 48.5 
Q 36.09375 46.703125 39.09375 44.40625 
L 33.796875 37.40625 
Q 31.203125 39.296875 28.546875 40.4375 
Q 25.90625 41.59375 23 41.59375 
Q 19.296875 41.59375 17.546875 40.046875 
Q 15.796875 38.5 15.796875 36.203125 
Q 15.796875 34.703125 16.640625 33.640625 
Q 17.5 32.59375 18.890625 31.796875 
Q 20.296875 31 22.140625 30.296875 
Q 24 29.59375 26 28.90625 
Q 28.5 28 31 26.84375 
Q 33.5 25.703125 35.546875 24 
Q 37.59375 22.296875 38.84375 19.84375 
Q 40.09375 17.40625 40.09375 14 
Q 40.09375 10.796875 38.84375 8.046875 
Q 37.59375 5.296875 35.1875 3.25 
Q 32.796875 1.203125 29.1875 0 
Q 25.59375 -1.203125 21 -1.203125 
z
" id="SourceSansPro-Semibold-115"/>
     <path d="M 7.296875 49.09375 
L 16.796875 49.09375 
L 17.59375 43.90625 
L 18 43.90625 
Q 21.09375 46.5 24.890625 48.390625 
Q 28.703125 50.296875 32.796875 50.296875 
Q 37.40625 50.296875 40.953125 48.546875 
Q 44.5 46.796875 47 43.5 
Q 49.5 40.203125 50.796875 35.59375 
Q 52.09375 31 52.09375 25.296875 
Q 52.09375 19 50.34375 14.046875 
Q 48.59375 9.09375 45.6875 5.75 
Q 42.796875 2.40625 39 0.59375 
Q 35.203125 -1.203125 31.09375 -1.203125 
Q 27.90625 -1.203125 24.703125 0.1875 
Q 21.5 1.59375 18.5 4.203125 
L 18.796875 -4 
L 18.796875 -19.40625 
L 7.296875 -19.40625 
z
M 28.703125 8.296875 
Q 33.59375 8.296875 36.890625 12.546875 
Q 40.203125 16.796875 40.203125 25.203125 
Q 40.203125 32.59375 37.703125 36.6875 
Q 35.203125 40.796875 29.59375 40.796875 
Q 24.40625 40.796875 18.796875 35.296875 
L 18.796875 12.40625 
Q 21.5 10.09375 24 9.1875 
Q 26.5 8.296875 28.703125 8.296875 
z
" id="SourceSansPro-Semibold-112"/>
     <path d="M 27.40625 -1.203125 
Q 22.796875 -1.203125 18.59375 0.5 
Q 14.40625 2.203125 11.15625 5.5 
Q 7.90625 8.796875 6 13.59375 
Q 4.09375 18.40625 4.09375 24.5 
Q 4.09375 30.59375 6 35.390625 
Q 7.90625 40.203125 11.15625 43.5 
Q 14.40625 46.796875 18.59375 48.546875 
Q 22.796875 50.296875 27.40625 50.296875 
Q 32 50.296875 36.25 48.546875 
Q 40.5 46.796875 43.703125 43.5 
Q 46.90625 40.203125 48.84375 35.390625 
Q 50.796875 30.59375 50.796875 24.5 
Q 50.796875 18.40625 48.84375 13.59375 
Q 46.90625 8.796875 43.703125 5.5 
Q 40.5 2.203125 36.25 0.5 
Q 32 -1.203125 27.40625 -1.203125 
z
M 27.40625 8.203125 
Q 32.796875 8.203125 35.890625 12.640625 
Q 39 17.09375 39 24.5 
Q 39 32 35.890625 36.453125 
Q 32.796875 40.90625 27.40625 40.90625 
Q 22 40.90625 18.953125 36.453125 
Q 15.90625 32 15.90625 24.5 
Q 15.90625 17.09375 18.953125 12.640625 
Q 22 8.203125 27.40625 8.203125 
z
" id="SourceSansPro-Semibold-111"/>
     <path d="M 7.296875 49.09375 
L 16.796875 49.09375 
L 17.59375 42.5 
L 18 42.5 
Q 21.296875 45.703125 25.140625 48 
Q 29 50.296875 34.09375 50.296875 
Q 42 50.296875 45.59375 45.25 
Q 49.203125 40.203125 49.203125 30.796875 
L 49.203125 0 
L 37.703125 0 
L 37.703125 29.296875 
Q 37.703125 35.40625 35.890625 37.90625 
Q 34.09375 40.40625 30 40.40625 
Q 26.796875 40.40625 24.34375 38.84375 
Q 21.90625 37.296875 18.796875 34.296875 
L 18.796875 0 
L 7.296875 0 
z
" id="SourceSansPro-Semibold-110"/>
     <path id="SourceSansPro-Semibold-32"/>
     <path d="M 24.59375 -1.203125 
Q 20.296875 -1.203125 17.34375 0.09375 
Q 14.40625 1.40625 12.546875 3.75 
Q 10.703125 6.09375 9.84375 9.34375 
Q 9 12.59375 9 16.59375 
L 9 40 
L 2 40 
L 2 48.59375 
L 9.59375 49.09375 
L 11 62.5 
L 20.59375 62.5 
L 20.59375 49.09375 
L 33.09375 49.09375 
L 33.09375 40 
L 20.59375 40 
L 20.59375 16.59375 
Q 20.59375 8 27.5 8 
Q 28.796875 8 30.140625 8.296875 
Q 31.5 8.59375 32.59375 9.09375 
L 34.59375 0.59375 
Q 32.59375 -0.09375 30.046875 -0.640625 
Q 27.5 -1.203125 24.59375 -1.203125 
z
" id="SourceSansPro-Semibold-116"/>
     <path d="M 7.296875 49.09375 
L 18.796875 49.09375 
L 18.796875 0 
L 7.296875 0 
z
M 13.09375 57.703125 
Q 10 57.703125 8 59.5 
Q 6 61.296875 6 64.203125 
Q 6 67.09375 8 68.9375 
Q 10 70.796875 13.09375 70.796875 
Q 16.203125 70.796875 18.203125 68.9375 
Q 20.203125 67.09375 20.203125 64.203125 
Q 20.203125 61.296875 18.203125 59.5 
Q 16.203125 57.703125 13.09375 57.703125 
z
" id="SourceSansPro-Semibold-105"/>
     <path d="M 7.296875 49.09375 
L 16.796875 49.09375 
L 17.59375 42.40625 
L 18 42.40625 
Q 21.09375 45.703125 24.75 48 
Q 28.40625 50.296875 33 50.296875 
Q 38.40625 50.296875 41.65625 48 
Q 44.90625 45.703125 46.59375 41.5 
Q 50.09375 45.296875 53.890625 47.796875 
Q 57.703125 50.296875 62.40625 50.296875 
Q 70.203125 50.296875 73.890625 45.25 
Q 77.59375 40.203125 77.59375 30.796875 
L 77.59375 0 
L 66 0 
L 66 29.296875 
Q 66 35.40625 64.140625 37.90625 
Q 62.296875 40.40625 58.5 40.40625 
Q 53.90625 40.40625 48.203125 34.296875 
L 48.203125 0 
L 36.703125 0 
L 36.703125 29.296875 
Q 36.703125 35.40625 34.84375 37.90625 
Q 33 40.40625 29.09375 40.40625 
Q 24.5 40.40625 18.796875 34.296875 
L 18.796875 0 
L 7.296875 0 
z
" id="SourceSansPro-Semibold-109"/>
     <path d="M 24.5 -1.203125 
Q 15.203125 -1.203125 9.75 5.546875 
Q 4.296875 12.296875 4.296875 24.5 
Q 4.296875 30.5 6.046875 35.296875 
Q 7.796875 40.09375 10.6875 43.390625 
Q 13.59375 46.703125 17.34375 48.5 
Q 21.09375 50.296875 25.09375 50.296875 
Q 29.296875 50.296875 32.1875 48.84375 
Q 35.09375 47.40625 38 44.90625 
L 37.59375 52.796875 
L 37.59375 70.59375 
L 49.09375 70.59375 
L 49.09375 0 
L 39.59375 0 
L 38.796875 5.296875 
L 38.40625 5.296875 
Q 35.703125 2.59375 32.09375 0.6875 
Q 28.5 -1.203125 24.5 -1.203125 
z
M 27.296875 8.296875 
Q 32.796875 8.296875 37.59375 13.796875 
L 37.59375 36.703125 
Q 35 39 32.546875 39.890625 
Q 30.09375 40.796875 27.59375 40.796875 
Q 22.796875 40.796875 19.5 36.59375 
Q 16.203125 32.40625 16.203125 24.59375 
Q 16.203125 16.59375 19.046875 12.4375 
Q 21.90625 8.296875 27.296875 8.296875 
z
" id="SourceSansPro-Semibold-100"/>
     <path d="M 7.296875 49.09375 
L 16.796875 49.09375 
L 17.59375 40.40625 
L 18 40.40625 
Q 20.59375 45.203125 24.296875 47.75 
Q 28 50.296875 31.90625 50.296875 
Q 35.40625 50.296875 37.5 49.296875 
L 35.5 39.296875 
Q 34.203125 39.703125 33.09375 39.890625 
Q 32 40.09375 30.40625 40.09375 
Q 27.5 40.09375 24.296875 37.84375 
Q 21.09375 35.59375 18.796875 30 
L 18.796875 0 
L 7.296875 0 
z
" id="SourceSansPro-Semibold-114"/>
     <path d="M 31.09375 -1.203125 
Q 27.703125 -1.203125 24.25 0.4375 
Q 20.796875 2.09375 17.703125 5.203125 
L 17.40625 5.203125 
L 16.40625 0 
L 7.296875 0 
L 7.296875 70.59375 
L 18.796875 70.59375 
L 18.796875 52.40625 
L 18.5 44.203125 
Q 21.59375 46.90625 25.25 48.59375 
Q 28.90625 50.296875 32.703125 50.296875 
Q 37.296875 50.296875 40.890625 48.546875 
Q 44.5 46.796875 47 43.546875 
Q 49.5 40.296875 50.796875 35.6875 
Q 52.09375 31.09375 52.09375 25.40625 
Q 52.09375 19.09375 50.34375 14.140625 
Q 48.59375 9.203125 45.6875 5.796875 
Q 42.796875 2.40625 39 0.59375 
Q 35.203125 -1.203125 31.09375 -1.203125 
z
M 28.703125 8.296875 
Q 33.59375 8.296875 36.890625 12.546875 
Q 40.203125 16.796875 40.203125 25.203125 
Q 40.203125 32.59375 37.703125 36.6875 
Q 35.203125 40.796875 29.59375 40.796875 
Q 24.40625 40.796875 18.796875 35.296875 
L 18.796875 12.40625 
Q 21.40625 10.09375 23.953125 9.1875 
Q 26.5 8.296875 28.703125 8.296875 
z
" id="SourceSansPro-Semibold-98"/>
     <path d="M 21.90625 -1.203125 
Q 14 -1.203125 10.390625 3.84375 
Q 6.796875 8.90625 6.796875 18.296875 
L 6.796875 49.09375 
L 18.296875 49.09375 
L 18.296875 19.796875 
Q 18.296875 13.703125 20.09375 11.203125 
Q 21.90625 8.703125 25.90625 8.703125 
Q 29.09375 8.703125 31.546875 10.296875 
Q 34 11.90625 36.796875 15.5 
L 36.796875 49.09375 
L 48.296875 49.09375 
L 48.296875 0 
L 38.90625 0 
L 38 7.203125 
L 37.703125 7.203125 
Q 34.5 3.40625 30.75 1.09375 
Q 27 -1.203125 21.90625 -1.203125 
z
" id="SourceSansPro-Semibold-117"/>
    </defs>
    <g style="fill:#242121;" transform="translate(41.176768 20.8)scale(0.14 -0.14)">
     <use xlink:href="#SourceSansPro-Semibold-82"/>
     <use x="59.199997" xlink:href="#SourceSansPro-Semibold-101"/>
     <use x="109.899994" xlink:href="#SourceSansPro-Semibold-115"/>
     <use x="152.999985" xlink:href="#SourceSansPro-Semibold-112"/>
     <use x="209.399979" xlink:href="#SourceSansPro-Semibold-111"/>
     <use x="264.299973" xlink:href="#SourceSansPro-Semibold-110"/>
     <use x="320.299957" xlink:href="#SourceSansPro-Semibold-115"/>
     <use x="363.399948" xlink:href="#SourceSansPro-Semibold-101"/>
     <use x="414.099945" xlink:href="#SourceSansPro-Semibold-32"/>
     <use x="434.09993" xlink:href="#SourceSansPro-Semibold-116"/>
     <use x="470.199921" xlink:href="#SourceSansPro-Semibold-105"/>
     <use x="496.399918" xlink:href="#SourceSansPro-Semibold-109"/>
     <use x="580.699905" xlink:href="#SourceSansPro-Semibold-101"/>
     <use x="631.399902" xlink:href="#SourceSansPro-Semibold-32"/>
     <use x="651.399887" xlink:href="#SourceSansPro-Semibold-100"/>
     <use x="707.799881" xlink:href="#SourceSansPro-Semibold-105"/>
     <use x="733.999878" xlink:href="#SourceSansPro-Semibold-115"/>
     <use x="777.099869" xlink:href="#SourceSansPro-Semibold-116"/>
     <use x="813.19986" xlink:href="#SourceSansPro-Semibold-114"/>
     <use x="850.499847" xlink:href="#SourceSansPro-Semibold-105"/>
     <use x="876.699844" xlink:href="#SourceSansPro-Semibold-98"/>
     <use x="932.999832" xlink:href="#SourceSansPro-Semibold-117"/>
     <use x="988.599823" xlink:href="#SourceSansPro-Semibold-116"/>
     <use x="1024.699814" xlink:href="#SourceSansPro-Semibold-105"/>
     <use x="1050.899811" xlink:href="#SourceSansPro-Semibold-111"/>
     <use x="1105.799805" xlink:href="#SourceSansPro-Semibold-110"/>
    </g>
   </g>
   <g id="legend_1">
    <g id="line2d_19">
     <path d="M 120.058223 39.420313 
L 140.058223 39.420313 
" style="fill:none;stroke:#1f77b4;stroke-linecap:round;stroke-width:1.5;"/>
    </g>
    <g id="line2d_20"/>
    <g id="text_18">
     <!-- Isambard -->
     <defs>
      <path d="M 9 65.59375 
L 17.296875 65.59375 
L 17.296875 0 
L 9 0 
z
" id="SourceSansPro-Regular-73"/>
      <path d="M 29.703125 -1.203125 
Q 26.296875 -1.203125 22.640625 0.4375 
Q 19 2.09375 15.796875 5 
L 15.5 5 
L 14.796875 0 
L 8.203125 0 
L 8.203125 71.203125 
L 16.40625 71.203125 
L 16.40625 51.796875 
L 16.203125 43 
Q 19.5 45.90625 23.390625 47.84375 
Q 27.296875 49.796875 31.40625 49.796875 
Q 36.09375 49.796875 39.6875 48.046875 
Q 43.296875 46.296875 45.75 43.046875 
Q 48.203125 39.796875 49.453125 35.25 
Q 50.703125 30.703125 50.703125 25.09375 
Q 50.703125 18.90625 49 14 
Q 47.296875 9.09375 44.390625 5.6875 
Q 41.5 2.296875 37.703125 0.546875 
Q 33.90625 -1.203125 29.703125 -1.203125 
z
M 28.296875 5.703125 
Q 31.296875 5.703125 33.84375 7.046875 
Q 36.40625 8.40625 38.25 10.84375 
Q 40.09375 13.296875 41.140625 16.890625 
Q 42.203125 20.5 42.203125 25 
Q 42.203125 29 41.5 32.296875 
Q 40.796875 35.59375 39.25 37.9375 
Q 37.703125 40.296875 35.25 41.59375 
Q 32.796875 42.90625 29.40625 42.90625 
Q 23.5 42.90625 16.40625 36.296875 
L 16.40625 10.796875 
Q 19.59375 8 22.75 6.84375 
Q 25.90625 5.703125 28.296875 5.703125 
z
" id="SourceSansPro-Regular-98"/>
      <path d="M 24.796875 -1.203125 
Q 15.59375 -1.203125 10.140625 5.390625 
Q 4.703125 12 4.703125 24.203125 
Q 4.703125 30.09375 6.453125 34.84375 
Q 8.203125 39.59375 11.09375 42.890625 
Q 14 46.203125 17.796875 48 
Q 21.59375 49.796875 25.796875 49.796875 
Q 30 49.796875 33.09375 48.296875 
Q 36.203125 46.796875 39.40625 44.203125 
L 39 52.5 
L 39 71.203125 
L 47.296875 71.203125 
L 47.296875 0 
L 40.5 0 
L 39.796875 5.703125 
L 39.5 5.703125 
Q 36.59375 2.90625 32.84375 0.84375 
Q 29.09375 -1.203125 24.796875 -1.203125 
z
M 26.59375 5.703125 
Q 30 5.703125 33 7.34375 
Q 36 9 39 12.40625 
L 39 37.796875 
Q 35.90625 40.59375 33.046875 41.75 
Q 30.203125 42.90625 27.203125 42.90625 
Q 24.296875 42.90625 21.75 41.546875 
Q 19.203125 40.203125 17.296875 37.75 
Q 15.40625 35.296875 14.296875 31.890625 
Q 13.203125 28.5 13.203125 24.296875 
Q 13.203125 15.5 16.703125 10.59375 
Q 20.203125 5.703125 26.59375 5.703125 
z
" id="SourceSansPro-Regular-100"/>
     </defs>
     <g style="fill:#242121;" transform="translate(148.058223 42.920313)scale(0.1 -0.1)">
      <use xlink:href="#SourceSansPro-Regular-73"/>
      <use x="26.299988" xlink:href="#SourceSansPro-Regular-115"/>
      <use x="68.199982" xlink:href="#SourceSansPro-Regular-97"/>
      <use x="118.599976" xlink:href="#SourceSansPro-Regular-109"/>
      <use x="201.499969" xlink:href="#SourceSansPro-Regular-98"/>
      <use x="256.799957" xlink:href="#SourceSansPro-Regular-97"/>
      <use x="307.199951" xlink:href="#SourceSansPro-Regular-114"/>
      <use x="341.899948" xlink:href="#SourceSansPro-Regular-100"/>
     </g>
    </g>
    <g id="line2d_21">
     <path d="M 120.058223 53.590625 
L 140.058223 53.590625 
" style="fill:none;stroke:#ff7f0e;stroke-linecap:round;stroke-width:1.5;"/>
    </g>
    <g id="line2d_22"/>
    <g id="text_19">
     <!-- Lysander -->
     <defs>
      <path d="M 9 65.59375 
L 17.296875 65.59375 
L 17.296875 7.09375 
L 46 7.09375 
L 46 0 
L 9 0 
z
" id="SourceSansPro-Regular-76"/>
     </defs>
     <g style="fill:#242121;" transform="translate(148.058223 57.090625)scale(0.1 -0.1)">
      <use xlink:href="#SourceSansPro-Regular-76"/>
      <use x="48.599991" xlink:href="#SourceSansPro-Regular-121"/>
      <use x="95.299988" xlink:href="#SourceSansPro-Regular-115"/>
      <use x="137.199982" xlink:href="#SourceSansPro-Regular-97"/>
      <use x="187.599976" xlink:href="#SourceSansPro-Regular-110"/>
      <use x="242.299973" xlink:href="#SourceSansPro-Regular-100"/>
      <use x="297.799957" xlink:href="#SourceSansPro-Regular-101"/>
      <use x="347.399948" xlink:href="#SourceSansPro-Regular-114"/>
     </g>
    </g>
    <g id="line2d_23">
     <path d="M 120.058223 67.801563 
L 140.058223 67.801563 
" style="fill:none;stroke:#2ca02c;stroke-linecap:round;stroke-width:1.5;"/>
    </g>
    <g id="line2d_24"/>
    <g id="text_20">
     <!-- Perseus -->
     <defs>
      <path d="M 9 65.59375 
L 27.703125 65.59375 
Q 33.203125 65.59375 37.75 64.59375 
Q 42.296875 63.59375 45.5 61.34375 
Q 48.703125 59.09375 50.5 55.390625 
Q 52.296875 51.703125 52.296875 46.296875 
Q 52.296875 41.09375 50.546875 37.296875 
Q 48.796875 33.5 45.59375 31 
Q 42.40625 28.5 37.953125 27.25 
Q 33.5 26 28.09375 26 
L 17.296875 26 
L 17.296875 0 
L 9 0 
z
M 27.09375 32.796875 
Q 35.703125 32.796875 39.84375 36.046875 
Q 44 39.296875 44 46.296875 
Q 44 53.40625 39.640625 56.15625 
Q 35.296875 58.90625 26.703125 58.90625 
L 17.296875 58.90625 
L 17.296875 32.796875 
z
" id="SourceSansPro-Regular-80"/>
     </defs>
     <g style="fill:#242121;" transform="translate(148.058223 71.301563)scale(0.1 -0.1)">
      <use xlink:href="#SourceSansPro-Regular-80"/>
      <use x="56.599991" xlink:href="#SourceSansPro-Regular-101"/>
      <use x="106.199982" xlink:href="#SourceSansPro-Regular-114"/>
      <use x="140.899979" xlink:href="#SourceSansPro-Regular-115"/>
      <use x="182.799973" xlink:href="#SourceSansPro-Regular-101"/>
      <use x="232.399963" xlink:href="#SourceSansPro-Regular-117"/>
      <use x="286.799957" xlink:href="#SourceSansPro-Regular-115"/>
     </g>
    </g>
    <g id="line2d_25">
     <path d="M 120.058223 81.971875 
L 140.058223 81.971875 
" style="fill:none;stroke:#d62728;stroke-linecap:round;stroke-width:1.5;"/>
    </g>
    <g id="line2d_26"/>
    <g id="text_21">
     <!-- Seraphina -->
     <defs>
      <path d="M 27.203125 -1.203125 
Q 20.296875 -1.203125 14.390625 1.390625 
Q 8.5 4 4.203125 8.5 
L 9.203125 14.296875 
Q 12.703125 10.59375 17.453125 8.34375 
Q 22.203125 6.09375 27.296875 6.09375 
Q 33.796875 6.09375 37.390625 9.046875 
Q 41 12 41 16.796875 
Q 41 19.296875 40.140625 21.046875 
Q 39.296875 22.796875 37.84375 24.046875 
Q 36.40625 25.296875 34.40625 26.296875 
Q 32.40625 27.296875 30.09375 28.40625 
L 20.703125 32.5 
Q 18.40625 33.5 16 34.890625 
Q 13.59375 36.296875 11.6875 38.296875 
Q 9.796875 40.296875 8.59375 43.046875 
Q 7.40625 45.796875 7.40625 49.40625 
Q 7.40625 53.09375 8.953125 56.296875 
Q 10.5 59.5 13.25 61.84375 
Q 16 64.203125 19.75 65.5 
Q 23.5 66.796875 28 66.796875 
Q 33.90625 66.796875 38.90625 64.546875 
Q 43.90625 62.296875 47.40625 58.703125 
L 42.90625 53.296875 
Q 39.90625 56.203125 36.25 57.84375 
Q 32.59375 59.5 28 59.5 
Q 22.5 59.5 19.140625 56.953125 
Q 15.796875 54.40625 15.796875 49.90625 
Q 15.796875 47.5 16.75 45.84375 
Q 17.703125 44.203125 19.296875 42.953125 
Q 20.90625 41.703125 22.796875 40.75 
Q 24.703125 39.796875 26.703125 39 
L 36 35 
Q 38.796875 33.796875 41.296875 32.25 
Q 43.796875 30.703125 45.59375 28.640625 
Q 47.40625 26.59375 48.453125 23.84375 
Q 49.5 21.09375 49.5 17.5 
Q 49.5 13.59375 47.953125 10.1875 
Q 46.40625 6.796875 43.5 4.25 
Q 40.59375 1.703125 36.5 0.25 
Q 32.40625 -1.203125 27.203125 -1.203125 
z
" id="SourceSansPro-Regular-83"/>
      <path d="M 8.203125 71.203125 
L 16.40625 71.203125 
L 16.40625 51.796875 
L 16.09375 41.796875 
Q 19.59375 45.09375 23.390625 47.4375 
Q 27.203125 49.796875 32.296875 49.796875 
Q 40 49.796875 43.546875 45 
Q 47.09375 40.203125 47.09375 30.796875 
L 47.09375 0 
L 38.90625 0 
L 38.90625 29.703125 
Q 38.90625 36.59375 36.703125 39.640625 
Q 34.5 42.703125 29.703125 42.703125 
Q 25.90625 42.703125 23 40.796875 
Q 20.09375 38.90625 16.40625 35.203125 
L 16.40625 0 
L 8.203125 0 
z
" id="SourceSansPro-Regular-104"/>
     </defs>
     <g style="fill:#242121;" transform="translate(148.058223 85.471875)scale(0.1 -0.1)">
      <use xlink:href="#SourceSansPro-Regular-83"/>
      <use x="53.399994" xlink:href="#SourceSansPro-Regular-101"/>
      <use x="102.999985" xlink:href="#SourceSansPro-Regular-114"/>
      <use x="137.699982" xlink:href="#SourceSansPro-Regular-97"/>
      <use x="188.099976" xlink:href="#SourceSansPro-Regular-112"/>
      <use x="243.59996" xlink:href="#SourceSansPro-Regular-104"/>
      <use x="297.999954" xlink:href="#SourceSansPro-Regular-105"/>
      <use x="322.599945" xlink:href="#SourceSansPro-Regular-110"/>
      <use x="377.299942" xlink:href="#SourceSansPro-Regular-97"/>
     </g>
    </g>
   </g>
  </g>
  <g id="axes_2">
   <g id="patch_7">
    <path d="M 266.544902 282.55625 
L 421.2 282.55625 
L 421.2 26.8 
L 266.544902 26.8 
z
" style="fill:#eaeaf2;"/>
   </g>
   <g id="matplotlib.axis_3">
    <g id="xtick_6">
     <g id="line2d_27"/>
     <g id="text_22">
      <!-- 0 -->
      <g style="fill:#242121;" transform="translate(264.059746 293.176562)scale(0.1 -0.1)">
       <use xlink:href="#SourceSansPro-Regular-48"/>
      </g>
     </g>
    </g>
    <g id="xtick_7">
     <g id="line2d_28"/>
     <g id="text_23">
      <!-- 10 -->
      <g style="fill:#242121;" transform="translate(316.126653 293.176562)scale(0.1 -0.1)">
       <use xlink:href="#SourceSansPro-Regular-49"/>
       <use x="49.699997" xlink:href="#SourceSansPro-Regular-48"/>
      </g>
     </g>
    </g>
    <g id="xtick_8">
     <g id="line2d_29"/>
     <g id="text_24">
      <!-- 20 -->
      <g style="fill:#242121;" transform="translate(370.678715 293.176562)scale(0.1 -0.1)">
       <use xlink:href="#SourceSansPro-Regular-50"/>
       <use x="49.699997" xlink:href="#SourceSansPro-Regular-48"/>
      </g>
     </g>
    </g>
    <g id="text_25">
     <!-- Response time (Mins) -->
     <g style="fill:#242121;" transform="translate(299.387295 306.546875)scale(0.1 -0.1)">
      <use xlink:href="#SourceSansPro-Regular-82"/>
      <use x="56.899994" xlink:href="#SourceSansPro-Regular-101"/>
      <use x="106.499985" xlink:href="#SourceSansPro-Regular-115"/>
      <use x="148.399979" xlink:href="#SourceSansPro-Regular-112"/>
      <use x="203.899963" xlink:href="#SourceSansPro-Regular-111"/>
      <use x="258.09996" xlink:href="#SourceSansPro-Regular-110"/>
      <use x="312.799957" xlink:href="#SourceSansPro-Regular-115"/>
      <use x="354.699951" xlink:href="#SourceSansPro-Regular-101"/>
      <use x="404.299942" xlink:href="#SourceSansPro-Regular-32"/>
      <use x="424.299927" xlink:href="#SourceSansPro-Regular-116"/>
      <use x="458.099915" xlink:href="#SourceSansPro-Regular-105"/>
      <use x="482.699905" xlink:href="#SourceSansPro-Regular-109"/>
      <use x="565.599899" xlink:href="#SourceSansPro-Regular-101"/>
      <use x="615.19989" xlink:href="#SourceSansPro-Regular-32"/>
      <use x="635.199875" xlink:href="#SourceSansPro-Regular-40"/>
      <use x="665.499863" xlink:href="#SourceSansPro-Regular-77"/>
      <use x="738.199844" xlink:href="#SourceSansPro-Regular-105"/>
      <use x="762.799835" xlink:href="#SourceSansPro-Regular-110"/>
      <use x="817.499832" xlink:href="#SourceSansPro-Regular-115"/>
      <use x="859.399826" xlink:href="#SourceSansPro-Regular-41"/>
     </g>
    </g>
   </g>
   <g id="matplotlib.axis_4">
    <g id="ytick_10">
     <g id="line2d_30"/>
     <g id="text_26">
      <!-- Lysander -->
      <g style="fill:#ff7f0e;" transform="translate(224.833965 247.455578)scale(0.1 -0.1)">
       <use xlink:href="#SourceSansPro-Regular-76"/>
       <use x="48.599991" xlink:href="#SourceSansPro-Regular-121"/>
       <use x="95.299988" xlink:href="#SourceSansPro-Regular-115"/>
       <use x="137.199982" xlink:href="#SourceSansPro-Regular-97"/>
       <use x="187.599976" xlink:href="#SourceSansPro-Regular-110"/>
       <use x="242.299973" xlink:href="#SourceSansPro-Regular-100"/>
       <use x="297.799957" xlink:href="#SourceSansPro-Regular-101"/>
       <use x="347.399948" xlink:href="#SourceSansPro-Regular-114"/>
      </g>
     </g>
    </g>
    <g id="ytick_11">
     <g id="line2d_31"/>
     <g id="text_27">
      <!-- Perseus -->
      <g style="fill:#2ca02c;" transform="translate(230.17459 187.97738)scale(0.1 -0.1)">
       <use xlink:href="#SourceSansPro-Regular-80"/>
       <use x="56.599991" xlink:href="#SourceSansPro-Regular-101"/>
       <use x="106.199982" xlink:href="#SourceSansPro-Regular-114"/>
       <use x="140.899979" xlink:href="#SourceSansPro-Regular-115"/>
       <use x="182.799973" xlink:href="#SourceSansPro-Regular-101"/>
       <use x="232.399963" xlink:href="#SourceSansPro-Regular-117"/>
       <use x="286.799957" xlink:href="#SourceSansPro-Regular-115"/>
      </g>
     </g>
    </g>
    <g id="ytick_12">
     <g id="line2d_32"/>
     <g id="text_28">
      <!-- Isambard -->
      <g style="fill:#1f77b4;" transform="translate(223.302715 128.499182)scale(0.1 -0.1)">
       <use xlink:href="#SourceSansPro-Regular-73"/>
       <use x="26.299988" xlink:href="#SourceSansPro-Regular-115"/>
       <use x="68.199982" xlink:href="#SourceSansPro-Regular-97"/>
       <use x="118.599976" xlink:href="#SourceSansPro-Regular-109"/>
       <use x="201.499969" xlink:href="#SourceSansPro-Regular-98"/>
       <use x="256.799957" xlink:href="#SourceSansPro-Regular-97"/>
       <use x="307.199951" xlink:href="#SourceSansPro-Regular-114"/>
       <use x="341.899948" xlink:href="#SourceSansPro-Regular-100"/>
      </g>
     </g>
    </g>
    <g id="ytick_13">
     <g id="line2d_33"/>
     <g id="text_29">
      <!-- Seraphina -->
      <g style="fill:#d62728;" transform="translate(220.273027 69.020985)scale(0.1 -0.1)">
       <use xlink:href="#SourceSansPro-Regular-83"/>
       <use x="53.399994" xlink:href="#SourceSansPro-Regular-101"/>
       <use x="102.999985" xlink:href="#SourceSansPro-Regular-114"/>
       <use x="137.699982" xlink:href="#SourceSansPro-Regular-97"/>
       <use x="188.099976" xlink:href="#SourceSansPro-Regular-112"/>
       <use x="243.59996" xlink:href="#SourceSansPro-Regular-104"/>
       <use x="297.999954" xlink:href="#SourceSansPro-Regular-105"/>
       <use x="322.599945" xlink:href="#SourceSansPro-Regular-110"/>
       <use x="377.299942" xlink:href="#SourceSansPro-Regular-97"/>
      </g>
     </g>
    </g>
   </g>
   <g id="patch_8">
    <path clip-path="url(#p1d6fb61a00)" d="M 266.544902 267.686701 
L 348.372996 267.686701 
L 348.372996 220.104142 
L 266.544902 220.104142 
z
" style="fill:#ff7f0e;"/>
   </g>
   <g id="patch_9">
    <path clip-path="url(#p1d6fb61a00)" d="M 266.544902 208.208503 
L 375.649028 208.208503 
L 375.649028 160.625945 
L 266.544902 160.625945 
z
" style="fill:#2ca02c;"/>
   </g>
   <g id="patch_10">
    <path clip-path="url(#p1d6fb61a00)" d="M 266.544902 148.730305 
L 381.104234 148.730305 
L 381.104234 101.147747 
L 266.544902 101.147747 
z
" style="fill:#1f77b4;"/>
   </g>
   <g id="patch_11">
    <path clip-path="url(#p1d6fb61a00)" d="M 266.544902 89.252108 
L 413.835472 89.252108 
L 413.835472 41.669549 
L 266.544902 41.669549 
z
" style="fill:#d62728;"/>
   </g>
   <g id="patch_12">
    <path d="M 266.544902 282.55625 
L 266.544902 26.8 
" style="fill:none;"/>
   </g>
   <g id="patch_13">
    <path d="M 421.2 282.55625 
L 421.2 26.8 
" style="fill:none;"/>
   </g>
   <g id="patch_14">
    <path d="M 266.544902 282.55625 
L 421.2 282.55625 
" style="fill:none;"/>
   </g>
   <g id="patch_15">
    <path d="M 266.544902 26.8 
L 421.2 26.8 
" style="fill:none;"/>
   </g>
   <g id="text_30">
    <!-- Median response time -->
    <defs>
     <path d="M 8.296875 65.40625 
L 21.40625 65.40625 
L 33 33.40625 
Q 34.09375 30.296875 35.09375 27.046875 
Q 36.09375 23.796875 37.203125 20.59375 
L 37.59375 20.59375 
Q 38.703125 23.796875 39.640625 27.046875 
Q 40.59375 30.296875 41.703125 33.40625 
L 53 65.40625 
L 66.203125 65.40625 
L 66.203125 0 
L 55.5 0 
L 55.5 29.90625 
Q 55.5 32.203125 55.640625 34.890625 
Q 55.796875 37.59375 56 40.34375 
Q 56.203125 43.09375 56.5 45.75 
Q 56.796875 48.40625 57 50.703125 
L 56.59375 50.703125 
L 51.296875 35.5 
L 40.59375 6.09375 
L 33.703125 6.09375 
L 22.90625 35.5 
L 17.703125 50.703125 
L 17.296875 50.703125 
Q 17.5 48.40625 17.75 45.75 
Q 18 43.09375 18.25 40.34375 
Q 18.5 37.59375 18.640625 34.890625 
Q 18.796875 32.203125 18.796875 29.90625 
L 18.796875 0 
L 8.296875 0 
z
" id="SourceSansPro-Semibold-77"/>
     <path d="M 19.203125 -1.203125 
Q 12.703125 -1.203125 8.703125 2.75 
Q 4.703125 6.703125 4.703125 13.203125 
Q 4.703125 17.09375 6.34375 20.140625 
Q 8 23.203125 11.546875 25.390625 
Q 15.09375 27.59375 20.546875 29.09375 
Q 26 30.59375 33.59375 31.40625 
Q 33.5 33.296875 33.046875 35.046875 
Q 32.59375 36.796875 31.546875 38.140625 
Q 30.5 39.5 28.796875 40.25 
Q 27.09375 41 24.59375 41 
Q 21 41 17.546875 39.59375 
Q 14.09375 38.203125 10.796875 36.203125 
L 6.59375 43.90625 
Q 10.703125 46.5 15.796875 48.390625 
Q 20.90625 50.296875 26.796875 50.296875 
Q 36 50.296875 40.546875 44.84375 
Q 45.09375 39.40625 45.09375 29.09375 
L 45.09375 0 
L 35.59375 0 
L 34.796875 5.40625 
L 34.40625 5.40625 
Q 31.09375 2.59375 27.34375 0.6875 
Q 23.59375 -1.203125 19.203125 -1.203125 
z
M 22.90625 7.796875 
Q 25.90625 7.796875 28.34375 9.1875 
Q 30.796875 10.59375 33.59375 13.203125 
L 33.59375 24.203125 
Q 28.59375 23.59375 25.1875 22.59375 
Q 21.796875 21.59375 19.6875 20.34375 
Q 17.59375 19.09375 16.6875 17.5 
Q 15.796875 15.90625 15.796875 14.09375 
Q 15.796875 10.796875 17.796875 9.296875 
Q 19.796875 7.796875 22.90625 7.796875 
z
" id="SourceSansPro-Semibold-97"/>
    </defs>
    <g style="fill:#242121;" transform="translate(277.729014 20.8)scale(0.14 -0.14)">
     <use xlink:href="#SourceSansPro-Semibold-77"/>
     <use x="74.499985" xlink:href="#SourceSansPro-Semibold-101"/>
     <use x="125.199982" xlink:href="#SourceSansPro-Semibold-100"/>
     <use x="181.599976" xlink:href="#SourceSansPro-Semibold-105"/>
     <use x="207.799973" xlink:href="#SourceSansPro-Semibold-97"/>
     <use x="259.399963" xlink:href="#SourceSansPro-Semibold-110"/>
     <use x="315.399948" xlink:href="#SourceSansPro-Semibold-32"/>
     <use x="335.399933" xlink:href="#SourceSansPro-Semibold-114"/>
     <use x="372.699921" xlink:href="#SourceSansPro-Semibold-101"/>
     <use x="423.399918" xlink:href="#SourceSansPro-Semibold-115"/>
     <use x="466.499908" xlink:href="#SourceSansPro-Semibold-112"/>
     <use x="522.899902" xlink:href="#SourceSansPro-Semibold-111"/>
     <use x="577.799896" xlink:href="#SourceSansPro-Semibold-110"/>
     <use x="633.799881" xlink:href="#SourceSansPro-Semibold-115"/>
     <use x="676.899872" xlink:href="#SourceSansPro-Semibold-101"/>
     <use x="727.599869" xlink:href="#SourceSansPro-Semibold-32"/>
     <use x="747.599854" xlink:href="#SourceSansPro-Semibold-116"/>
     <use x="783.699844" xlink:href="#SourceSansPro-Semibold-105"/>
     <use x="809.899841" xlink:href="#SourceSansPro-Semibold-109"/>
     <use x="894.199829" xlink:href="#SourceSansPro-Semibold-101"/>
    </g>
   </g>
  </g>
  <g id="text_31">
   <!-- Excludes messages to self within 3 mins -->
   <defs>
    <path d="M 9 65.59375 
L 46.796875 65.59375 
L 46.796875 58.59375 
L 17.296875 58.59375 
L 17.296875 38 
L 42.203125 38 
L 42.203125 30.90625 
L 17.296875 30.90625 
L 17.296875 7.09375 
L 47.796875 7.09375 
L 47.796875 0 
L 9 0 
z
" id="SourceSansPro-Regular-69"/>
    <path d="M 17.296875 25.40625 
L 2.59375 48.59375 
L 11.5 48.59375 
L 18 37.90625 
Q 19.09375 35.90625 20.296875 33.84375 
Q 21.5 31.796875 22.796875 29.796875 
L 23.203125 29.796875 
Q 24.296875 31.796875 25.390625 33.84375 
Q 26.5 35.90625 27.59375 37.90625 
L 33.5 48.59375 
L 42.09375 48.59375 
L 27.40625 24.5 
L 43.203125 0 
L 34.296875 0 
L 27.203125 11.296875 
Q 25.90625 13.5 24.59375 15.703125 
Q 23.296875 17.90625 21.90625 20 
L 21.5 20 
Q 20.203125 17.90625 19 15.75 
Q 17.796875 13.59375 16.59375 11.296875 
L 10 0 
L 1.40625 0 
z
" id="SourceSansPro-Regular-120"/>
    <path d="M 24.59375 -22.40625 
Q 20.09375 -22.40625 16.390625 -21.546875 
Q 12.703125 -20.703125 10.046875 -19 
Q 7.40625 -17.296875 5.953125 -14.890625 
Q 4.5 -12.5 4.5 -9.296875 
Q 4.5 -6.203125 6.390625 -3.390625 
Q 8.296875 -0.59375 11.59375 1.703125 
L 11.59375 2.09375 
Q 9.796875 3.203125 8.546875 5.140625 
Q 7.296875 7.09375 7.296875 10 
Q 7.296875 13.09375 9 15.390625 
Q 10.703125 17.703125 12.59375 19 
L 12.59375 19.40625 
Q 10.203125 21.40625 8.25 24.75 
Q 6.296875 28.09375 6.296875 32.5 
Q 6.296875 36.5 7.75 39.703125 
Q 9.203125 42.90625 11.703125 45.15625 
Q 14.203125 47.40625 17.546875 48.59375 
Q 20.90625 49.796875 24.59375 49.796875 
Q 26.59375 49.796875 28.34375 49.4375 
Q 30.09375 49.09375 31.5 48.59375 
L 48.40625 48.59375 
L 48.40625 42.296875 
L 38.40625 42.296875 
Q 40.09375 40.59375 41.25 38 
Q 42.40625 35.40625 42.40625 32.296875 
Q 42.40625 28.40625 41 25.25 
Q 39.59375 22.09375 37.1875 19.9375 
Q 34.796875 17.796875 31.546875 16.59375 
Q 28.296875 15.40625 24.59375 15.40625 
Q 22.796875 15.40625 20.890625 15.84375 
Q 19 16.296875 17.296875 17.09375 
Q 16 16 15.09375 14.640625 
Q 14.203125 13.296875 14.203125 11.296875 
Q 14.203125 9 16 7.5 
Q 17.796875 6 22.796875 6 
L 32.203125 6 
Q 40.703125 6 44.953125 3.25 
Q 49.203125 0.5 49.203125 -5.59375 
Q 49.203125 -9 47.5 -12.046875 
Q 45.796875 -15.09375 42.59375 -17.390625 
Q 39.40625 -19.703125 34.84375 -21.046875 
Q 30.296875 -22.40625 24.59375 -22.40625 
z
M 24.59375 20.90625 
Q 26.703125 20.90625 28.546875 21.703125 
Q 30.40625 22.5 31.84375 24 
Q 33.296875 25.5 34.09375 27.640625 
Q 34.90625 29.796875 34.90625 32.5 
Q 34.90625 37.90625 31.90625 40.84375 
Q 28.90625 43.796875 24.59375 43.796875 
Q 20.296875 43.796875 17.296875 40.84375 
Q 14.296875 37.90625 14.296875 32.5 
Q 14.296875 29.796875 15.09375 27.640625 
Q 15.90625 25.5 17.34375 24 
Q 18.796875 22.5 20.640625 21.703125 
Q 22.5 20.90625 24.59375 20.90625 
z
M 25.796875 -16.703125 
Q 29.296875 -16.703125 32.140625 -15.84375 
Q 35 -15 37 -13.640625 
Q 39 -12.296875 40.09375 -10.5 
Q 41.203125 -8.703125 41.203125 -6.796875 
Q 41.203125 -3.40625 38.703125 -2.09375 
Q 36.203125 -0.796875 31.40625 -0.796875 
L 23 -0.796875 
Q 21.59375 -0.796875 19.9375 -0.640625 
Q 18.296875 -0.5 16.703125 0 
Q 14.09375 -1.90625 12.890625 -4 
Q 11.703125 -6.09375 11.703125 -8.203125 
Q 11.703125 -12.09375 15.453125 -14.390625 
Q 19.203125 -16.703125 25.796875 -16.703125 
z
" id="SourceSansPro-Regular-103"/>
    <path d="M 2.40625 48.59375 
L 10.796875 48.59375 
L 18 20.5 
Q 18.796875 17 19.5 13.703125 
Q 20.203125 10.40625 20.90625 7 
L 21.296875 7 
Q 22.09375 10.40625 22.890625 13.75 
Q 23.703125 17.09375 24.59375 20.5 
L 32.09375 48.59375 
L 40.09375 48.59375 
L 47.703125 20.5 
Q 48.59375 17 49.4375 13.703125 
Q 50.296875 10.40625 51.09375 7 
L 51.5 7 
Q 52.296875 10.40625 53 13.703125 
Q 53.703125 17 54.5 20.5 
L 61.59375 48.59375 
L 69.40625 48.59375 
L 56.40625 0 
L 46.40625 0 
L 39.40625 26.09375 
Q 38.5 29.59375 37.75 33 
Q 37 36.40625 36.09375 40.09375 
L 35.703125 40.09375 
Q 34.90625 36.40625 34.09375 32.953125 
Q 33.296875 29.5 32.296875 26 
L 25.5 0 
L 15.90625 0 
z
" id="SourceSansPro-Regular-119"/>
   </defs>
   <g style="fill:#242121;" transform="translate(0 321.759375)scale(0.1 -0.1)">
    <use xlink:href="#SourceSansPro-Regular-69"/>
    <use x="52.699997" xlink:href="#SourceSansPro-Regular-120"/>
    <use x="97.299988" xlink:href="#SourceSansPro-Regular-99"/>
    <use x="142.899979" xlink:href="#SourceSansPro-Regular-108"/>
    <use x="168.399963" xlink:href="#SourceSansPro-Regular-117"/>
    <use x="222.799957" xlink:href="#SourceSansPro-Regular-100"/>
    <use x="278.299942" xlink:href="#SourceSansPro-Regular-101"/>
    <use x="327.899933" xlink:href="#SourceSansPro-Regular-115"/>
    <use x="369.799927" xlink:href="#SourceSansPro-Regular-32"/>
    <use x="389.799911" xlink:href="#SourceSansPro-Regular-109"/>
    <use x="472.699905" xlink:href="#SourceSansPro-Regular-101"/>
    <use x="522.299896" xlink:href="#SourceSansPro-Regular-115"/>
    <use x="564.19989" xlink:href="#SourceSansPro-Regular-115"/>
    <use x="606.099884" xlink:href="#SourceSansPro-Regular-97"/>
    <use x="656.499878" xlink:href="#SourceSansPro-Regular-103"/>
    <use x="706.899872" xlink:href="#SourceSansPro-Regular-101"/>
    <use x="756.499863" xlink:href="#SourceSansPro-Regular-115"/>
    <use x="798.399857" xlink:href="#SourceSansPro-Regular-32"/>
    <use x="818.399841" xlink:href="#SourceSansPro-Regular-116"/>
    <use x="852.199829" xlink:href="#SourceSansPro-Regular-111"/>
    <use x="906.399826" xlink:href="#SourceSansPro-Regular-32"/>
    <use x="926.399811" xlink:href="#SourceSansPro-Regular-115"/>
    <use x="968.299805" xlink:href="#SourceSansPro-Regular-101"/>
    <use x="1017.899796" xlink:href="#SourceSansPro-Regular-108"/>
    <use x="1043.39978" xlink:href="#SourceSansPro-Regular-102"/>
    <use x="1072.599777" xlink:href="#SourceSansPro-Regular-32"/>
    <use x="1092.599762" xlink:href="#SourceSansPro-Regular-119"/>
    <use x="1164.39975" xlink:href="#SourceSansPro-Regular-105"/>
    <use x="1188.999741" xlink:href="#SourceSansPro-Regular-116"/>
    <use x="1222.799728" xlink:href="#SourceSansPro-Regular-104"/>
    <use x="1277.199722" xlink:href="#SourceSansPro-Regular-105"/>
    <use x="1301.799713" xlink:href="#SourceSansPro-Regular-110"/>
    <use x="1356.49971" xlink:href="#SourceSansPro-Regular-32"/>
    <use x="1376.499695" xlink:href="#SourceSansPro-Regular-51"/>
    <use x="1426.199692" xlink:href="#SourceSansPro-Regular-32"/>
    <use x="1446.199677" xlink:href="#SourceSansPro-Regular-109"/>
    <use x="1529.09967" xlink:href="#SourceSansPro-Regular-105"/>
    <use x="1553.699661" xlink:href="#SourceSansPro-Regular-110"/>
    <use x="1608.399658" xlink:href="#SourceSansPro-Regular-115"/>
   </g>
  </g>
 </g>
 <defs>
  <clipPath id="p134af6413c">
   <rect height="255.75625" width="154.655098" x="45.175" y="26.8"/>
  </clipPath>
  <clipPath id="p1d6fb61a00">
   <rect height="255.75625" width="154.655098" x="266.544902" y="26.8"/>
  </clipPath>
 </defs>
</svg>
