<?xml version="1.0" encoding="utf-8" standalone="no"?>
<!DOCTYPE svg PUBLIC "-//W3C//DTD SVG 1.1//EN"
  "http://www.w3.org/Graphics/SVG/1.1/DTD/svg11.dtd">
<!-- Created with matplotlib (https://matplotlib.org/) -->
<svg height="324pt" version="1.1" viewBox="0 0 432 324" width="432pt" xmlns="http://www.w3.org/2000/svg" xmlns:xlink="http://www.w3.org/1999/xlink">
 <defs>
  <style type="text/css">
*{stroke-linecap:butt;stroke-linejoin:round;}
  </style>
 </defs>
 <g id="figure_1">
  <g id="patch_1">
   <path d="M 0 324 
L 432 324 
L 432 0 
L 0 0 
z
" style="fill:#ffffff;"/>
  </g>
  <g id="axes_1">
   <g id="patch_2">
    <path d="M 36.3 287.7 
L 421.2 287.7 
L 421.2 41.8 
L 36.3 41.8 
z
" style="fill:#eaeaf2;"/>
   </g>
   <g id="matplotlib.axis_1">
    <g id="xtick_1">
     <g id="line2d_1"/>
     <g id="text_1">
      <!-- Isambard -->
      <defs>
       <path d="M 9 65.59375 
L 17.296875 65.59375 
L 17.296875 0 
L 9 0 
z
" id="SourceSansPro-Regular-73"/>
       <path d="M 20.90625 -1.203125 
Q 15.703125 -1.203125 11 0.6875 
Q 6.296875 2.59375 2.796875 5.5 
L 6.90625 11 
Q 10.09375 8.40625 13.4375 6.796875 
Q 16.796875 5.203125 21.203125 5.203125 
Q 26 5.203125 28.390625 7.390625 
Q 30.796875 9.59375 30.796875 12.796875 
Q 30.796875 14.703125 29.796875 16.09375 
Q 28.796875 17.5 27.25 18.546875 
Q 25.703125 19.59375 23.703125 20.390625 
Q 21.703125 21.203125 19.703125 22 
Q 17.09375 22.90625 14.5 24.046875 
Q 11.90625 25.203125 9.84375 26.84375 
Q 7.796875 28.5 6.5 30.703125 
Q 5.203125 32.90625 5.203125 36 
Q 5.203125 38.90625 6.34375 41.453125 
Q 7.5 44 9.640625 45.84375 
Q 11.796875 47.703125 14.890625 48.75 
Q 18 49.796875 21.90625 49.796875 
Q 26.5 49.796875 30.34375 48.1875 
Q 34.203125 46.59375 37 44.296875 
L 33.09375 39.09375 
Q 30.59375 41 27.890625 42.203125 
Q 25.203125 43.40625 22 43.40625 
Q 17.40625 43.40625 15.25 41.296875 
Q 13.09375 39.203125 13.09375 36.40625 
Q 13.09375 34.703125 14 33.453125 
Q 14.90625 32.203125 16.40625 31.25 
Q 17.90625 30.296875 19.84375 29.546875 
Q 21.796875 28.796875 23.90625 28 
Q 26.5 27 29.140625 25.890625 
Q 31.796875 24.796875 33.890625 23.140625 
Q 36 21.5 37.34375 19.09375 
Q 38.703125 16.703125 38.703125 13.296875 
Q 38.703125 10.296875 37.546875 7.6875 
Q 36.40625 5.09375 34.15625 3.09375 
Q 31.90625 1.09375 28.546875 -0.046875 
Q 25.203125 -1.203125 20.90625 -1.203125 
z
" id="SourceSansPro-Regular-115"/>
       <path d="M 19.40625 -1.203125 
Q 13.296875 -1.203125 9.25 2.390625 
Q 5.203125 6 5.203125 12.59375 
Q 5.203125 20.59375 12.296875 24.84375 
Q 19.40625 29.09375 35 30.796875 
Q 35 33.09375 34.546875 35.296875 
Q 34.09375 37.5 33 39.203125 
Q 31.90625 40.90625 29.953125 41.953125 
Q 28 43 25 43 
Q 20.796875 43 17.09375 41.390625 
Q 13.40625 39.796875 10.5 37.796875 
L 7.296875 43.5 
Q 10.703125 45.703125 15.59375 47.75 
Q 20.5 49.796875 26.40625 49.796875 
Q 35.296875 49.796875 39.296875 44.34375 
Q 43.296875 38.90625 43.296875 29.796875 
L 43.296875 0 
L 36.5 0 
L 35.796875 5.796875 
L 35.5 5.796875 
Q 32 2.90625 28 0.84375 
Q 24 -1.203125 19.40625 -1.203125 
z
M 21.796875 5.40625 
Q 25.296875 5.40625 28.390625 7.046875 
Q 31.5 8.703125 35 11.90625 
L 35 25.40625 
Q 28.90625 24.59375 24.75 23.5 
Q 20.59375 22.40625 18.046875 20.90625 
Q 15.5 19.40625 14.34375 17.453125 
Q 13.203125 15.5 13.203125 13.203125 
Q 13.203125 9 15.703125 7.203125 
Q 18.203125 5.40625 21.796875 5.40625 
z
" id="SourceSansPro-Regular-97"/>
       <path d="M 8.203125 48.59375 
L 15 48.59375 
L 15.703125 41.59375 
L 16 41.59375 
Q 19.203125 45.09375 22.953125 47.4375 
Q 26.703125 49.796875 31.09375 49.796875 
Q 36.703125 49.796875 39.84375 47.34375 
Q 43 44.90625 44.5 40.5 
Q 48.296875 44.703125 52.140625 47.25 
Q 56 49.796875 60.5 49.796875 
Q 68 49.796875 71.640625 45 
Q 75.296875 40.203125 75.296875 30.796875 
L 75.296875 0 
L 67.09375 0 
L 67.09375 29.703125 
Q 67.09375 36.59375 64.890625 39.640625 
Q 62.703125 42.703125 58.09375 42.703125 
Q 52.59375 42.703125 45.90625 35.203125 
L 45.90625 0 
L 37.703125 0 
L 37.703125 29.703125 
Q 37.703125 36.59375 35.5 39.640625 
Q 33.296875 42.703125 28.59375 42.703125 
Q 23.09375 42.703125 16.40625 35.203125 
L 16.40625 0 
L 8.203125 0 
z
" id="SourceSansPro-Regular-109"/>
       <path d="M 29.703125 -1.203125 
Q 26.296875 -1.203125 22.640625 0.4375 
Q 19 2.09375 15.796875 5 
L 15.5 5 
L 14.796875 0 
L 8.203125 0 
L 8.203125 71.203125 
L 16.40625 71.203125 
L 16.40625 51.796875 
L 16.203125 43 
Q 19.5 45.90625 23.390625 47.84375 
Q 27.296875 49.796875 31.40625 49.796875 
Q 36.09375 49.796875 39.6875 48.046875 
Q 43.296875 46.296875 45.75 43.046875 
Q 48.203125 39.796875 49.453125 35.25 
Q 50.703125 30.703125 50.703125 25.09375 
Q 50.703125 18.90625 49 14 
Q 47.296875 9.09375 44.390625 5.6875 
Q 41.5 2.296875 37.703125 0.546875 
Q 33.90625 -1.203125 29.703125 -1.203125 
z
M 28.296875 5.703125 
Q 31.296875 5.703125 33.84375 7.046875 
Q 36.40625 8.40625 38.25 10.84375 
Q 40.09375 13.296875 41.140625 16.890625 
Q 42.203125 20.5 42.203125 25 
Q 42.203125 29 41.5 32.296875 
Q 40.796875 35.59375 39.25 37.9375 
Q 37.703125 40.296875 35.25 41.59375 
Q 32.796875 42.90625 29.40625 42.90625 
Q 23.5 42.90625 16.40625 36.296875 
L 16.40625 10.796875 
Q 19.59375 8 22.75 6.84375 
Q 25.90625 5.703125 28.296875 5.703125 
z
" id="SourceSansPro-Regular-98"/>
       <path d="M 8.203125 48.59375 
L 15 48.59375 
L 15.703125 39.796875 
L 16 39.796875 
Q 18.5 44.40625 22.046875 47.09375 
Q 25.59375 49.796875 29.796875 49.796875 
Q 32.703125 49.796875 35 48.796875 
L 33.40625 41.59375 
Q 32.203125 42 31.203125 42.203125 
Q 30.203125 42.40625 28.703125 42.40625 
Q 25.59375 42.40625 22.25 39.90625 
Q 18.90625 37.40625 16.40625 31.203125 
L 16.40625 0 
L 8.203125 0 
z
" id="SourceSansPro-Regular-114"/>
       <path d="M 24.796875 -1.203125 
Q 15.59375 -1.203125 10.140625 5.390625 
Q 4.703125 12 4.703125 24.203125 
Q 4.703125 30.09375 6.453125 34.84375 
Q 8.203125 39.59375 11.09375 42.890625 
Q 14 46.203125 17.796875 48 
Q 21.59375 49.796875 25.796875 49.796875 
Q 30 49.796875 33.09375 48.296875 
Q 36.203125 46.796875 39.40625 44.203125 
L 39 52.5 
L 39 71.203125 
L 47.296875 71.203125 
L 47.296875 0 
L 40.5 0 
L 39.796875 5.703125 
L 39.5 5.703125 
Q 36.59375 2.90625 32.84375 0.84375 
Q 29.09375 -1.203125 24.796875 -1.203125 
z
M 26.59375 5.703125 
Q 30 5.703125 33 7.34375 
Q 36 9 39 12.40625 
L 39 37.796875 
Q 35.90625 40.59375 33.046875 41.75 
Q 30.203125 42.90625 27.203125 42.90625 
Q 24.296875 42.90625 21.75 41.546875 
Q 19.203125 40.203125 17.296875 37.75 
Q 15.40625 35.296875 14.296875 31.890625 
Q 13.203125 28.5 13.203125 24.296875 
Q 13.203125 15.5 16.703125 10.59375 
Q 20.203125 5.703125 26.59375 5.703125 
z
" id="SourceSansPro-Regular-100"/>
      </defs>
      <g style="fill:#242121;" transform="translate(64.541406 298.320312)scale(0.1 -0.1)">
       <use xlink:href="#SourceSansPro-Regular-73"/>
       <use x="26.299988" xlink:href="#SourceSansPro-Regular-115"/>
       <use x="68.199982" xlink:href="#SourceSansPro-Regular-97"/>
       <use x="118.599976" xlink:href="#SourceSansPro-Regular-109"/>
       <use x="201.499969" xlink:href="#SourceSansPro-Regular-98"/>
       <use x="256.799957" xlink:href="#SourceSansPro-Regular-97"/>
       <use x="307.199951" xlink:href="#SourceSansPro-Regular-114"/>
       <use x="341.899948" xlink:href="#SourceSansPro-Regular-100"/>
      </g>
     </g>
    </g>
    <g id="xtick_2">
     <g id="line2d_2"/>
     <g id="text_2">
      <!-- Lysander -->
      <defs>
       <path d="M 9 65.59375 
L 17.296875 65.59375 
L 17.296875 7.09375 
L 46 7.09375 
L 46 0 
L 9 0 
z
" id="SourceSansPro-Regular-76"/>
       <path d="M 9 -20.90625 
Q 7.296875 -20.90625 5.890625 -20.65625 
Q 4.5 -20.40625 3.296875 -19.90625 
L 4.90625 -13.40625 
Q 5.703125 -13.59375 6.703125 -13.84375 
Q 7.703125 -14.09375 8.59375 -14.09375 
Q 12.796875 -14.09375 15.4375 -11.140625 
Q 18.09375 -8.203125 19.59375 -3.703125 
L 20.703125 -0.09375 
L 1.203125 48.59375 
L 9.703125 48.59375 
L 19.59375 21.703125 
Q 20.703125 18.5 21.953125 14.953125 
Q 23.203125 11.40625 24.296875 8 
L 24.703125 8 
Q 25.796875 11.296875 26.796875 14.890625 
Q 27.796875 18.5 28.796875 21.703125 
L 37.5 48.59375 
L 45.5 48.59375 
L 27.203125 -4 
Q 25.90625 -7.59375 24.296875 -10.6875 
Q 22.703125 -13.796875 20.5 -16.046875 
Q 18.296875 -18.296875 15.5 -19.59375 
Q 12.703125 -20.90625 9 -20.90625 
z
" id="SourceSansPro-Regular-121"/>
       <path d="M 8.203125 48.59375 
L 15 48.59375 
L 15.703125 41.59375 
L 16 41.59375 
Q 19.5 45.09375 23.34375 47.4375 
Q 27.203125 49.796875 32.296875 49.796875 
Q 40 49.796875 43.546875 45 
Q 47.09375 40.203125 47.09375 30.796875 
L 47.09375 0 
L 38.90625 0 
L 38.90625 29.703125 
Q 38.90625 36.59375 36.703125 39.640625 
Q 34.5 42.703125 29.703125 42.703125 
Q 25.90625 42.703125 23 40.796875 
Q 20.09375 38.90625 16.40625 35.203125 
L 16.40625 0 
L 8.203125 0 
z
" id="SourceSansPro-Regular-110"/>
       <path d="M 27.90625 -1.203125 
Q 23 -1.203125 18.75 0.546875 
Q 14.5 2.296875 11.34375 5.546875 
Q 8.203125 8.796875 6.390625 13.5 
Q 4.59375 18.203125 4.59375 24.203125 
Q 4.59375 30.203125 6.4375 34.953125 
Q 8.296875 39.703125 11.34375 43 
Q 14.40625 46.296875 18.296875 48.046875 
Q 22.203125 49.796875 26.40625 49.796875 
Q 31 49.796875 34.640625 48.1875 
Q 38.296875 46.59375 40.75 43.59375 
Q 43.203125 40.59375 44.5 36.390625 
Q 45.796875 32.203125 45.796875 27 
Q 45.796875 25.703125 45.75 24.453125 
Q 45.703125 23.203125 45.5 22.296875 
L 12.703125 22.296875 
Q 13.203125 14.5 17.546875 9.953125 
Q 21.90625 5.40625 28.90625 5.40625 
Q 32.40625 5.40625 35.34375 6.453125 
Q 38.296875 7.5 41 9.203125 
L 43.90625 3.796875 
Q 40.703125 1.796875 36.796875 0.296875 
Q 32.90625 -1.203125 27.90625 -1.203125 
z
M 38.59375 28.203125 
Q 38.59375 35.59375 35.4375 39.4375 
Q 32.296875 43.296875 26.59375 43.296875 
Q 24 43.296875 21.640625 42.296875 
Q 19.296875 41.296875 17.390625 39.34375 
Q 15.5 37.40625 14.25 34.59375 
Q 13 31.796875 12.59375 28.203125 
z
" id="SourceSansPro-Regular-101"/>
      </defs>
      <g style="fill:#242121;" transform="translate(161.532031 298.320312)scale(0.1 -0.1)">
       <use xlink:href="#SourceSansPro-Regular-76"/>
       <use x="48.599991" xlink:href="#SourceSansPro-Regular-121"/>
       <use x="95.299988" xlink:href="#SourceSansPro-Regular-115"/>
       <use x="137.199982" xlink:href="#SourceSansPro-Regular-97"/>
       <use x="187.599976" xlink:href="#SourceSansPro-Regular-110"/>
       <use x="242.299973" xlink:href="#SourceSansPro-Regular-100"/>
       <use x="297.799957" xlink:href="#SourceSansPro-Regular-101"/>
       <use x="347.399948" xlink:href="#SourceSansPro-Regular-114"/>
      </g>
     </g>
    </g>
    <g id="xtick_3">
     <g id="line2d_3"/>
     <g id="text_3">
      <!-- Perseus -->
      <defs>
       <path d="M 9 65.59375 
L 27.703125 65.59375 
Q 33.203125 65.59375 37.75 64.59375 
Q 42.296875 63.59375 45.5 61.34375 
Q 48.703125 59.09375 50.5 55.390625 
Q 52.296875 51.703125 52.296875 46.296875 
Q 52.296875 41.09375 50.546875 37.296875 
Q 48.796875 33.5 45.59375 31 
Q 42.40625 28.5 37.953125 27.25 
Q 33.5 26 28.09375 26 
L 17.296875 26 
L 17.296875 0 
L 9 0 
z
M 27.09375 32.796875 
Q 35.703125 32.796875 39.84375 36.046875 
Q 44 39.296875 44 46.296875 
Q 44 53.40625 39.640625 56.15625 
Q 35.296875 58.90625 26.703125 58.90625 
L 17.296875 58.90625 
L 17.296875 32.796875 
z
" id="SourceSansPro-Regular-80"/>
       <path d="M 22.40625 -1.203125 
Q 14.59375 -1.203125 11.046875 3.59375 
Q 7.5 8.40625 7.5 17.796875 
L 7.5 48.59375 
L 15.796875 48.59375 
L 15.796875 18.90625 
Q 15.796875 12 17.9375 8.953125 
Q 20.09375 5.90625 24.90625 5.90625 
Q 28.703125 5.90625 31.59375 7.84375 
Q 34.5 9.796875 38 14.09375 
L 38 48.59375 
L 46.203125 48.59375 
L 46.203125 0 
L 39.40625 0 
L 38.703125 7.59375 
L 38.40625 7.59375 
Q 35 3.59375 31.25 1.1875 
Q 27.5 -1.203125 22.40625 -1.203125 
z
" id="SourceSansPro-Regular-117"/>
      </defs>
      <g style="fill:#242121;" transform="translate(260.427344 298.320312)scale(0.1 -0.1)">
       <use xlink:href="#SourceSansPro-Regular-80"/>
       <use x="56.599991" xlink:href="#SourceSansPro-Regular-101"/>
       <use x="106.199982" xlink:href="#SourceSansPro-Regular-114"/>
       <use x="140.899979" xlink:href="#SourceSansPro-Regular-115"/>
       <use x="182.799973" xlink:href="#SourceSansPro-Regular-101"/>
       <use x="232.399963" xlink:href="#SourceSansPro-Regular-117"/>
       <use x="286.799957" xlink:href="#SourceSansPro-Regular-115"/>
      </g>
     </g>
    </g>
    <g id="xtick_4">
     <g id="line2d_4"/>
     <g id="text_4">
      <!-- Seraphina -->
      <defs>
       <path d="M 27.203125 -1.203125 
Q 20.296875 -1.203125 14.390625 1.390625 
Q 8.5 4 4.203125 8.5 
L 9.203125 14.296875 
Q 12.703125 10.59375 17.453125 8.34375 
Q 22.203125 6.09375 27.296875 6.09375 
Q 33.796875 6.09375 37.390625 9.046875 
Q 41 12 41 16.796875 
Q 41 19.296875 40.140625 21.046875 
Q 39.296875 22.796875 37.84375 24.046875 
Q 36.40625 25.296875 34.40625 26.296875 
Q 32.40625 27.296875 30.09375 28.40625 
L 20.703125 32.5 
Q 18.40625 33.5 16 34.890625 
Q 13.59375 36.296875 11.6875 38.296875 
Q 9.796875 40.296875 8.59375 43.046875 
Q 7.40625 45.796875 7.40625 49.40625 
Q 7.40625 53.09375 8.953125 56.296875 
Q 10.5 59.5 13.25 61.84375 
Q 16 64.203125 19.75 65.5 
Q 23.5 66.796875 28 66.796875 
Q 33.90625 66.796875 38.90625 64.546875 
Q 43.90625 62.296875 47.40625 58.703125 
L 42.90625 53.296875 
Q 39.90625 56.203125 36.25 57.84375 
Q 32.59375 59.5 28 59.5 
Q 22.5 59.5 19.140625 56.953125 
Q 15.796875 54.40625 15.796875 49.90625 
Q 15.796875 47.5 16.75 45.84375 
Q 17.703125 44.203125 19.296875 42.953125 
Q 20.90625 41.703125 22.796875 40.75 
Q 24.703125 39.796875 26.703125 39 
L 36 35 
Q 38.796875 33.796875 41.296875 32.25 
Q 43.796875 30.703125 45.59375 28.640625 
Q 47.40625 26.59375 48.453125 23.84375 
Q 49.5 21.09375 49.5 17.5 
Q 49.5 13.59375 47.953125 10.1875 
Q 46.40625 6.796875 43.5 4.25 
Q 40.59375 1.703125 36.5 0.25 
Q 32.40625 -1.203125 27.203125 -1.203125 
z
" id="SourceSansPro-Regular-83"/>
       <path d="M 8.203125 48.59375 
L 15 48.59375 
L 15.703125 43 
L 16 43 
Q 19.296875 45.796875 23.25 47.796875 
Q 27.203125 49.796875 31.5 49.796875 
Q 36.203125 49.796875 39.796875 48.046875 
Q 43.40625 46.296875 45.796875 43.046875 
Q 48.203125 39.796875 49.453125 35.25 
Q 50.703125 30.703125 50.703125 25 
Q 50.703125 18.796875 49 13.9375 
Q 47.296875 9.09375 44.390625 5.6875 
Q 41.5 2.296875 37.703125 0.546875 
Q 33.90625 -1.203125 29.703125 -1.203125 
Q 26.296875 -1.203125 22.9375 0.296875 
Q 19.59375 1.796875 16.203125 4.40625 
L 16.40625 -4.09375 
L 16.40625 -20.5 
L 8.203125 -20.5 
z
M 28.296875 5.703125 
Q 31.296875 5.703125 33.84375 7.046875 
Q 36.40625 8.40625 38.25 10.84375 
Q 40.09375 13.296875 41.140625 16.890625 
Q 42.203125 20.5 42.203125 25 
Q 42.203125 29 41.5 32.296875 
Q 40.796875 35.59375 39.25 37.9375 
Q 37.703125 40.296875 35.25 41.59375 
Q 32.796875 42.90625 29.40625 42.90625 
Q 26.296875 42.90625 23.140625 41.203125 
Q 20 39.5 16.40625 36.296875 
L 16.40625 10.796875 
Q 19.703125 8 22.796875 6.84375 
Q 25.90625 5.703125 28.296875 5.703125 
z
" id="SourceSansPro-Regular-112"/>
       <path d="M 8.203125 71.203125 
L 16.40625 71.203125 
L 16.40625 51.796875 
L 16.09375 41.796875 
Q 19.59375 45.09375 23.390625 47.4375 
Q 27.203125 49.796875 32.296875 49.796875 
Q 40 49.796875 43.546875 45 
Q 47.09375 40.203125 47.09375 30.796875 
L 47.09375 0 
L 38.90625 0 
L 38.90625 29.703125 
Q 38.90625 36.59375 36.703125 39.640625 
Q 34.5 42.703125 29.703125 42.703125 
Q 25.90625 42.703125 23 40.796875 
Q 20.09375 38.90625 16.40625 35.203125 
L 16.40625 0 
L 8.203125 0 
z
" id="SourceSansPro-Regular-104"/>
       <path d="M 8.203125 48.59375 
L 16.40625 48.59375 
L 16.40625 0 
L 8.203125 0 
z
M 12.40625 58.59375 
Q 10 58.59375 8.34375 60.09375 
Q 6.703125 61.59375 6.703125 63.90625 
Q 6.703125 66.296875 8.34375 67.75 
Q 10 69.203125 12.40625 69.203125 
Q 14.796875 69.203125 16.4375 67.75 
Q 18.09375 66.296875 18.09375 63.90625 
Q 18.09375 61.59375 16.4375 60.09375 
Q 14.796875 58.59375 12.40625 58.59375 
z
" id="SourceSansPro-Regular-105"/>
      </defs>
      <g style="fill:#242121;" transform="translate(351.701562 298.320312)scale(0.1 -0.1)">
       <use xlink:href="#SourceSansPro-Regular-83"/>
       <use x="53.399994" xlink:href="#SourceSansPro-Regular-101"/>
       <use x="102.999985" xlink:href="#SourceSansPro-Regular-114"/>
       <use x="137.699982" xlink:href="#SourceSansPro-Regular-97"/>
       <use x="188.099976" xlink:href="#SourceSansPro-Regular-112"/>
       <use x="243.59996" xlink:href="#SourceSansPro-Regular-104"/>
       <use x="297.999954" xlink:href="#SourceSansPro-Regular-105"/>
       <use x="322.599945" xlink:href="#SourceSansPro-Regular-110"/>
       <use x="377.299942" xlink:href="#SourceSansPro-Regular-97"/>
      </g>
     </g>
    </g>
    <g id="text_5">
     <!-- Responding to... -->
     <defs>
      <path d="M 17.296875 34.5 
L 28.296875 34.5 
Q 36 34.5 40.09375 37.640625 
Q 44.203125 40.796875 44.203125 47.203125 
Q 44.203125 53.703125 40.09375 56.296875 
Q 36 58.90625 28.296875 58.90625 
L 17.296875 58.90625 
z
M 45 0 
L 29.203125 27.703125 
L 17.296875 27.703125 
L 17.296875 0 
L 9 0 
L 9 65.59375 
L 29.5 65.59375 
Q 34.5 65.59375 38.75 64.640625 
Q 43 63.703125 46.046875 61.5 
Q 49.09375 59.296875 50.796875 55.796875 
Q 52.5 52.296875 52.5 47.203125 
Q 52.5 39.5 48.5 34.890625 
Q 44.5 30.296875 37.796875 28.59375 
L 54.40625 0 
z
" id="SourceSansPro-Regular-82"/>
      <path d="M 27.09375 -1.203125 
Q 22.59375 -1.203125 18.546875 0.5 
Q 14.5 2.203125 11.390625 5.453125 
Q 8.296875 8.703125 6.4375 13.453125 
Q 4.59375 18.203125 4.59375 24.203125 
Q 4.59375 30.296875 6.4375 35.046875 
Q 8.296875 39.796875 11.390625 43.09375 
Q 14.5 46.40625 18.546875 48.09375 
Q 22.59375 49.796875 27.09375 49.796875 
Q 31.59375 49.796875 35.640625 48.09375 
Q 39.703125 46.40625 42.796875 43.09375 
Q 45.90625 39.796875 47.75 35.046875 
Q 49.59375 30.296875 49.59375 24.203125 
Q 49.59375 18.203125 47.75 13.453125 
Q 45.90625 8.703125 42.796875 5.453125 
Q 39.703125 2.203125 35.640625 0.5 
Q 31.59375 -1.203125 27.09375 -1.203125 
z
M 27.09375 5.59375 
Q 30.203125 5.59375 32.796875 6.9375 
Q 35.40625 8.296875 37.25 10.75 
Q 39.09375 13.203125 40.09375 16.59375 
Q 41.09375 20 41.09375 24.203125 
Q 41.09375 28.40625 40.09375 31.84375 
Q 39.09375 35.296875 37.25 37.796875 
Q 35.40625 40.296875 32.796875 41.640625 
Q 30.203125 43 27.09375 43 
Q 24 43 21.390625 41.640625 
Q 18.796875 40.296875 16.9375 37.796875 
Q 15.09375 35.296875 14.09375 31.84375 
Q 13.09375 28.40625 13.09375 24.203125 
Q 13.09375 20 14.09375 16.59375 
Q 15.09375 13.203125 16.9375 10.75 
Q 18.796875 8.296875 21.390625 6.9375 
Q 24 5.59375 27.09375 5.59375 
z
" id="SourceSansPro-Regular-111"/>
      <path d="M 24.59375 -22.40625 
Q 20.09375 -22.40625 16.390625 -21.546875 
Q 12.703125 -20.703125 10.046875 -19 
Q 7.40625 -17.296875 5.953125 -14.890625 
Q 4.5 -12.5 4.5 -9.296875 
Q 4.5 -6.203125 6.390625 -3.390625 
Q 8.296875 -0.59375 11.59375 1.703125 
L 11.59375 2.09375 
Q 9.796875 3.203125 8.546875 5.140625 
Q 7.296875 7.09375 7.296875 10 
Q 7.296875 13.09375 9 15.390625 
Q 10.703125 17.703125 12.59375 19 
L 12.59375 19.40625 
Q 10.203125 21.40625 8.25 24.75 
Q 6.296875 28.09375 6.296875 32.5 
Q 6.296875 36.5 7.75 39.703125 
Q 9.203125 42.90625 11.703125 45.15625 
Q 14.203125 47.40625 17.546875 48.59375 
Q 20.90625 49.796875 24.59375 49.796875 
Q 26.59375 49.796875 28.34375 49.4375 
Q 30.09375 49.09375 31.5 48.59375 
L 48.40625 48.59375 
L 48.40625 42.296875 
L 38.40625 42.296875 
Q 40.09375 40.59375 41.25 38 
Q 42.40625 35.40625 42.40625 32.296875 
Q 42.40625 28.40625 41 25.25 
Q 39.59375 22.09375 37.1875 19.9375 
Q 34.796875 17.796875 31.546875 16.59375 
Q 28.296875 15.40625 24.59375 15.40625 
Q 22.796875 15.40625 20.890625 15.84375 
Q 19 16.296875 17.296875 17.09375 
Q 16 16 15.09375 14.640625 
Q 14.203125 13.296875 14.203125 11.296875 
Q 14.203125 9 16 7.5 
Q 17.796875 6 22.796875 6 
L 32.203125 6 
Q 40.703125 6 44.953125 3.25 
Q 49.203125 0.5 49.203125 -5.59375 
Q 49.203125 -9 47.5 -12.046875 
Q 45.796875 -15.09375 42.59375 -17.390625 
Q 39.40625 -19.703125 34.84375 -21.046875 
Q 30.296875 -22.40625 24.59375 -22.40625 
z
M 24.59375 20.90625 
Q 26.703125 20.90625 28.546875 21.703125 
Q 30.40625 22.5 31.84375 24 
Q 33.296875 25.5 34.09375 27.640625 
Q 34.90625 29.796875 34.90625 32.5 
Q 34.90625 37.90625 31.90625 40.84375 
Q 28.90625 43.796875 24.59375 43.796875 
Q 20.296875 43.796875 17.296875 40.84375 
Q 14.296875 37.90625 14.296875 32.5 
Q 14.296875 29.796875 15.09375 27.640625 
Q 15.90625 25.5 17.34375 24 
Q 18.796875 22.5 20.640625 21.703125 
Q 22.5 20.90625 24.59375 20.90625 
z
M 25.796875 -16.703125 
Q 29.296875 -16.703125 32.140625 -15.84375 
Q 35 -15 37 -13.640625 
Q 39 -12.296875 40.09375 -10.5 
Q 41.203125 -8.703125 41.203125 -6.796875 
Q 41.203125 -3.40625 38.703125 -2.09375 
Q 36.203125 -0.796875 31.40625 -0.796875 
L 23 -0.796875 
Q 21.59375 -0.796875 19.9375 -0.640625 
Q 18.296875 -0.5 16.703125 0 
Q 14.09375 -1.90625 12.890625 -4 
Q 11.703125 -6.09375 11.703125 -8.203125 
Q 11.703125 -12.09375 15.453125 -14.390625 
Q 19.203125 -16.703125 25.796875 -16.703125 
z
" id="SourceSansPro-Regular-103"/>
      <path id="SourceSansPro-Regular-32"/>
      <path d="M 23.5 -1.203125 
Q 19.59375 -1.203125 16.9375 0 
Q 14.296875 1.203125 12.640625 3.296875 
Q 11 5.40625 10.296875 8.40625 
Q 9.59375 11.40625 9.59375 15 
L 9.59375 41.90625 
L 2.40625 41.90625 
L 2.40625 48.09375 
L 10 48.59375 
L 11 62.203125 
L 17.90625 62.203125 
L 17.90625 48.59375 
L 31 48.59375 
L 31 41.90625 
L 17.90625 41.90625 
L 17.90625 14.90625 
Q 17.90625 10.40625 19.546875 7.953125 
Q 21.203125 5.5 25.40625 5.5 
Q 26.703125 5.5 28.203125 5.890625 
Q 29.703125 6.296875 30.90625 6.796875 
L 32.5 0.59375 
Q 30.5 -0.09375 28.140625 -0.640625 
Q 25.796875 -1.203125 23.5 -1.203125 
z
" id="SourceSansPro-Regular-116"/>
      <path d="M 12.5 -1.203125 
Q 10 -1.203125 8.25 0.546875 
Q 6.5 2.296875 6.5 5 
Q 6.5 7.90625 8.25 9.65625 
Q 10 11.40625 12.5 11.40625 
Q 14.90625 11.40625 16.65625 9.65625 
Q 18.40625 7.90625 18.40625 5 
Q 18.40625 2.296875 16.65625 0.546875 
Q 14.90625 -1.203125 12.5 -1.203125 
z
" id="SourceSansPro-Regular-46"/>
     </defs>
     <g style="fill:#242121;" transform="translate(194.713281 311.53125)scale(0.1 -0.1)">
      <use xlink:href="#SourceSansPro-Regular-82"/>
      <use x="56.899994" xlink:href="#SourceSansPro-Regular-101"/>
      <use x="106.499985" xlink:href="#SourceSansPro-Regular-115"/>
      <use x="148.399979" xlink:href="#SourceSansPro-Regular-112"/>
      <use x="203.899963" xlink:href="#SourceSansPro-Regular-111"/>
      <use x="258.09996" xlink:href="#SourceSansPro-Regular-110"/>
      <use x="312.799957" xlink:href="#SourceSansPro-Regular-100"/>
      <use x="368.299942" xlink:href="#SourceSansPro-Regular-105"/>
      <use x="392.899933" xlink:href="#SourceSansPro-Regular-110"/>
      <use x="447.59993" xlink:href="#SourceSansPro-Regular-103"/>
      <use x="497.999924" xlink:href="#SourceSansPro-Regular-32"/>
      <use x="517.999908" xlink:href="#SourceSansPro-Regular-116"/>
      <use x="551.799896" xlink:href="#SourceSansPro-Regular-111"/>
      <use x="605.999893" xlink:href="#SourceSansPro-Regular-46"/>
      <use x="630.899887" xlink:href="#SourceSansPro-Regular-46"/>
      <use x="655.799881" xlink:href="#SourceSansPro-Regular-46"/>
     </g>
    </g>
   </g>
   <g id="matplotlib.axis_2">
    <g id="ytick_1">
     <g id="line2d_5"/>
     <g id="text_6">
      <!-- Isambard -->
      <g style="fill:#242121;" transform="translate(30.75 92.408594)rotate(-90)scale(0.1 -0.1)">
       <use xlink:href="#SourceSansPro-Regular-73"/>
       <use x="26.299988" xlink:href="#SourceSansPro-Regular-115"/>
       <use x="68.199982" xlink:href="#SourceSansPro-Regular-97"/>
       <use x="118.599976" xlink:href="#SourceSansPro-Regular-109"/>
       <use x="201.499969" xlink:href="#SourceSansPro-Regular-98"/>
       <use x="256.799957" xlink:href="#SourceSansPro-Regular-97"/>
       <use x="307.199951" xlink:href="#SourceSansPro-Regular-114"/>
       <use x="341.899948" xlink:href="#SourceSansPro-Regular-100"/>
      </g>
     </g>
    </g>
    <g id="ytick_2">
     <g id="line2d_6"/>
     <g id="text_7">
      <!-- Lysander -->
      <g style="fill:#242121;" transform="translate(30.709375 153.117969)rotate(-90)scale(0.1 -0.1)">
       <use xlink:href="#SourceSansPro-Regular-76"/>
       <use x="48.599991" xlink:href="#SourceSansPro-Regular-121"/>
       <use x="95.299988" xlink:href="#SourceSansPro-Regular-115"/>
       <use x="137.199982" xlink:href="#SourceSansPro-Regular-97"/>
       <use x="187.599976" xlink:href="#SourceSansPro-Regular-110"/>
       <use x="242.299973" xlink:href="#SourceSansPro-Regular-100"/>
       <use x="297.799957" xlink:href="#SourceSansPro-Regular-101"/>
       <use x="347.399948" xlink:href="#SourceSansPro-Regular-114"/>
      </g>
     </g>
    </g>
    <g id="ytick_3">
     <g id="line2d_7"/>
     <g id="text_8">
      <!-- Perseus -->
      <g style="fill:#242121;" transform="translate(30.75 211.922656)rotate(-90)scale(0.1 -0.1)">
       <use xlink:href="#SourceSansPro-Regular-80"/>
       <use x="56.599991" xlink:href="#SourceSansPro-Regular-101"/>
       <use x="106.199982" xlink:href="#SourceSansPro-Regular-114"/>
       <use x="140.899979" xlink:href="#SourceSansPro-Regular-115"/>
       <use x="182.799973" xlink:href="#SourceSansPro-Regular-101"/>
       <use x="232.399963" xlink:href="#SourceSansPro-Regular-117"/>
       <use x="286.799957" xlink:href="#SourceSansPro-Regular-115"/>
      </g>
     </g>
    </g>
    <g id="ytick_4">
     <g id="line2d_8"/>
     <g id="text_9">
      <!-- Seraphina -->
      <g style="fill:#242121;" transform="translate(30.75 278.348437)rotate(-90)scale(0.1 -0.1)">
       <use xlink:href="#SourceSansPro-Regular-83"/>
       <use x="53.399994" xlink:href="#SourceSansPro-Regular-101"/>
       <use x="102.999985" xlink:href="#SourceSansPro-Regular-114"/>
       <use x="137.699982" xlink:href="#SourceSansPro-Regular-97"/>
       <use x="188.099976" xlink:href="#SourceSansPro-Regular-112"/>
       <use x="243.59996" xlink:href="#SourceSansPro-Regular-104"/>
       <use x="297.999954" xlink:href="#SourceSansPro-Regular-105"/>
       <use x="322.599945" xlink:href="#SourceSansPro-Regular-110"/>
       <use x="377.299942" xlink:href="#SourceSansPro-Regular-97"/>
      </g>
     </g>
    </g>
    <g id="text_10">
     <!-- Message author -->
     <defs>
      <path d="M 9 65.59375 
L 19 65.59375 
L 31.59375 30.59375 
Q 32.796875 27.203125 33.9375 23.75 
Q 35.09375 20.296875 36.296875 16.90625 
L 36.703125 16.90625 
Q 37.90625 20.296875 38.953125 23.75 
Q 40 27.203125 41.203125 30.59375 
L 53.59375 65.59375 
L 63.703125 65.59375 
L 63.703125 0 
L 55.90625 0 
L 55.90625 36.09375 
Q 55.90625 40.5 56.296875 45.796875 
Q 56.703125 51.09375 57 55.5 
L 56.59375 55.5 
L 51.40625 40.59375 
L 39 6.59375 
L 33.5 6.59375 
L 21.09375 40.59375 
L 15.90625 55.5 
L 15.5 55.5 
Q 15.796875 51.09375 16.140625 45.796875 
Q 16.5 40.5 16.5 36.09375 
L 16.5 0 
L 9 0 
z
" id="SourceSansPro-Regular-77"/>
     </defs>
     <g style="fill:#242121;" transform="translate(17.348438 197.671875)rotate(-90)scale(0.1 -0.1)">
      <use xlink:href="#SourceSansPro-Regular-77"/>
      <use x="72.699982" xlink:href="#SourceSansPro-Regular-101"/>
      <use x="122.299973" xlink:href="#SourceSansPro-Regular-115"/>
      <use x="164.199966" xlink:href="#SourceSansPro-Regular-115"/>
      <use x="206.09996" xlink:href="#SourceSansPro-Regular-97"/>
      <use x="256.499954" xlink:href="#SourceSansPro-Regular-103"/>
      <use x="306.899948" xlink:href="#SourceSansPro-Regular-101"/>
      <use x="356.499939" xlink:href="#SourceSansPro-Regular-32"/>
      <use x="376.499924" xlink:href="#SourceSansPro-Regular-97"/>
      <use x="426.899918" xlink:href="#SourceSansPro-Regular-117"/>
      <use x="481.299911" xlink:href="#SourceSansPro-Regular-116"/>
      <use x="515.099899" xlink:href="#SourceSansPro-Regular-104"/>
      <use x="569.499893" xlink:href="#SourceSansPro-Regular-111"/>
      <use x="623.69989" xlink:href="#SourceSansPro-Regular-114"/>
     </g>
    </g>
   </g>
   <g id="QuadMesh_1">
    <path clip-path="url(#pf8b4d91d30)" d="M 36.3 41.8 
L 132.525 41.8 
L 132.525 103.275 
L 36.3 103.275 
L 36.3 41.8 
" style="fill:#22a785;"/>
    <path clip-path="url(#pf8b4d91d30)" d="M 132.525 41.8 
L 228.75 41.8 
L 228.75 103.275 
L 132.525 103.275 
L 132.525 41.8 
" style="fill:#1f9a8a;"/>
    <path clip-path="url(#pf8b4d91d30)" d="M 228.75 41.8 
L 324.975 41.8 
L 324.975 103.275 
L 228.75 103.275 
L 228.75 41.8 
" style="fill:#228b8d;"/>
    <path clip-path="url(#pf8b4d91d30)" d="M 324.975 41.8 
L 421.2 41.8 
L 421.2 103.275 
L 324.975 103.275 
L 324.975 41.8 
" style="fill:#21918c;"/>
    <path clip-path="url(#pf8b4d91d30)" d="M 36.3 103.275 
L 132.525 103.275 
L 132.525 164.75 
L 36.3 164.75 
L 36.3 103.275 
" style="fill:#fde725;"/>
    <path clip-path="url(#pf8b4d91d30)" d="M 132.525 103.275 
L 228.75 103.275 
L 228.75 164.75 
L 132.525 164.75 
L 132.525 103.275 
" style="fill:#2c728e;"/>
    <path clip-path="url(#pf8b4d91d30)" d="M 228.75 103.275 
L 324.975 103.275 
L 324.975 164.75 
L 228.75 164.75 
L 228.75 103.275 
" style="fill:#32648e;"/>
    <path clip-path="url(#pf8b4d91d30)" d="M 324.975 103.275 
L 421.2 103.275 
L 421.2 164.75 
L 324.975 164.75 
L 324.975 103.275 
" style="fill:#277e8e;"/>
    <path clip-path="url(#pf8b4d91d30)" d="M 36.3 164.75 
L 132.525 164.75 
L 132.525 226.225 
L 36.3 226.225 
L 36.3 164.75 
" style="fill:#8ed645;"/>
    <path clip-path="url(#pf8b4d91d30)" d="M 132.525 164.75 
L 228.75 164.75 
L 228.75 226.225 
L 132.525 226.225 
L 132.525 164.75 
" style="fill:#38598c;"/>
    <path clip-path="url(#pf8b4d91d30)" d="M 228.75 164.75 
L 324.975 164.75 
L 324.975 226.225 
L 228.75 226.225 
L 228.75 164.75 
" style="fill:#20928c;"/>
    <path clip-path="url(#pf8b4d91d30)" d="M 324.975 164.75 
L 421.2 164.75 
L 421.2 226.225 
L 324.975 226.225 
L 324.975 164.75 
" style="fill:#20928c;"/>
    <path clip-path="url(#pf8b4d91d30)" d="M 36.3 226.225 
L 132.525 226.225 
L 132.525 287.7 
L 36.3 287.7 
L 36.3 226.225 
" style="fill:#86d549;"/>
    <path clip-path="url(#pf8b4d91d30)" d="M 132.525 226.225 
L 228.75 226.225 
L 228.75 287.7 
L 132.525 287.7 
L 132.525 226.225 
" style="fill:#26828e;"/>
    <path clip-path="url(#pf8b4d91d30)" d="M 228.75 226.225 
L 324.975 226.225 
L 324.975 287.7 
L 228.75 287.7 
L 228.75 226.225 
" style="fill:#20938c;"/>
    <path clip-path="url(#pf8b4d91d30)" d="M 324.975 226.225 
L 421.2 226.225 
L 421.2 287.7 
L 324.975 287.7 
L 324.975 226.225 
" style="fill:#2f6b8e;"/>
   </g>
   <g id="text_11">
    <!-- 28% -->
    <defs>
     <path d="M 4 4.90625 
Q 11.203125 12.09375 16.796875 17.890625 
Q 22.40625 23.703125 26.203125 28.640625 
Q 30 33.59375 32 37.75 
Q 34 41.90625 34 45.796875 
Q 34 51.296875 31 54.796875 
Q 28 58.296875 21.90625 58.296875 
Q 17.90625 58.296875 14.5 56.046875 
Q 11.09375 53.796875 8.296875 50.59375 
L 3.59375 55.296875 
Q 7.59375 59.703125 12.09375 62.34375 
Q 16.59375 65 22.90625 65 
Q 31.796875 65 36.890625 59.84375 
Q 42 54.703125 42 46.203125 
Q 42 41.703125 40.046875 37.140625 
Q 38.09375 32.59375 34.640625 27.75 
Q 31.203125 22.90625 26.453125 17.65625 
Q 21.703125 12.40625 16 6.5 
Q 18.59375 6.703125 21.390625 6.890625 
Q 24.203125 7.09375 26.703125 7.09375 
L 45.203125 7.09375 
L 45.203125 0 
L 4 0 
z
" id="SourceSansPro-Regular-50"/>
     <path d="M 25 -1.203125 
Q 20.5 -1.203125 16.640625 0.09375 
Q 12.796875 1.40625 10.046875 3.75 
Q 7.296875 6.09375 5.6875 9.296875 
Q 4.09375 12.5 4.09375 16.296875 
Q 4.09375 19.40625 5.140625 22.046875 
Q 6.203125 24.703125 7.84375 26.84375 
Q 9.5 29 11.640625 30.640625 
Q 13.796875 32.296875 16.09375 33.5 
L 16.09375 33.90625 
Q 12.59375 36.40625 9.890625 39.953125 
Q 7.203125 43.5 7.203125 48.59375 
Q 7.203125 52.296875 8.59375 55.296875 
Q 10 58.296875 12.390625 60.4375 
Q 14.796875 62.59375 18.09375 63.796875 
Q 21.40625 65 25.296875 65 
Q 29.5 65 32.796875 63.75 
Q 36.09375 62.5 38.4375 60.25 
Q 40.796875 58 42.046875 54.84375 
Q 43.296875 51.703125 43.296875 48 
Q 43.296875 45.5 42.4375 43.203125 
Q 41.59375 40.90625 40.34375 38.90625 
Q 39.09375 36.90625 37.546875 35.296875 
Q 36 33.703125 34.5 32.59375 
L 34.5 32.203125 
Q 36.59375 31 38.59375 29.453125 
Q 40.59375 27.90625 42.140625 25.953125 
Q 43.703125 24 44.640625 21.5 
Q 45.59375 19 45.59375 15.796875 
Q 45.59375 12.203125 44.09375 9.09375 
Q 42.59375 6 39.890625 3.703125 
Q 37.203125 1.40625 33.390625 0.09375 
Q 29.59375 -1.203125 25 -1.203125 
z
M 29.5 34.796875 
Q 32.703125 37.703125 34.453125 40.890625 
Q 36.203125 44.09375 36.203125 47.59375 
Q 36.203125 52.40625 33.296875 55.65625 
Q 30.40625 58.90625 25.09375 58.90625 
Q 20.59375 58.90625 17.6875 56.09375 
Q 14.796875 53.296875 14.796875 48.59375 
Q 14.796875 45.703125 16 43.640625 
Q 17.203125 41.59375 19.25 40 
Q 21.296875 38.40625 23.9375 37.15625 
Q 26.59375 35.90625 29.5 34.796875 
z
M 25.203125 4.90625 
Q 30.796875 4.90625 34.25 8 
Q 37.703125 11.09375 37.703125 16.09375 
Q 37.703125 19.203125 36.296875 21.390625 
Q 34.90625 23.59375 32.5 25.25 
Q 30.09375 26.90625 26.9375 28.25 
Q 23.796875 29.59375 20.40625 31 
Q 16.59375 28.40625 14.046875 24.953125 
Q 11.5 21.5 11.5 17.09375 
Q 11.5 14.40625 12.546875 12.203125 
Q 13.59375 10 15.4375 8.34375 
Q 17.296875 6.703125 19.796875 5.796875 
Q 22.296875 4.90625 25.203125 4.90625 
z
" id="SourceSansPro-Regular-56"/>
     <path d="M 18.40625 25.390625 
Q 11.59375 25.390625 7.546875 30.78125 
Q 3.5 36.1875 3.5 46.1875 
Q 3.5 56.09375 7.546875 61.4375 
Q 11.59375 66.796875 18.40625 66.796875 
Q 25.09375 66.796875 29.1875 61.4375 
Q 33.296875 56.09375 33.296875 46.1875 
Q 33.296875 36.1875 29.1875 30.78125 
Q 25.09375 25.390625 18.40625 25.390625 
z
M 18.40625 30.5 
Q 22.203125 30.5 24.59375 34.4375 
Q 27 38.390625 27 46.1875 
Q 27 54 24.59375 57.84375 
Q 22.203125 61.6875 18.40625 61.6875 
Q 14.5 61.6875 12.09375 57.84375 
Q 9.703125 54 9.703125 46.1875 
Q 9.703125 38.390625 12.09375 34.4375 
Q 14.5 30.5 18.40625 30.5 
z
M 56.40625 66.796875 
L 62 66.796875 
L 25.796875 -1.203125 
L 20.203125 -1.203125 
z
M 64.09375 -1.203125 
Q 57.296875 -1.203125 53.25 4.1875 
Q 49.203125 9.59375 49.203125 19.59375 
Q 49.203125 29.5 53.25 34.84375 
Q 57.296875 40.203125 64.09375 40.203125 
Q 70.796875 40.203125 74.890625 34.84375 
Q 79 29.5 79 19.59375 
Q 79 9.59375 74.890625 4.1875 
Q 70.796875 -1.203125 64.09375 -1.203125 
z
M 64.09375 3.90625 
Q 67.90625 3.90625 70.296875 7.84375 
Q 72.703125 11.796875 72.703125 19.59375 
Q 72.703125 27.40625 70.296875 31.25 
Q 67.90625 35.09375 64.09375 35.09375 
Q 60.203125 35.09375 57.796875 31.25 
Q 55.40625 27.40625 55.40625 19.59375 
Q 55.40625 11.796875 57.796875 7.84375 
Q 60.203125 3.90625 64.09375 3.90625 
z
" id="SourceSansPro-Regular-37"/>
    </defs>
    <g style="fill:#ffffff;" transform="translate(75.321875 75.072656)scale(0.1 -0.1)">
     <use xlink:href="#SourceSansPro-Regular-50"/>
     <use x="49.699997" xlink:href="#SourceSansPro-Regular-56"/>
     <use x="99.399994" xlink:href="#SourceSansPro-Regular-37"/>
    </g>
   </g>
   <g id="text_12">
    <!-- 26% -->
    <defs>
     <path d="M 26.796875 5.296875 
Q 29.203125 5.296875 31.203125 6.296875 
Q 33.203125 7.296875 34.703125 9.140625 
Q 36.203125 11 37.046875 13.546875 
Q 37.90625 16.09375 37.90625 19.296875 
Q 37.90625 25.59375 35 29.1875 
Q 32.09375 32.796875 26.09375 32.796875 
Q 23.09375 32.796875 19.546875 30.84375 
Q 16 28.90625 12.796875 24.40625 
Q 13.59375 15 17.140625 10.140625 
Q 20.703125 5.296875 26.796875 5.296875 
z
M 39.90625 53.09375 
Q 37.90625 55.40625 35.15625 56.75 
Q 32.40625 58.09375 29.40625 58.09375 
Q 26.09375 58.09375 23.09375 56.6875 
Q 20.09375 55.296875 17.796875 52.09375 
Q 15.5 48.90625 14.09375 43.75 
Q 12.703125 38.59375 12.59375 31 
Q 15.59375 34.703125 19.59375 36.84375 
Q 23.59375 39 27.5 39 
Q 35.796875 39 40.75 34.09375 
Q 45.703125 29.203125 45.703125 19.296875 
Q 45.703125 14.703125 44.203125 10.953125 
Q 42.703125 7.203125 40.09375 4.5 
Q 37.5 1.796875 34.09375 0.296875 
Q 30.703125 -1.203125 26.796875 -1.203125 
Q 22.09375 -1.203125 18.09375 0.6875 
Q 14.09375 2.59375 11.140625 6.4375 
Q 8.203125 10.296875 6.5 16.046875 
Q 4.796875 21.796875 4.796875 29.5 
Q 4.796875 39.09375 6.796875 45.84375 
Q 8.796875 52.59375 12.1875 56.84375 
Q 15.59375 61.09375 19.9375 63.046875 
Q 24.296875 65 29.09375 65 
Q 34.296875 65 38.046875 63.046875 
Q 41.796875 61.09375 44.5 58.203125 
z
" id="SourceSansPro-Regular-54"/>
    </defs>
    <g style="fill:#ffffff;" transform="translate(171.546875 75.072656)scale(0.1 -0.1)">
     <use xlink:href="#SourceSansPro-Regular-50"/>
     <use x="49.699997" xlink:href="#SourceSansPro-Regular-54"/>
     <use x="99.399994" xlink:href="#SourceSansPro-Regular-37"/>
    </g>
   </g>
   <g id="text_13">
    <!-- 23% -->
    <defs>
     <path d="M 23.59375 -1.203125 
Q 19.796875 -1.203125 16.640625 -0.453125 
Q 13.5 0.296875 10.890625 1.546875 
Q 8.296875 2.796875 6.25 4.390625 
Q 4.203125 6 2.59375 7.796875 
L 6.796875 13.203125 
Q 9.703125 10.203125 13.546875 7.890625 
Q 17.40625 5.59375 23.09375 5.59375 
Q 28.90625 5.59375 32.59375 8.75 
Q 36.296875 11.90625 36.296875 17.296875 
Q 36.296875 20.09375 35.25 22.4375 
Q 34.203125 24.796875 31.796875 26.5 
Q 29.40625 28.203125 25.5 29.09375 
Q 21.59375 30 15.90625 30 
L 15.90625 36.296875 
Q 21 36.296875 24.453125 37.1875 
Q 27.90625 38.09375 30.046875 39.6875 
Q 32.203125 41.296875 33.09375 43.5 
Q 34 45.703125 34 48.203125 
Q 34 52.90625 31.046875 55.59375 
Q 28.09375 58.296875 23 58.296875 
Q 19 58.296875 15.640625 56.5 
Q 12.296875 54.703125 9.40625 51.796875 
L 5 57 
Q 8.703125 60.5 13.140625 62.75 
Q 17.59375 65 23.296875 65 
Q 27.5 65 31 63.890625 
Q 34.5 62.796875 37.046875 60.75 
Q 39.59375 58.703125 41 55.703125 
Q 42.40625 52.703125 42.40625 48.796875 
Q 42.40625 43 39.203125 39.296875 
Q 36 35.59375 30.796875 33.59375 
L 30.796875 33.203125 
Q 33.703125 32.5 36.203125 31.140625 
Q 38.703125 29.796875 40.59375 27.75 
Q 42.5 25.703125 43.546875 23 
Q 44.59375 20.296875 44.59375 17 
Q 44.59375 12.796875 42.9375 9.390625 
Q 41.296875 6 38.4375 3.640625 
Q 35.59375 1.296875 31.796875 0.046875 
Q 28 -1.203125 23.59375 -1.203125 
z
" id="SourceSansPro-Regular-51"/>
    </defs>
    <g style="fill:#ffffff;" transform="translate(267.771875 75.072656)scale(0.1 -0.1)">
     <use xlink:href="#SourceSansPro-Regular-50"/>
     <use x="49.699997" xlink:href="#SourceSansPro-Regular-51"/>
     <use x="99.399994" xlink:href="#SourceSansPro-Regular-37"/>
    </g>
   </g>
   <g id="text_14">
    <!-- 24% -->
    <defs>
     <path d="M 30.40625 24.203125 
L 30.40625 42.703125 
Q 30.40625 45.296875 30.546875 48.84375 
Q 30.703125 52.40625 30.90625 55 
L 30.5 55 
Q 29.296875 52.703125 28 50.5 
Q 26.703125 48.296875 25.296875 46 
L 10.40625 24.203125 
z
M 46.90625 17.59375 
L 38.203125 17.59375 
L 38.203125 0 
L 30.40625 0 
L 30.40625 17.59375 
L 1.703125 17.59375 
L 1.703125 23 
L 29 63.796875 
L 38.203125 63.796875 
L 38.203125 24.203125 
L 46.90625 24.203125 
z
" id="SourceSansPro-Regular-52"/>
    </defs>
    <g style="fill:#ffffff;" transform="translate(363.996875 75.072656)scale(0.1 -0.1)">
     <use xlink:href="#SourceSansPro-Regular-50"/>
     <use x="49.699997" xlink:href="#SourceSansPro-Regular-52"/>
     <use x="99.399994" xlink:href="#SourceSansPro-Regular-37"/>
    </g>
   </g>
   <g id="text_15">
    <!-- 47% -->
    <defs>
     <path d="M 17.703125 0 
Q 18.09375 9 19.296875 16.5 
Q 20.5 24 22.640625 30.75 
Q 24.796875 37.5 28.140625 43.796875 
Q 31.5 50.09375 36.203125 56.703125 
L 4.40625 56.703125 
L 4.40625 63.796875 
L 45.5 63.796875 
L 45.5 58.703125 
Q 39.796875 51.5 36.25 44.890625 
Q 32.703125 38.296875 30.59375 31.4375 
Q 28.5 24.59375 27.546875 16.9375 
Q 26.59375 9.296875 26.203125 0 
L 17.703125 0 
z
" id="SourceSansPro-Regular-55"/>
    </defs>
    <g style="fill:#262626;" transform="translate(75.321875 136.547656)scale(0.1 -0.1)">
     <use xlink:href="#SourceSansPro-Regular-52"/>
     <use x="49.699997" xlink:href="#SourceSansPro-Regular-55"/>
     <use x="99.399994" xlink:href="#SourceSansPro-Regular-37"/>
    </g>
   </g>
   <g id="text_16">
    <!-- 18% -->
    <defs>
     <path d="M 7.90625 6.796875 
L 22.5 6.796875 
L 22.5 53.796875 
L 10.90625 53.796875 
L 10.90625 59.09375 
Q 15.296875 59.90625 18.546875 61.046875 
Q 21.796875 62.203125 24.40625 63.796875 
L 30.703125 63.796875 
L 30.703125 6.796875 
L 43.90625 6.796875 
L 43.90625 0 
L 7.90625 0 
z
" id="SourceSansPro-Regular-49"/>
    </defs>
    <g style="fill:#ffffff;" transform="translate(171.546875 136.547656)scale(0.1 -0.1)">
     <use xlink:href="#SourceSansPro-Regular-49"/>
     <use x="49.699997" xlink:href="#SourceSansPro-Regular-56"/>
     <use x="99.399994" xlink:href="#SourceSansPro-Regular-37"/>
    </g>
   </g>
   <g id="text_17">
    <!-- 15% -->
    <defs>
     <path d="M 23.40625 -1.203125 
Q 19.59375 -1.203125 16.4375 -0.453125 
Q 13.296875 0.296875 10.75 1.5 
Q 8.203125 2.703125 6.140625 4.25 
Q 4.09375 5.796875 2.5 7.5 
L 6.5 12.90625 
Q 9.296875 10 13.140625 7.796875 
Q 17 5.59375 22.59375 5.59375 
Q 25.5 5.59375 28.046875 6.640625 
Q 30.59375 7.703125 32.5 9.59375 
Q 34.40625 11.5 35.5 14.203125 
Q 36.59375 16.90625 36.59375 20.203125 
Q 36.59375 26.796875 32.890625 30.5 
Q 29.203125 34.203125 23 34.203125 
Q 19.703125 34.203125 17.34375 33.203125 
Q 15 32.203125 12.09375 30.296875 
L 7.703125 33.09375 
L 9.796875 63.796875 
L 41.703125 63.796875 
L 41.703125 56.703125 
L 17 56.703125 
L 15.296875 37.796875 
Q 17.59375 39 19.890625 39.703125 
Q 22.203125 40.40625 25.09375 40.40625 
Q 29.203125 40.40625 32.796875 39.203125 
Q 36.40625 38 39.09375 35.546875 
Q 41.796875 33.09375 43.34375 29.34375 
Q 44.90625 25.59375 44.90625 20.40625 
Q 44.90625 15.203125 43.09375 11.203125 
Q 41.296875 7.203125 38.296875 4.453125 
Q 35.296875 1.703125 31.4375 0.25 
Q 27.59375 -1.203125 23.40625 -1.203125 
z
" id="SourceSansPro-Regular-53"/>
    </defs>
    <g style="fill:#ffffff;" transform="translate(267.771875 136.547656)scale(0.1 -0.1)">
     <use xlink:href="#SourceSansPro-Regular-49"/>
     <use x="49.699997" xlink:href="#SourceSansPro-Regular-53"/>
     <use x="99.399994" xlink:href="#SourceSansPro-Regular-37"/>
    </g>
   </g>
   <g id="text_18">
    <!-- 20% -->
    <defs>
     <path d="M 24.90625 -1.203125 
Q 15.203125 -1.203125 9.796875 7.390625 
Q 4.40625 16 4.40625 32.09375 
Q 4.40625 48.203125 9.796875 56.59375 
Q 15.203125 65 24.90625 65 
Q 34.5 65 39.890625 56.59375 
Q 45.296875 48.203125 45.296875 32.09375 
Q 45.296875 16 39.890625 7.390625 
Q 34.5 -1.203125 24.90625 -1.203125 
z
M 24.90625 5.40625 
Q 27.703125 5.40625 29.953125 6.953125 
Q 32.203125 8.5 33.84375 11.75 
Q 35.5 15 36.390625 20.046875 
Q 37.296875 25.09375 37.296875 32.09375 
Q 37.296875 39.09375 36.390625 44.09375 
Q 35.5 49.09375 33.84375 52.25 
Q 32.203125 55.40625 29.953125 56.90625 
Q 27.703125 58.40625 24.90625 58.40625 
Q 22.09375 58.40625 19.796875 56.90625 
Q 17.5 55.40625 15.84375 52.25 
Q 14.203125 49.09375 13.296875 44.09375 
Q 12.40625 39.09375 12.40625 32.09375 
Q 12.40625 18.09375 15.84375 11.75 
Q 19.296875 5.40625 24.90625 5.40625 
z
" id="SourceSansPro-Regular-48"/>
    </defs>
    <g style="fill:#ffffff;" transform="translate(363.996875 136.547656)scale(0.1 -0.1)">
     <use xlink:href="#SourceSansPro-Regular-50"/>
     <use x="49.699997" xlink:href="#SourceSansPro-Regular-48"/>
     <use x="99.399994" xlink:href="#SourceSansPro-Regular-37"/>
    </g>
   </g>
   <g id="text_19">
    <!-- 39% -->
    <defs>
     <path d="M 23.5 31 
Q 26.59375 31 30.140625 32.953125 
Q 33.703125 34.90625 36.90625 39.5 
Q 36.09375 48.90625 32.5 53.703125 
Q 28.90625 58.5 22.796875 58.5 
Q 20.5 58.5 18.453125 57.5 
Q 16.40625 56.5 14.90625 54.640625 
Q 13.40625 52.796875 12.546875 50.1875 
Q 11.703125 47.59375 11.703125 44.5 
Q 11.703125 38.203125 14.59375 34.59375 
Q 17.5 31 23.5 31 
z
M 9.703125 10.703125 
Q 11.703125 8.40625 14.453125 7 
Q 17.203125 5.59375 20.203125 5.59375 
Q 23.59375 5.59375 26.59375 7 
Q 29.59375 8.40625 31.890625 11.65625 
Q 34.203125 14.90625 35.59375 20.09375 
Q 37 25.296875 37.09375 33 
Q 34.09375 29.203125 30.09375 27 
Q 26.09375 24.796875 22.09375 24.796875 
Q 13.796875 24.796875 8.890625 29.6875 
Q 4 34.59375 4 44.5 
Q 4 49.09375 5.5 52.84375 
Q 7 56.59375 9.546875 59.296875 
Q 12.09375 62 15.546875 63.5 
Q 19 65 22.796875 65 
Q 27.5 65 31.546875 63.09375 
Q 35.59375 61.203125 38.546875 57.34375 
Q 41.5 53.5 43.140625 47.75 
Q 44.796875 42 44.796875 34.296875 
Q 44.796875 24.703125 42.796875 17.953125 
Q 40.796875 11.203125 37.390625 6.953125 
Q 34 2.703125 29.640625 0.75 
Q 25.296875 -1.203125 20.5 -1.203125 
Q 15.40625 -1.203125 11.546875 0.6875 
Q 7.703125 2.59375 5.09375 5.5 
z
" id="SourceSansPro-Regular-57"/>
    </defs>
    <g style="fill:#262626;" transform="translate(75.321875 198.022656)scale(0.1 -0.1)">
     <use xlink:href="#SourceSansPro-Regular-51"/>
     <use x="49.699997" xlink:href="#SourceSansPro-Regular-57"/>
     <use x="99.399994" xlink:href="#SourceSansPro-Regular-37"/>
    </g>
   </g>
   <g id="text_20">
    <!-- 13% -->
    <g style="fill:#ffffff;" transform="translate(171.546875 198.022656)scale(0.1 -0.1)">
     <use xlink:href="#SourceSansPro-Regular-49"/>
     <use x="49.699997" xlink:href="#SourceSansPro-Regular-51"/>
     <use x="99.399994" xlink:href="#SourceSansPro-Regular-37"/>
    </g>
   </g>
   <g id="text_21">
    <!-- 24% -->
    <g style="fill:#ffffff;" transform="translate(267.771875 198.022656)scale(0.1 -0.1)">
     <use xlink:href="#SourceSansPro-Regular-50"/>
     <use x="49.699997" xlink:href="#SourceSansPro-Regular-52"/>
     <use x="99.399994" xlink:href="#SourceSansPro-Regular-37"/>
    </g>
   </g>
   <g id="text_22">
    <!-- 24% -->
    <g style="fill:#ffffff;" transform="translate(363.996875 198.022656)scale(0.1 -0.1)">
     <use xlink:href="#SourceSansPro-Regular-50"/>
     <use x="49.699997" xlink:href="#SourceSansPro-Regular-52"/>
     <use x="99.399994" xlink:href="#SourceSansPro-Regular-37"/>
    </g>
   </g>
   <g id="text_23">
    <!-- 39% -->
    <g style="fill:#262626;" transform="translate(75.321875 259.497656)scale(0.1 -0.1)">
     <use xlink:href="#SourceSansPro-Regular-51"/>
     <use x="49.699997" xlink:href="#SourceSansPro-Regular-57"/>
     <use x="99.399994" xlink:href="#SourceSansPro-Regular-37"/>
    </g>
   </g>
   <g id="text_24">
    <!-- 21% -->
    <g style="fill:#ffffff;" transform="translate(171.546875 259.497656)scale(0.1 -0.1)">
     <use xlink:href="#SourceSansPro-Regular-50"/>
     <use x="49.699997" xlink:href="#SourceSansPro-Regular-49"/>
     <use x="99.399994" xlink:href="#SourceSansPro-Regular-37"/>
    </g>
   </g>
   <g id="text_25">
    <!-- 24% -->
    <g style="fill:#ffffff;" transform="translate(267.771875 259.497656)scale(0.1 -0.1)">
     <use xlink:href="#SourceSansPro-Regular-50"/>
     <use x="49.699997" xlink:href="#SourceSansPro-Regular-52"/>
     <use x="99.399994" xlink:href="#SourceSansPro-Regular-37"/>
    </g>
   </g>
   <g id="text_26">
    <!-- 16% -->
    <g style="fill:#ffffff;" transform="translate(363.996875 259.497656)scale(0.1 -0.1)">
     <use xlink:href="#SourceSansPro-Regular-49"/>
     <use x="49.699997" xlink:href="#SourceSansPro-Regular-54"/>
     <use x="99.399994" xlink:href="#SourceSansPro-Regular-37"/>
    </g>
   </g>
   <g id="text_27">
    <!-- Author of previous message when a message is sent* -->
    <defs>
     <path d="M 36.90625 26.703125 
L 33.796875 36.703125 
Q 32 42.203125 30.390625 47.640625 
Q 28.796875 53.09375 27.203125 58.796875 
L 26.796875 58.796875 
Q 25.296875 53.09375 23.6875 47.640625 
Q 22.09375 42.203125 20.296875 36.703125 
L 17.203125 26.703125 
z
M 39 20 
L 15.09375 20 
L 8.796875 0 
L 0.296875 0 
L 22.5 65.59375 
L 31.90625 65.59375 
L 54.09375 0 
L 45.203125 0 
z
" id="SourceSansPro-Regular-65"/>
     <path d="M 30.09375 64.5 
Q 27.40625 65.703125 24.59375 65.703125 
Q 17.796875 65.703125 17.796875 56.296875 
L 17.796875 48.59375 
L 28.09375 48.59375 
L 28.09375 41.90625 
L 17.796875 41.90625 
L 17.796875 0 
L 9.59375 0 
L 9.59375 41.90625 
L 3 41.90625 
L 3 48.09375 
L 9.59375 48.59375 
L 9.59375 56.296875 
Q 9.59375 63.796875 13.046875 68.09375 
Q 16.5 72.40625 23.796875 72.40625 
Q 26.09375 72.40625 28.140625 71.953125 
Q 30.203125 71.5 31.90625 70.796875 
z
" id="SourceSansPro-Regular-102"/>
     <path d="M 1.203125 48.59375 
L 9.703125 48.59375 
L 18.90625 21 
Q 20 17.40625 21.140625 13.796875 
Q 22.296875 10.203125 23.40625 6.703125 
L 23.796875 6.703125 
Q 24.90625 10.203125 26 13.796875 
Q 27.09375 17.40625 28.203125 21 
L 37.40625 48.59375 
L 45.5 48.59375 
L 28.296875 0 
L 18.703125 0 
z
" id="SourceSansPro-Regular-118"/>
     <path d="M 2.40625 48.59375 
L 10.796875 48.59375 
L 18 20.5 
Q 18.796875 17 19.5 13.703125 
Q 20.203125 10.40625 20.90625 7 
L 21.296875 7 
Q 22.09375 10.40625 22.890625 13.75 
Q 23.703125 17.09375 24.59375 20.5 
L 32.09375 48.59375 
L 40.09375 48.59375 
L 47.703125 20.5 
Q 48.59375 17 49.4375 13.703125 
Q 50.296875 10.40625 51.09375 7 
L 51.5 7 
Q 52.296875 10.40625 53 13.703125 
Q 53.703125 17 54.5 20.5 
L 61.59375 48.59375 
L 69.40625 48.59375 
L 56.40625 0 
L 46.40625 0 
L 39.40625 26.09375 
Q 38.5 29.59375 37.75 33 
Q 37 36.40625 36.09375 40.09375 
L 35.703125 40.09375 
Q 34.90625 36.40625 34.09375 32.953125 
Q 33.296875 29.5 32.296875 26 
L 25.5 0 
L 15.90625 0 
z
" id="SourceSansPro-Regular-119"/>
     <path d="M 9.796875 44.90625 
L 15.5 54.296875 
L 5.796875 58.296875 
L 7.296875 62.90625 
L 17.5 60.40625 
L 18.40625 71.203125 
L 23.296875 71.203125 
L 24.203125 60.5 
L 34.5 62.90625 
L 36 58.296875 
L 26.296875 54.296875 
L 31.90625 44.90625 
L 28 42 
L 20.90625 50.59375 
L 13.796875 42 
z
" id="SourceSansPro-Regular-42"/>
    </defs>
    <g style="fill:#242121;" transform="translate(97.135312 34.964)scale(0.12 -0.12)">
     <use xlink:href="#SourceSansPro-Regular-65"/>
     <use x="54.399994" xlink:href="#SourceSansPro-Regular-117"/>
     <use x="108.799988" xlink:href="#SourceSansPro-Regular-116"/>
     <use x="142.599976" xlink:href="#SourceSansPro-Regular-104"/>
     <use x="196.999969" xlink:href="#SourceSansPro-Regular-111"/>
     <use x="251.199966" xlink:href="#SourceSansPro-Regular-114"/>
     <use x="285.899963" xlink:href="#SourceSansPro-Regular-32"/>
     <use x="305.899948" xlink:href="#SourceSansPro-Regular-111"/>
     <use x="360.099945" xlink:href="#SourceSansPro-Regular-102"/>
     <use x="389.299942" xlink:href="#SourceSansPro-Regular-32"/>
     <use x="409.299927" xlink:href="#SourceSansPro-Regular-112"/>
     <use x="464.799911" xlink:href="#SourceSansPro-Regular-114"/>
     <use x="499.499908" xlink:href="#SourceSansPro-Regular-101"/>
     <use x="549.099899" xlink:href="#SourceSansPro-Regular-118"/>
     <use x="595.799896" xlink:href="#SourceSansPro-Regular-105"/>
     <use x="620.399887" xlink:href="#SourceSansPro-Regular-111"/>
     <use x="674.599884" xlink:href="#SourceSansPro-Regular-117"/>
     <use x="728.999878" xlink:href="#SourceSansPro-Regular-115"/>
     <use x="770.899872" xlink:href="#SourceSansPro-Regular-32"/>
     <use x="790.899857" xlink:href="#SourceSansPro-Regular-109"/>
     <use x="873.79985" xlink:href="#SourceSansPro-Regular-101"/>
     <use x="923.399841" xlink:href="#SourceSansPro-Regular-115"/>
     <use x="965.299835" xlink:href="#SourceSansPro-Regular-115"/>
     <use x="1007.199829" xlink:href="#SourceSansPro-Regular-97"/>
     <use x="1057.599823" xlink:href="#SourceSansPro-Regular-103"/>
     <use x="1107.999817" xlink:href="#SourceSansPro-Regular-101"/>
     <use x="1157.599808" xlink:href="#SourceSansPro-Regular-32"/>
     <use x="1177.599792" xlink:href="#SourceSansPro-Regular-119"/>
     <use x="1249.39978" xlink:href="#SourceSansPro-Regular-104"/>
     <use x="1303.799774" xlink:href="#SourceSansPro-Regular-101"/>
     <use x="1353.399765" xlink:href="#SourceSansPro-Regular-110"/>
     <use x="1408.099762" xlink:href="#SourceSansPro-Regular-32"/>
     <use x="1428.099747" xlink:href="#SourceSansPro-Regular-97"/>
     <use x="1478.499741" xlink:href="#SourceSansPro-Regular-32"/>
     <use x="1498.499725" xlink:href="#SourceSansPro-Regular-109"/>
     <use x="1581.399719" xlink:href="#SourceSansPro-Regular-101"/>
     <use x="1630.99971" xlink:href="#SourceSansPro-Regular-115"/>
     <use x="1672.899704" xlink:href="#SourceSansPro-Regular-115"/>
     <use x="1714.799698" xlink:href="#SourceSansPro-Regular-97"/>
     <use x="1765.199692" xlink:href="#SourceSansPro-Regular-103"/>
     <use x="1815.599686" xlink:href="#SourceSansPro-Regular-101"/>
     <use x="1865.199677" xlink:href="#SourceSansPro-Regular-32"/>
     <use x="1885.199661" xlink:href="#SourceSansPro-Regular-105"/>
     <use x="1909.799652" xlink:href="#SourceSansPro-Regular-115"/>
     <use x="1951.699646" xlink:href="#SourceSansPro-Regular-32"/>
     <use x="1971.699631" xlink:href="#SourceSansPro-Regular-115"/>
     <use x="2013.599625" xlink:href="#SourceSansPro-Regular-101"/>
     <use x="2063.199615" xlink:href="#SourceSansPro-Regular-110"/>
     <use x="2117.899612" xlink:href="#SourceSansPro-Regular-116"/>
     <use x="2151.6996" xlink:href="#SourceSansPro-Regular-42"/>
    </g>
   </g>
   <g id="text_28">
    <!-- Reponse Martix -->
    <defs>
     <path d="M 19.90625 34.796875 
L 29.203125 34.796875 
Q 35.90625 34.796875 39.453125 37.59375 
Q 43 40.40625 43 46 
Q 43 51.703125 39.453125 53.890625 
Q 35.90625 56.09375 29.203125 56.09375 
L 19.90625 56.09375 
z
M 44 0 
L 29.90625 25.59375 
L 19.90625 25.59375 
L 19.90625 0 
L 8.296875 0 
L 8.296875 65.40625 
L 30.40625 65.40625 
Q 35.5 65.40625 39.890625 64.40625 
Q 44.296875 63.40625 47.5 61.15625 
Q 50.703125 58.90625 52.546875 55.203125 
Q 54.40625 51.5 54.40625 46 
Q 54.40625 38.5 50.84375 33.890625 
Q 47.296875 29.296875 41.40625 27.296875 
L 57 0 
z
" id="SourceSansPro-Semibold-82"/>
     <path d="M 28.296875 -1.203125 
Q 23.203125 -1.203125 18.796875 0.546875 
Q 14.40625 2.296875 11.09375 5.59375 
Q 7.796875 8.90625 5.9375 13.65625 
Q 4.09375 18.40625 4.09375 24.5 
Q 4.09375 30.5 6 35.296875 
Q 7.90625 40.09375 11.046875 43.390625 
Q 14.203125 46.703125 18.296875 48.5 
Q 22.40625 50.296875 26.703125 50.296875 
Q 31.703125 50.296875 35.5 48.59375 
Q 39.296875 46.90625 41.84375 43.796875 
Q 44.40625 40.703125 45.703125 36.390625 
Q 47 32.09375 47 27 
Q 47 25.296875 46.84375 23.796875 
Q 46.703125 22.296875 46.5 21.40625 
L 15.296875 21.40625 
Q 16.09375 14.796875 19.9375 11.25 
Q 23.796875 7.703125 29.796875 7.703125 
Q 33 7.703125 35.75 8.640625 
Q 38.5 9.59375 41.203125 11.296875 
L 45.09375 4.09375 
Q 41.59375 1.796875 37.296875 0.296875 
Q 33 -1.203125 28.296875 -1.203125 
z
M 37 29.203125 
Q 37 34.90625 34.546875 38.15625 
Q 32.09375 41.40625 27 41.40625 
Q 22.59375 41.40625 19.296875 38.296875 
Q 16 35.203125 15.203125 29.203125 
z
" id="SourceSansPro-Semibold-101"/>
     <path d="M 7.296875 49.09375 
L 16.796875 49.09375 
L 17.59375 43.90625 
L 18 43.90625 
Q 21.09375 46.5 24.890625 48.390625 
Q 28.703125 50.296875 32.796875 50.296875 
Q 37.40625 50.296875 40.953125 48.546875 
Q 44.5 46.796875 47 43.5 
Q 49.5 40.203125 50.796875 35.59375 
Q 52.09375 31 52.09375 25.296875 
Q 52.09375 19 50.34375 14.046875 
Q 48.59375 9.09375 45.6875 5.75 
Q 42.796875 2.40625 39 0.59375 
Q 35.203125 -1.203125 31.09375 -1.203125 
Q 27.90625 -1.203125 24.703125 0.1875 
Q 21.5 1.59375 18.5 4.203125 
L 18.796875 -4 
L 18.796875 -19.40625 
L 7.296875 -19.40625 
z
M 28.703125 8.296875 
Q 33.59375 8.296875 36.890625 12.546875 
Q 40.203125 16.796875 40.203125 25.203125 
Q 40.203125 32.59375 37.703125 36.6875 
Q 35.203125 40.796875 29.59375 40.796875 
Q 24.40625 40.796875 18.796875 35.296875 
L 18.796875 12.40625 
Q 21.5 10.09375 24 9.1875 
Q 26.5 8.296875 28.703125 8.296875 
z
" id="SourceSansPro-Semibold-112"/>
     <path d="M 27.40625 -1.203125 
Q 22.796875 -1.203125 18.59375 0.5 
Q 14.40625 2.203125 11.15625 5.5 
Q 7.90625 8.796875 6 13.59375 
Q 4.09375 18.40625 4.09375 24.5 
Q 4.09375 30.59375 6 35.390625 
Q 7.90625 40.203125 11.15625 43.5 
Q 14.40625 46.796875 18.59375 48.546875 
Q 22.796875 50.296875 27.40625 50.296875 
Q 32 50.296875 36.25 48.546875 
Q 40.5 46.796875 43.703125 43.5 
Q 46.90625 40.203125 48.84375 35.390625 
Q 50.796875 30.59375 50.796875 24.5 
Q 50.796875 18.40625 48.84375 13.59375 
Q 46.90625 8.796875 43.703125 5.5 
Q 40.5 2.203125 36.25 0.5 
Q 32 -1.203125 27.40625 -1.203125 
z
M 27.40625 8.203125 
Q 32.796875 8.203125 35.890625 12.640625 
Q 39 17.09375 39 24.5 
Q 39 32 35.890625 36.453125 
Q 32.796875 40.90625 27.40625 40.90625 
Q 22 40.90625 18.953125 36.453125 
Q 15.90625 32 15.90625 24.5 
Q 15.90625 17.09375 18.953125 12.640625 
Q 22 8.203125 27.40625 8.203125 
z
" id="SourceSansPro-Semibold-111"/>
     <path d="M 7.296875 49.09375 
L 16.796875 49.09375 
L 17.59375 42.5 
L 18 42.5 
Q 21.296875 45.703125 25.140625 48 
Q 29 50.296875 34.09375 50.296875 
Q 42 50.296875 45.59375 45.25 
Q 49.203125 40.203125 49.203125 30.796875 
L 49.203125 0 
L 37.703125 0 
L 37.703125 29.296875 
Q 37.703125 35.40625 35.890625 37.90625 
Q 34.09375 40.40625 30 40.40625 
Q 26.796875 40.40625 24.34375 38.84375 
Q 21.90625 37.296875 18.796875 34.296875 
L 18.796875 0 
L 7.296875 0 
z
" id="SourceSansPro-Semibold-110"/>
     <path d="M 21 -1.203125 
Q 15.90625 -1.203125 10.953125 0.75 
Q 6 2.703125 2.40625 5.59375 
L 7.796875 13 
Q 11.09375 10.40625 14.34375 8.953125 
Q 17.59375 7.5 21.40625 7.5 
Q 25.40625 7.5 27.296875 9.140625 
Q 29.203125 10.796875 29.203125 13.40625 
Q 29.203125 14.90625 28.296875 16.046875 
Q 27.40625 17.203125 25.90625 18.09375 
Q 24.40625 19 22.5 19.75 
Q 20.59375 20.5 18.703125 21.296875 
Q 16.296875 22.203125 13.796875 23.390625 
Q 11.296875 24.59375 9.34375 26.296875 
Q 7.40625 28 6.15625 30.25 
Q 4.90625 32.5 4.90625 35.59375 
Q 4.90625 42.09375 9.703125 46.1875 
Q 14.5 50.296875 22.796875 50.296875 
Q 27.90625 50.296875 32 48.5 
Q 36.09375 46.703125 39.09375 44.40625 
L 33.796875 37.40625 
Q 31.203125 39.296875 28.546875 40.4375 
Q 25.90625 41.59375 23 41.59375 
Q 19.296875 41.59375 17.546875 40.046875 
Q 15.796875 38.5 15.796875 36.203125 
Q 15.796875 34.703125 16.640625 33.640625 
Q 17.5 32.59375 18.890625 31.796875 
Q 20.296875 31 22.140625 30.296875 
Q 24 29.59375 26 28.90625 
Q 28.5 28 31 26.84375 
Q 33.5 25.703125 35.546875 24 
Q 37.59375 22.296875 38.84375 19.84375 
Q 40.09375 17.40625 40.09375 14 
Q 40.09375 10.796875 38.84375 8.046875 
Q 37.59375 5.296875 35.1875 3.25 
Q 32.796875 1.203125 29.1875 0 
Q 25.59375 -1.203125 21 -1.203125 
z
" id="SourceSansPro-Semibold-115"/>
     <path id="SourceSansPro-Semibold-32"/>
     <path d="M 8.296875 65.40625 
L 21.40625 65.40625 
L 33 33.40625 
Q 34.09375 30.296875 35.09375 27.046875 
Q 36.09375 23.796875 37.203125 20.59375 
L 37.59375 20.59375 
Q 38.703125 23.796875 39.640625 27.046875 
Q 40.59375 30.296875 41.703125 33.40625 
L 53 65.40625 
L 66.203125 65.40625 
L 66.203125 0 
L 55.5 0 
L 55.5 29.90625 
Q 55.5 32.203125 55.640625 34.890625 
Q 55.796875 37.59375 56 40.34375 
Q 56.203125 43.09375 56.5 45.75 
Q 56.796875 48.40625 57 50.703125 
L 56.59375 50.703125 
L 51.296875 35.5 
L 40.59375 6.09375 
L 33.703125 6.09375 
L 22.90625 35.5 
L 17.703125 50.703125 
L 17.296875 50.703125 
Q 17.5 48.40625 17.75 45.75 
Q 18 43.09375 18.25 40.34375 
Q 18.5 37.59375 18.640625 34.890625 
Q 18.796875 32.203125 18.796875 29.90625 
L 18.796875 0 
L 8.296875 0 
z
" id="SourceSansPro-Semibold-77"/>
     <path d="M 19.203125 -1.203125 
Q 12.703125 -1.203125 8.703125 2.75 
Q 4.703125 6.703125 4.703125 13.203125 
Q 4.703125 17.09375 6.34375 20.140625 
Q 8 23.203125 11.546875 25.390625 
Q 15.09375 27.59375 20.546875 29.09375 
Q 26 30.59375 33.59375 31.40625 
Q 33.5 33.296875 33.046875 35.046875 
Q 32.59375 36.796875 31.546875 38.140625 
Q 30.5 39.5 28.796875 40.25 
Q 27.09375 41 24.59375 41 
Q 21 41 17.546875 39.59375 
Q 14.09375 38.203125 10.796875 36.203125 
L 6.59375 43.90625 
Q 10.703125 46.5 15.796875 48.390625 
Q 20.90625 50.296875 26.796875 50.296875 
Q 36 50.296875 40.546875 44.84375 
Q 45.09375 39.40625 45.09375 29.09375 
L 45.09375 0 
L 35.59375 0 
L 34.796875 5.40625 
L 34.40625 5.40625 
Q 31.09375 2.59375 27.34375 0.6875 
Q 23.59375 -1.203125 19.203125 -1.203125 
z
M 22.90625 7.796875 
Q 25.90625 7.796875 28.34375 9.1875 
Q 30.796875 10.59375 33.59375 13.203125 
L 33.59375 24.203125 
Q 28.59375 23.59375 25.1875 22.59375 
Q 21.796875 21.59375 19.6875 20.34375 
Q 17.59375 19.09375 16.6875 17.5 
Q 15.796875 15.90625 15.796875 14.09375 
Q 15.796875 10.796875 17.796875 9.296875 
Q 19.796875 7.796875 22.90625 7.796875 
z
" id="SourceSansPro-Semibold-97"/>
     <path d="M 7.296875 49.09375 
L 16.796875 49.09375 
L 17.59375 40.40625 
L 18 40.40625 
Q 20.59375 45.203125 24.296875 47.75 
Q 28 50.296875 31.90625 50.296875 
Q 35.40625 50.296875 37.5 49.296875 
L 35.5 39.296875 
Q 34.203125 39.703125 33.09375 39.890625 
Q 32 40.09375 30.40625 40.09375 
Q 27.5 40.09375 24.296875 37.84375 
Q 21.09375 35.59375 18.796875 30 
L 18.796875 0 
L 7.296875 0 
z
" id="SourceSansPro-Semibold-114"/>
     <path d="M 24.59375 -1.203125 
Q 20.296875 -1.203125 17.34375 0.09375 
Q 14.40625 1.40625 12.546875 3.75 
Q 10.703125 6.09375 9.84375 9.34375 
Q 9 12.59375 9 16.59375 
L 9 40 
L 2 40 
L 2 48.59375 
L 9.59375 49.09375 
L 11 62.5 
L 20.59375 62.5 
L 20.59375 49.09375 
L 33.09375 49.09375 
L 33.09375 40 
L 20.59375 40 
L 20.59375 16.59375 
Q 20.59375 8 27.5 8 
Q 28.796875 8 30.140625 8.296875 
Q 31.5 8.59375 32.59375 9.09375 
L 34.59375 0.59375 
Q 32.59375 -0.09375 30.046875 -0.640625 
Q 27.5 -1.203125 24.59375 -1.203125 
z
" id="SourceSansPro-Semibold-116"/>
     <path d="M 7.296875 49.09375 
L 18.796875 49.09375 
L 18.796875 0 
L 7.296875 0 
z
M 13.09375 57.703125 
Q 10 57.703125 8 59.5 
Q 6 61.296875 6 64.203125 
Q 6 67.09375 8 68.9375 
Q 10 70.796875 13.09375 70.796875 
Q 16.203125 70.796875 18.203125 68.9375 
Q 20.203125 67.09375 20.203125 64.203125 
Q 20.203125 61.296875 18.203125 59.5 
Q 16.203125 57.703125 13.09375 57.703125 
z
" id="SourceSansPro-Semibold-105"/>
     <path d="M 17 25.59375 
L 2.40625 49.09375 
L 14.796875 49.09375 
L 20.296875 39.796875 
Q 21.40625 37.796875 22.546875 35.640625 
Q 23.703125 33.5 24.796875 31.5 
L 25.203125 31.5 
Q 26.09375 33.5 27.09375 35.640625 
Q 28.09375 37.796875 29 39.796875 
L 33.703125 49.09375 
L 45.59375 49.09375 
L 31.09375 24.296875 
L 46.703125 0 
L 34.296875 0 
L 28.296875 9.703125 
Q 27.09375 11.90625 25.84375 14.09375 
Q 24.59375 16.296875 23.296875 18.40625 
L 22.90625 18.40625 
Q 21.796875 16.296875 20.75 14.140625 
Q 19.703125 12 18.59375 9.703125 
L 13.40625 0 
L 1.40625 0 
z
" id="SourceSansPro-Semibold-120"/>
    </defs>
    <g style="fill:#242121;" transform="translate(182.214219 21.223375)scale(0.14 -0.14)">
     <use xlink:href="#SourceSansPro-Semibold-82"/>
     <use x="59.199997" xlink:href="#SourceSansPro-Semibold-101"/>
     <use x="109.899994" xlink:href="#SourceSansPro-Semibold-112"/>
     <use x="166.299988" xlink:href="#SourceSansPro-Semibold-111"/>
     <use x="221.199982" xlink:href="#SourceSansPro-Semibold-110"/>
     <use x="277.199966" xlink:href="#SourceSansPro-Semibold-115"/>
     <use x="320.299957" xlink:href="#SourceSansPro-Semibold-101"/>
     <use x="370.999954" xlink:href="#SourceSansPro-Semibold-32"/>
     <use x="390.999939" xlink:href="#SourceSansPro-Semibold-77"/>
     <use x="465.499924" xlink:href="#SourceSansPro-Semibold-97"/>
     <use x="517.099915" xlink:href="#SourceSansPro-Semibold-114"/>
     <use x="554.399902" xlink:href="#SourceSansPro-Semibold-116"/>
     <use x="590.499893" xlink:href="#SourceSansPro-Semibold-105"/>
     <use x="616.69989" xlink:href="#SourceSansPro-Semibold-120"/>
    </g>
    <!--   -->
    <g style="fill:#242121;" transform="translate(227.35 35.8)scale(0.14 -0.14)">
     <use xlink:href="#SourceSansPro-Semibold-32"/>
    </g>
   </g>
  </g>
  <g id="text_29">
   <!-- *Excludes messages to self within 3 mins -->
   <defs>
    <path d="M 9 65.59375 
L 46.796875 65.59375 
L 46.796875 58.59375 
L 17.296875 58.59375 
L 17.296875 38 
L 42.203125 38 
L 42.203125 30.90625 
L 17.296875 30.90625 
L 17.296875 7.09375 
L 47.796875 7.09375 
L 47.796875 0 
L 9 0 
z
" id="SourceSansPro-Regular-69"/>
    <path d="M 17.296875 25.40625 
L 2.59375 48.59375 
L 11.5 48.59375 
L 18 37.90625 
Q 19.09375 35.90625 20.296875 33.84375 
Q 21.5 31.796875 22.796875 29.796875 
L 23.203125 29.796875 
Q 24.296875 31.796875 25.390625 33.84375 
Q 26.5 35.90625 27.59375 37.90625 
L 33.5 48.59375 
L 42.09375 48.59375 
L 27.40625 24.5 
L 43.203125 0 
L 34.296875 0 
L 27.203125 11.296875 
Q 25.90625 13.5 24.59375 15.703125 
Q 23.296875 17.90625 21.90625 20 
L 21.5 20 
Q 20.203125 17.90625 19 15.75 
Q 17.796875 13.59375 16.59375 11.296875 
L 10 0 
L 1.40625 0 
z
" id="SourceSansPro-Regular-120"/>
    <path d="M 27.40625 -1.203125 
Q 22.59375 -1.203125 18.390625 0.5 
Q 14.203125 2.203125 11.140625 5.453125 
Q 8.09375 8.703125 6.34375 13.453125 
Q 4.59375 18.203125 4.59375 24.203125 
Q 4.59375 30.296875 6.5 35.046875 
Q 8.40625 39.796875 11.59375 43.09375 
Q 14.796875 46.40625 19.046875 48.09375 
Q 23.296875 49.796875 28 49.796875 
Q 32.796875 49.796875 36.1875 48.09375 
Q 39.59375 46.40625 42.203125 44.09375 
L 38 38.703125 
Q 35.90625 40.59375 33.546875 41.796875 
Q 31.203125 43 28.296875 43 
Q 25 43 22.203125 41.640625 
Q 19.40625 40.296875 17.40625 37.796875 
Q 15.40625 35.296875 14.25 31.84375 
Q 13.09375 28.40625 13.09375 24.203125 
Q 13.09375 20 14.1875 16.59375 
Q 15.296875 13.203125 17.25 10.75 
Q 19.203125 8.296875 22 6.9375 
Q 24.796875 5.59375 28.09375 5.59375 
Q 31.5 5.59375 34.34375 7.046875 
Q 37.203125 8.5 39.5 10.5 
L 43.09375 5 
Q 39.796875 2.09375 35.796875 0.4375 
Q 31.796875 -1.203125 27.40625 -1.203125 
z
" id="SourceSansPro-Regular-99"/>
    <path d="M 16.90625 -1.203125 
Q 12.203125 -1.203125 10.203125 1.59375 
Q 8.203125 4.40625 8.203125 9.796875 
L 8.203125 71.203125 
L 16.40625 71.203125 
L 16.40625 9.203125 
Q 16.40625 7.203125 17.09375 6.390625 
Q 17.796875 5.59375 18.703125 5.59375 
Q 19.09375 5.59375 19.4375 5.59375 
Q 19.796875 5.59375 20.5 5.796875 
L 21.59375 -0.40625 
Q 20.796875 -0.796875 19.6875 -1 
Q 18.59375 -1.203125 16.90625 -1.203125 
z
" id="SourceSansPro-Regular-108"/>
   </defs>
   <g style="fill:#242121;" transform="translate(0 321.759375)scale(0.1 -0.1)">
    <use xlink:href="#SourceSansPro-Regular-42"/>
    <use x="41.799988" xlink:href="#SourceSansPro-Regular-69"/>
    <use x="94.499985" xlink:href="#SourceSansPro-Regular-120"/>
    <use x="139.099976" xlink:href="#SourceSansPro-Regular-99"/>
    <use x="184.699966" xlink:href="#SourceSansPro-Regular-108"/>
    <use x="210.199951" xlink:href="#SourceSansPro-Regular-117"/>
    <use x="264.599945" xlink:href="#SourceSansPro-Regular-100"/>
    <use x="320.09993" xlink:href="#SourceSansPro-Regular-101"/>
    <use x="369.699921" xlink:href="#SourceSansPro-Regular-115"/>
    <use x="411.599915" xlink:href="#SourceSansPro-Regular-32"/>
    <use x="431.599899" xlink:href="#SourceSansPro-Regular-109"/>
    <use x="514.499893" xlink:href="#SourceSansPro-Regular-101"/>
    <use x="564.099884" xlink:href="#SourceSansPro-Regular-115"/>
    <use x="605.999878" xlink:href="#SourceSansPro-Regular-115"/>
    <use x="647.899872" xlink:href="#SourceSansPro-Regular-97"/>
    <use x="698.299866" xlink:href="#SourceSansPro-Regular-103"/>
    <use x="748.69986" xlink:href="#SourceSansPro-Regular-101"/>
    <use x="798.29985" xlink:href="#SourceSansPro-Regular-115"/>
    <use x="840.199844" xlink:href="#SourceSansPro-Regular-32"/>
    <use x="860.199829" xlink:href="#SourceSansPro-Regular-116"/>
    <use x="893.999817" xlink:href="#SourceSansPro-Regular-111"/>
    <use x="948.199814" xlink:href="#SourceSansPro-Regular-32"/>
    <use x="968.199799" xlink:href="#SourceSansPro-Regular-115"/>
    <use x="1010.099792" xlink:href="#SourceSansPro-Regular-101"/>
    <use x="1059.699783" xlink:href="#SourceSansPro-Regular-108"/>
    <use x="1085.199768" xlink:href="#SourceSansPro-Regular-102"/>
    <use x="1114.399765" xlink:href="#SourceSansPro-Regular-32"/>
    <use x="1134.39975" xlink:href="#SourceSansPro-Regular-119"/>
    <use x="1206.199738" xlink:href="#SourceSansPro-Regular-105"/>
    <use x="1230.799728" xlink:href="#SourceSansPro-Regular-116"/>
    <use x="1264.599716" xlink:href="#SourceSansPro-Regular-104"/>
    <use x="1318.99971" xlink:href="#SourceSansPro-Regular-105"/>
    <use x="1343.599701" xlink:href="#SourceSansPro-Regular-110"/>
    <use x="1398.299698" xlink:href="#SourceSansPro-Regular-32"/>
    <use x="1418.299683" xlink:href="#SourceSansPro-Regular-51"/>
    <use x="1467.99968" xlink:href="#SourceSansPro-Regular-32"/>
    <use x="1487.999664" xlink:href="#SourceSansPro-Regular-109"/>
    <use x="1570.899658" xlink:href="#SourceSansPro-Regular-105"/>
    <use x="1595.499649" xlink:href="#SourceSansPro-Regular-110"/>
    <use x="1650.199646" xlink:href="#SourceSansPro-Regular-115"/>
   </g>
  </g>
 </g>
 <defs>
  <clipPath id="pf8b4d91d30">
   <rect height="245.9" width="384.9" x="36.3" y="41.8"/>
  </clipPath>
 </defs>
</svg>
